{"glyphs":{"0":{"ha":694,"x_min":50,"x_max":643,"o":"m 643 460 q 606 203 643 311 q 543 83 581 126 q 454 8 504 37 q 347 -20 399 -20 q 227 16 273 -20 q 132 113 175 50 q 79 235 98 164 q 50 449 50 340 q 92 724 50 602 q 197 884 127 827 q 347 939 261 939 q 496 885 428 939 q 599 737 568 825 q 643 460 643 610 m 435 461 q 432 743 435 524 q 400 869 427 839 q 345 892 382 892 q 298 875 315 892 q 264 791 273 850 q 256 374 256 732 q 260 208 256 278 q 269 111 261 135 q 298 47 281 61 q 349 31 318 31 q 400 53 382 31 q 432 170 428 98 l 435 461 z "},"1":{"ha":694,"x_min":92,"x_max":589,"o":"m 453 939 l 453 186 q 461 79 453 102 q 492 40 467 57 q 568 25 521 25 l 589 25 l 589 -1 l 104 -1 l 104 24 l 127 24 q 212 39 193 26 q 245 77 237 54 q 253 113 250 85 q 256 186 256 140 l 256 664 q 249 743 256 704 q 227 771 239 761 q 187 782 201 782 q 104 760 143 782 l 92 783 l 431 939 l 453 939 z "},"2":{"ha":694,"x_min":33,"x_max":627,"o":"m 575 -1 l 33 -1 l 33 16 q 72 61 52 36 q 110 106 92 86 q 136 139 125 125 q 231 258 212 235 q 336 414 306 354 q 389 614 389 517 q 346 732 389 685 q 237 779 302 779 q 75 675 134 779 l 50 684 q 161 876 87 812 q 334 940 231 940 q 461 905 411 940 q 550 817 521 872 q 583 711 583 761 q 533 528 583 615 q 517 498 524 515 q 490 460 504 481 q 427 379 464 425 q 342 286 383 328 q 235 178 261 201 l 433 178 q 529 183 521 178 q 566 204 543 187 q 603 265 576 214 l 627 265 l 575 -1 z "},"3":{"ha":694,"x_min":22,"x_max":614,"o":"m 205 461 l 205 485 q 268 505 241 496 q 313 526 297 518 q 364 586 343 549 q 386 665 386 625 q 346 762 386 722 q 243 803 301 803 q 82 703 146 803 l 57 711 q 182 882 104 825 q 351 939 260 939 q 510 880 447 939 q 572 745 572 822 q 543 646 572 694 q 452 562 514 599 q 574 468 530 521 q 614 325 614 411 q 511 82 614 182 q 389 5 458 32 q 232 -20 317 -20 q 61 20 115 -20 q 22 89 22 46 q 45 143 22 121 q 96 164 68 164 q 139 154 121 164 q 215 96 146 151 q 282 56 254 66 q 339 43 313 43 q 425 82 390 43 q 461 182 461 122 q 396 353 461 269 q 205 461 332 432 z "},"4":{"ha":694,"x_min":35,"x_max":637,"o":"m 35 346 l 471 939 l 554 939 l 554 346 l 637 346 l 637 204 l 554 204 l 554 0 l 368 0 l 368 204 l 35 204 l 35 346 m 100 346 l 368 346 l 368 710 l 100 346 z "},"5":{"ha":694,"x_min":47,"x_max":642,"o":"m 211 920 l 642 920 l 574 743 l 211 743 l 176 653 q 538 536 411 642 q 642 315 642 446 q 593 150 642 232 q 457 25 545 68 q 358 -8 406 1 q 265 -20 309 -20 q 92 24 151 -20 q 50 90 50 53 q 72 143 50 121 q 123 165 94 165 q 176 154 140 165 q 269 97 207 142 q 342 58 314 66 q 389 50 364 50 q 484 90 443 50 q 522 187 522 129 q 403 382 522 307 q 102 457 285 457 q 47 456 50 457 l 211 920 z "},"6":{"ha":694,"x_min":52,"x_max":653,"o":"m 653 939 l 653 920 q 456 839 525 888 q 392 786 408 807 q 339 721 364 758 q 271 546 294 647 q 321 572 301 568 q 410 586 358 586 q 581 511 514 586 q 633 424 618 472 q 648 307 648 368 q 611 140 648 215 q 507 22 576 68 q 361 -20 437 -20 q 204 28 272 -20 q 92 164 131 72 q 52 358 52 262 q 126 646 52 513 q 338 859 200 782 q 653 939 481 936 m 262 492 q 257 354 257 447 q 275 174 257 239 q 323 50 294 85 q 376 25 347 25 q 433 61 406 25 q 457 208 457 103 q 411 467 457 393 q 334 514 382 514 q 262 492 300 514 z "},"7":{"ha":694,"x_min":46,"x_max":661,"o":"m 245 -20 l 496 736 l 306 736 q 138 711 196 736 q 72 635 100 689 l 46 635 l 114 920 l 661 920 l 353 -20 l 245 -20 z "},"8":{"ha":694,"x_min":49,"x_max":644,"o":"m 472 519 q 608 387 571 444 q 644 245 644 325 q 561 58 644 136 q 335 -20 475 -20 q 123 49 196 -20 q 49 212 49 115 q 90 342 49 290 q 233 443 134 397 q 94 579 129 521 q 64 703 64 639 q 143 865 64 794 q 357 936 220 936 q 558 873 492 936 q 629 724 629 811 q 590 610 629 657 q 472 519 550 559 m 422 554 q 460 631 450 593 q 471 722 471 699 q 433 857 471 810 q 354 893 406 893 q 278 861 314 893 q 244 779 244 825 q 282 676 244 733 q 338 616 302 646 q 422 554 371 587 m 286 411 q 257 376 268 396 q 232 307 237 349 q 220 212 220 237 q 236 106 220 150 q 285 43 257 62 q 346 25 311 25 q 429 61 393 25 q 463 160 463 96 q 286 411 463 292 z "},"9":{"ha":694,"x_min":43,"x_max":646,"o":"m 43 -20 l 43 0 q 150 35 92 11 q 233 77 200 56 q 358 200 313 126 q 422 371 404 277 q 350 340 389 351 q 289 332 314 332 q 115 407 184 332 q 46 612 46 485 q 85 781 46 710 q 191 897 121 854 q 335 939 258 939 q 488 893 415 939 q 603 758 558 844 q 635 668 628 711 q 646 559 646 608 q 576 282 646 419 q 368 68 507 149 q 43 -20 233 -14 m 432 428 q 439 561 437 561 q 410 790 439 692 q 363 878 396 847 q 318 893 343 893 q 265 864 285 893 q 239 711 239 827 q 283 452 239 525 q 363 406 313 406 q 432 428 395 406 z "},"":{"ha":1042,"x_min":174,"x_max":868,"o":"m 174 0 l 174 868 l 868 868 l 868 0 l 174 0 m 846 22 l 846 846 l 196 846 l 196 22 l 846 22 z "},"":{"ha":1042,"x_min":174,"x_max":868,"o":"m 174 0 l 174 868 l 868 868 l 868 0 l 174 0 m 846 22 l 846 846 l 196 846 l 196 22 l 846 22 z "},"":{"ha":1042,"x_min":174,"x_max":868,"o":"m 174 0 l 174 868 l 868 868 l 868 0 l 174 0 m 846 22 l 846 846 l 196 846 l 196 22 l 846 22 z "},"":{"ha":1042,"x_min":174,"x_max":868,"o":"m 174 0 l 174 868 l 868 868 l 868 0 l 174 0 m 846 22 l 846 846 l 196 846 l 196 22 l 846 22 z "},"":{"ha":1042,"x_min":174,"x_max":868,"o":"m 174 0 l 174 868 l 868 868 l 868 0 l 174 0 m 846 22 l 846 846 l 196 846 l 196 22 l 846 22 z "},"":{"ha":1042,"x_min":174,"x_max":868,"o":"m 174 0 l 174 868 l 868 868 l 868 0 l 174 0 m 846 22 l 846 846 l 196 846 l 196 22 l 846 22 z "},"":{"ha":1042,"x_min":174,"x_max":868,"o":"m 174 0 l 174 868 l 868 868 l 868 0 l 174 0 m 846 22 l 846 846 l 196 846 l 196 22 l 846 22 z "},"":{"ha":1042,"x_min":174,"x_max":868,"o":"m 174 0 l 174 868 l 868 868 l 868 0 l 174 0 m 846 22 l 846 846 l 196 846 l 196 22 l 846 22 z "},"":{"ha":1042,"x_min":174,"x_max":868,"o":"m 174 0 l 174 868 l 868 868 l 868 0 l 174 0 m 846 22 l 846 846 l 196 846 l 196 22 l 846 22 z "},"":{"ha":1042,"x_min":174,"x_max":868,"o":"m 174 0 l 174 868 l 868 868 l 868 0 l 174 0 m 846 22 l 846 846 l 196 846 l 196 22 l 846 22 z "},"":{"ha":1042,"x_min":174,"x_max":868,"o":"m 174 0 l 174 868 l 868 868 l 868 0 l 174 0 m 846 22 l 846 846 l 196 846 l 196 22 l 846 22 z "},"":{"ha":1042,"x_min":174,"x_max":868,"o":"m 174 0 l 174 868 l 868 868 l 868 0 l 174 0 m 846 22 l 846 846 l 196 846 l 196 22 l 846 22 z "},"":{"ha":1042,"x_min":174,"x_max":868,"o":"m 174 0 l 174 868 l 868 868 l 868 0 l 174 0 m 846 22 l 846 846 l 196 846 l 196 22 l 846 22 z "},"":{"ha":1042,"x_min":174,"x_max":868,"o":"m 174 0 l 174 868 l 868 868 l 868 0 l 174 0 m 846 22 l 846 846 l 196 846 l 196 22 l 846 22 z "},"":{"ha":1042,"x_min":174,"x_max":868,"o":"m 174 0 l 174 868 l 868 868 l 868 0 l 174 0 m 846 22 l 846 846 l 196 846 l 196 22 l 846 22 z "},"":{"ha":1042,"x_min":174,"x_max":868,"o":"m 174 0 l 174 868 l 868 868 l 868 0 l 174 0 m 846 22 l 846 846 l 196 846 l 196 22 l 846 22 z "},"":{"ha":1042,"x_min":174,"x_max":868,"o":"m 174 0 l 174 868 l 868 868 l 868 0 l 174 0 m 846 22 l 846 846 l 196 846 l 196 22 l 846 22 z "},"":{"ha":1042,"x_min":174,"x_max":868,"o":"m 174 0 l 174 868 l 868 868 l 868 0 l 174 0 m 846 22 l 846 846 l 196 846 l 196 22 l 846 22 z "},"":{"ha":1042,"x_min":174,"x_max":868,"o":"m 174 0 l 174 868 l 868 868 l 868 0 l 174 0 m 846 22 l 846 846 l 196 846 l 196 22 l 846 22 z "},"":{"ha":1042,"x_min":174,"x_max":868,"o":"m 174 0 l 174 868 l 868 868 l 868 0 l 174 0 m 846 22 l 846 846 l 196 846 l 196 22 l 846 22 z "},"":{"ha":1042,"x_min":174,"x_max":868,"o":"m 174 0 l 174 868 l 868 868 l 868 0 l 174 0 m 846 22 l 846 846 l 196 846 l 196 22 l 846 22 z "},"":{"ha":1042,"x_min":174,"x_max":868,"o":"m 174 0 l 174 868 l 868 868 l 868 0 l 174 0 m 846 22 l 846 846 l 196 846 l 196 22 l 846 22 z "},"":{"ha":1042,"x_min":174,"x_max":868,"o":"m 174 0 l 174 868 l 868 868 l 868 0 l 174 0 m 846 22 l 846 846 l 196 846 l 196 22 l 846 22 z "},"":{"ha":1042,"x_min":174,"x_max":868,"o":"m 174 0 l 174 868 l 868 868 l 868 0 l 174 0 m 846 22 l 846 846 l 196 846 l 196 22 l 846 22 z "},"":{"ha":1042,"x_min":174,"x_max":868,"o":"m 174 0 l 174 868 l 868 868 l 868 0 l 174 0 m 846 22 l 846 846 l 196 846 l 196 22 l 846 22 z "},"·":{"ha":1042,"x_min":174,"x_max":868,"o":"m 174 0 l 174 868 l 868 868 l 868 0 l 174 0 m 846 22 l 846 846 l 196 846 l 196 22 l 846 22 z "},"Ŕ":{"ha":1042,"x_min":174,"x_max":868,"o":"m 174 0 l 174 868 l 868 868 l 868 0 l 174 0 m 846 22 l 846 846 l 196 846 l 196 22 l 846 22 z "},"ŕ":{"ha":1042,"x_min":174,"x_max":868,"o":"m 174 0 l 174 868 l 868 868 l 868 0 l 174 0 m 846 22 l 846 846 l 196 846 l 196 22 l 846 22 z "},"Ŗ":{"ha":1042,"x_min":174,"x_max":868,"o":"m 174 0 l 174 868 l 868 868 l 868 0 l 174 0 m 846 22 l 846 846 l 196 846 l 196 22 l 846 22 z "},"ŗ":{"ha":1042,"x_min":174,"x_max":868,"o":"m 174 0 l 174 868 l 868 868 l 868 0 l 174 0 m 846 22 l 846 846 l 196 846 l 196 22 l 846 22 z "},"Ř":{"ha":1042,"x_min":174,"x_max":868,"o":"m 174 0 l 174 868 l 868 868 l 868 0 l 174 0 m 846 22 l 846 846 l 196 846 l 196 22 l 846 22 z "},"ř":{"ha":1042,"x_min":174,"x_max":868,"o":"m 174 0 l 174 868 l 868 868 l 868 0 l 174 0 m 846 22 l 846 846 l 196 846 l 196 22 l 846 22 z "},"Ś":{"ha":1042,"x_min":174,"x_max":868,"o":"m 174 0 l 174 868 l 868 868 l 868 0 l 174 0 m 846 22 l 846 846 l 196 846 l 196 22 l 846 22 z "},"ś":{"ha":1042,"x_min":174,"x_max":868,"o":"m 174 0 l 174 868 l 868 868 l 868 0 l 174 0 m 846 22 l 846 846 l 196 846 l 196 22 l 846 22 z "},"Ŝ":{"ha":1042,"x_min":174,"x_max":868,"o":"m 174 0 l 174 868 l 868 868 l 868 0 l 174 0 m 846 22 l 846 846 l 196 846 l 196 22 l 846 22 z "},"ŝ":{"ha":1042,"x_min":174,"x_max":868,"o":"m 174 0 l 174 868 l 868 868 l 868 0 l 174 0 m 846 22 l 846 846 l 196 846 l 196 22 l 846 22 z "},"Ş":{"ha":1042,"x_min":174,"x_max":868,"o":"m 174 0 l 174 868 l 868 868 l 868 0 l 174 0 m 846 22 l 846 846 l 196 846 l 196 22 l 846 22 z "},"ş":{"ha":1042,"x_min":174,"x_max":868,"o":"m 174 0 l 174 868 l 868 868 l 868 0 l 174 0 m 846 22 l 846 846 l 196 846 l 196 22 l 846 22 z "},"―":{"ha":1042,"x_min":174,"x_max":868,"o":"m 174 0 l 174 868 l 868 868 l 868 0 l 174 0 m 846 22 l 846 846 l 196 846 l 196 22 l 846 22 z "},"‖":{"ha":1042,"x_min":174,"x_max":868,"o":"m 174 0 l 174 868 l 868 868 l 868 0 l 174 0 m 846 22 l 846 846 l 196 846 l 196 22 l 846 22 z "},"‗":{"ha":1042,"x_min":174,"x_max":868,"o":"m 174 0 l 174 868 l 868 868 l 868 0 l 174 0 m 846 22 l 846 846 l 196 846 l 196 22 l 846 22 z "},"‛":{"ha":1042,"x_min":174,"x_max":868,"o":"m 174 0 l 174 868 l 868 868 l 868 0 l 174 0 m 846 22 l 846 846 l 196 846 l 196 22 l 846 22 z "},"‟":{"ha":1042,"x_min":174,"x_max":868,"o":"m 174 0 l 174 868 l 868 868 l 868 0 l 174 0 m 846 22 l 846 846 l 196 846 l 196 22 l 846 22 z "},"‣":{"ha":1042,"x_min":174,"x_max":868,"o":"m 174 0 l 174 868 l 868 868 l 868 0 l 174 0 m 846 22 l 846 846 l 196 846 l 196 22 l 846 22 z "},"․":{"ha":1042,"x_min":174,"x_max":868,"o":"m 174 0 l 174 868 l 868 868 l 868 0 l 174 0 m 846 22 l 846 846 l 196 846 l 196 22 l 846 22 z "},"‥":{"ha":1042,"x_min":174,"x_max":868,"o":"m 174 0 l 174 868 l 868 868 l 868 0 l 174 0 m 846 22 l 846 846 l 196 846 l 196 22 l 846 22 z "},"‧":{"ha":1042,"x_min":174,"x_max":868,"o":"m 174 0 l 174 868 l 868 868 l 868 0 l 174 0 m 846 22 l 846 846 l 196 846 l 196 22 l 846 22 z "}," ":{"ha":1042,"x_min":174,"x_max":868,"o":"m 174 0 l 174 868 l 868 868 l 868 0 l 174 0 m 846 22 l 846 846 l 196 846 l 196 22 l 846 22 z "}," ":{"ha":1042,"x_min":174,"x_max":868,"o":"m 174 0 l 174 868 l 868 868 l 868 0 l 174 0 m 846 22 l 846 846 l 196 846 l 196 22 l 846 22 z "},"‪":{"ha":1042,"x_min":174,"x_max":868,"o":"m 174 0 l 174 868 l 868 868 l 868 0 l 174 0 m 846 22 l 846 846 l 196 846 l 196 22 l 846 22 z "},"‫":{"ha":1042,"x_min":174,"x_max":868,"o":"m 174 0 l 174 868 l 868 868 l 868 0 l 174 0 m 846 22 l 846 846 l 196 846 l 196 22 l 846 22 z "},"‬":{"ha":1042,"x_min":174,"x_max":868,"o":"m 174 0 l 174 868 l 868 868 l 868 0 l 174 0 m 846 22 l 846 846 l 196 846 l 196 22 l 846 22 z "},"‭":{"ha":1042,"x_min":174,"x_max":868,"o":"m 174 0 l 174 868 l 868 868 l 868 0 l 174 0 m 846 22 l 846 846 l 196 846 l 196 22 l 846 22 z "},"‮":{"ha":1042,"x_min":174,"x_max":868,"o":"m 174 0 l 174 868 l 868 868 l 868 0 l 174 0 m 846 22 l 846 846 l 196 846 l 196 22 l 846 22 z "}," ":{"ha":1042,"x_min":174,"x_max":868,"o":"m 174 0 l 174 868 l 868 868 l 868 0 l 174 0 m 846 22 l 846 846 l 196 846 l 196 22 l 846 22 z "},"‱":{"ha":1042,"x_min":174,"x_max":868,"o":"m 174 0 l 174 868 l 868 868 l 868 0 l 174 0 m 846 22 l 846 846 l 196 846 l 196 22 l 846 22 z "},"′":{"ha":1042,"x_min":174,"x_max":868,"o":"m 174 0 l 174 868 l 868 868 l 868 0 l 174 0 m 846 22 l 846 846 l 196 846 l 196 22 l 846 22 z "},"″":{"ha":1042,"x_min":174,"x_max":868,"o":"m 174 0 l 174 868 l 868 868 l 868 0 l 174 0 m 846 22 l 846 846 l 196 846 l 196 22 l 846 22 z "},"‴":{"ha":1042,"x_min":174,"x_max":868,"o":"m 174 0 l 174 868 l 868 868 l 868 0 l 174 0 m 846 22 l 846 846 l 196 846 l 196 22 l 846 22 z "},"‵":{"ha":1042,"x_min":174,"x_max":868,"o":"m 174 0 l 174 868 l 868 868 l 868 0 l 174 0 m 846 22 l 846 846 l 196 846 l 196 22 l 846 22 z "},"‶":{"ha":1042,"x_min":174,"x_max":868,"o":"m 174 0 l 174 868 l 868 868 l 868 0 l 174 0 m 846 22 l 846 846 l 196 846 l 196 22 l 846 22 z "},"‷":{"ha":1042,"x_min":174,"x_max":868,"o":"m 174 0 l 174 868 l 868 868 l 868 0 l 174 0 m 846 22 l 846 846 l 196 846 l 196 22 l 846 22 z "},"‸":{"ha":1042,"x_min":174,"x_max":868,"o":"m 174 0 l 174 868 l 868 868 l 868 0 l 174 0 m 846 22 l 846 846 l 196 846 l 196 22 l 846 22 z "},"`":{"ha":1261,"x_min":46,"x_max":1193,"o":"m 432 1006 q 336 909 427 942 q 265 896 298 900 q 192 886 227 890 l 180 886 q 153 895 153 886 q 158 907 157 905 q 161 913 160 907 q 164 917 163 916 q 164 918 164 918 q 168 928 167 924 q 170 929 170 928 q 171 930 171 929 l 171 932 q 172 933 172 932 q 174 935 174 933 l 174 939 q 182 956 182 954 q 193 1007 193 996 l 193 1014 q 178 1065 192 1047 q 176 1068 176 1067 q 175 1069 176 1068 q 174 1071 174 1071 q 172 1072 174 1071 q 170 1076 171 1074 q 167 1079 168 1078 q 165 1082 167 1080 q 164 1084 165 1084 q 163 1088 163 1086 l 161 1088 q 160 1089 160 1088 q 158 1092 160 1090 q 153 1099 153 1097 q 149 1107 150 1100 q 147 1109 147 1108 l 146 1109 q 158 1121 146 1116 q 197 1132 160 1126 q 256 1139 220 1136 l 275 1139 q 366 1124 297 1139 q 433 1040 424 1100 l 882 1083 q 947 1181 897 1149 q 1101 1214 975 1196 q 1141 1215 1140 1214 q 1162 1206 1160 1215 q 1145 1168 1145 1175 q 1139 1129 1139 1158 l 1139 1125 q 1140 1117 1139 1122 q 1143 1107 1141 1111 q 1146 1097 1145 1101 q 1149 1083 1147 1092 q 1182 1035 1156 1061 q 1193 1018 1193 1023 q 1160 999 1193 1010 q 1154 997 1156 999 q 1147 996 1150 997 q 1136 993 1136 993 q 1132 991 1135 991 q 1128 990 1129 991 q 1118 989 1125 989 q 1114 987 1117 987 q 1107 986 1112 986 q 1100 985 1105 985 l 1101 985 l 1103 985 q 1080 982 1103 983 q 1047 978 1065 981 l 1028 978 l 1025 978 q 949 990 981 978 q 892 1051 901 1010 l 432 1006 m 411 536 q 419 585 415 551 q 440 646 433 633 q 562 777 490 730 q 754 832 653 827 q 825 833 764 833 q 854 835 829 835 l 850 835 q 932 831 896 835 q 1029 789 997 822 q 1072 720 1060 751 q 1086 636 1083 692 q 1088 599 1086 600 q 1089 557 1088 558 q 1088 514 1088 555 l 1088 504 q 1089 488 1088 489 l 1089 472 q 1083 310 1089 350 q 1079 203 1080 235 q 1078 171 1078 193 q 1076 158 1076 167 l 1076 160 q 1078 153 1076 154 q 1082 113 1079 123 q 1083 92 1083 109 q 1108 65 1090 69 q 1131 47 1129 58 l 1131 46 q 1064 22 1131 25 q 985 16 1008 20 q 936 9 972 9 l 925 9 q 888 16 897 9 q 865 40 871 21 q 859 87 861 58 q 857 123 857 89 q 861 211 857 171 q 864 250 863 211 q 867 273 867 273 l 867 286 l 867 301 q 871 367 868 346 l 871 393 l 871 392 q 873 492 871 392 q 875 559 875 496 q 876 587 876 561 l 876 624 q 848 741 872 700 q 758 794 819 790 l 750 794 l 739 794 q 637 701 667 790 q 604 425 614 621 q 599 289 599 397 l 599 277 q 602 175 600 277 l 602 136 q 612 77 604 106 q 642 47 618 54 q 663 29 663 40 l 663 28 q 644 9 663 18 q 589 0 635 1 q 538 -4 564 -1 q 493 -8 509 -5 l 484 -8 q 441 1 456 -8 q 414 45 422 12 q 400 150 404 58 q 399 220 399 154 q 397 254 397 222 q 396 306 396 256 q 397 336 396 335 q 396 351 396 338 q 397 399 396 397 q 407 496 397 424 q 340 485 380 493 q 335 484 339 484 q 325 479 335 484 q 326 460 326 478 q 236 261 326 335 q 89 203 170 207 l 85 203 l 75 203 q 46 215 46 204 q 62 239 52 221 q 69 248 68 244 q 71 250 71 249 q 72 252 71 252 q 82 267 82 262 q 94 317 94 289 l 94 321 q 81 378 92 343 q 52 436 65 406 q 77 449 52 446 l 411 536 z "},"-":{"ha":772,"x_min":-21,"x_max":789,"o":"m -21 475 l -21 564 l 789 564 l 789 475 l -21 475 z "},"=":{"ha":811,"x_min":58,"x_max":753,"o":"m 58 551 l 58 728 l 753 728 l 753 551 l 58 551 m 58 252 l 58 428 l 753 428 l 753 252 l 58 252 z "},"q":{"ha":1086,"x_min":65,"x_max":1011,"o":"m 207 928 q 165 940 165 929 q 193 987 192 987 q 205 1035 205 1011 l 205 1038 q 189 1086 203 1063 q 157 1137 168 1121 q 186 1153 157 1149 q 229 1160 186 1154 q 300 1168 272 1168 q 314 1169 301 1169 l 313 1169 l 310 1169 l 307 1169 l 304 1169 q 351 1166 304 1168 q 399 1154 376 1164 q 432 1129 421 1146 q 440 1082 437 1112 l 440 1072 l 440 1044 l 440 1017 q 464 1006 440 1006 l 468 1006 q 536 1014 478 1006 q 612 1023 567 1023 l 619 1023 q 665 1013 636 1023 q 677 981 673 1004 q 679 965 679 979 q 681 950 681 964 q 682 939 681 940 q 684 926 682 928 l 684 897 q 682 847 684 848 q 675 750 681 774 q 708 754 686 753 q 732 758 717 755 q 742 760 733 760 q 750 761 743 761 q 815 765 796 762 l 835 765 q 946 746 888 765 q 1011 643 1010 720 l 1011 636 q 1006 585 1011 599 q 961 498 996 538 q 871 435 932 465 q 636 385 777 390 l 629 129 q 635 71 635 93 q 657 32 636 46 q 675 9 675 18 l 675 8 q 644 -11 675 -4 q 637 -12 640 -11 q 629 -16 635 -14 q 621 -17 623 -17 q 570 -28 610 -18 q 492 -39 515 -37 l 485 -39 l 482 -39 q 440 -31 460 -39 q 415 -3 421 -20 q 410 43 410 3 l 410 66 q 415 180 410 157 q 419 237 416 222 q 422 260 421 237 q 424 278 422 277 q 425 294 424 293 q 427 306 425 304 q 428 318 427 317 q 429 345 428 340 q 364 328 374 329 q 262 315 315 318 l 244 315 q 131 336 174 315 q 65 447 66 371 l 65 452 q 205 631 65 561 q 457 693 321 689 q 467 790 463 707 q 468 857 468 798 q 469 885 469 860 l 469 905 q 449 953 469 925 q 414 985 432 979 q 319 945 379 966 q 229 928 264 929 l 220 928 l 207 928 m 310 587 q 290 492 290 534 l 290 478 q 298 428 292 446 q 319 396 304 407 q 383 376 347 376 l 387 376 q 432 385 408 376 l 456 665 q 440 667 454 667 l 433 667 q 355 642 390 665 q 310 587 322 618 m 646 427 l 663 427 l 667 427 q 676 425 668 425 l 679 425 q 732 439 705 428 q 774 485 754 449 q 798 581 798 530 l 798 589 q 775 675 796 644 q 750 700 765 693 q 718 705 745 705 l 714 705 q 689 704 690 705 q 664 700 665 700 l 664 701 q 661 656 664 701 q 660 635 661 636 q 659 615 660 616 q 656 558 657 579 q 653 505 654 538 q 646 427 648 457 z "},"w":{"ha":889,"x_min":61,"x_max":833,"o":"m 87 273 q 86 281 86 278 q 83 285 85 282 q 79 294 81 290 q 77 301 78 298 q 74 306 75 302 q 69 340 69 319 q 114 476 69 395 q 129 500 115 484 q 134 505 132 500 q 138 510 135 507 q 139 514 138 513 q 143 521 142 518 q 144 524 144 522 q 149 530 146 525 q 153 537 150 532 q 158 547 155 543 q 170 564 165 555 q 178 576 175 574 q 212 633 201 612 q 222 648 214 636 q 232 664 229 660 q 256 699 237 673 q 292 760 271 725 q 335 857 335 832 q 318 884 335 872 q 302 900 302 895 q 317 913 302 905 q 350 920 329 918 q 389 924 385 924 q 403 925 397 924 q 414 926 408 926 q 449 928 444 926 q 463 929 453 929 l 460 929 l 458 929 q 496 926 458 928 q 542 857 542 914 q 541 835 542 836 q 524 770 539 817 q 515 750 522 761 q 507 730 509 732 q 490 689 492 704 q 498 690 492 690 q 507 692 500 692 q 526 693 509 693 q 681 628 607 693 q 755 460 755 557 q 665 232 755 297 q 489 184 602 184 l 492 184 q 475 186 484 184 q 432 187 453 186 q 403 189 428 189 q 390 191 401 191 q 330 184 349 191 q 273 179 281 179 q 261 178 267 178 q 171 196 201 178 q 87 273 118 218 m 110 74 l 660 100 q 681 71 681 100 q 679 45 681 46 q 677 26 679 28 q 676 16 676 24 l 676 17 q 686 -9 676 -4 q 708 -35 708 -26 q 679 -45 708 -45 l 657 -45 q 561 -32 599 -45 q 501 43 501 -11 q 503 60 501 58 l 273 50 q 199 -54 256 -31 q 81 -66 168 -66 q 61 -60 61 -66 q 66 -49 61 -54 q 79 -28 78 -33 q 81 -26 81 -28 q 82 -24 82 -25 q 83 -22 83 -24 q 85 -21 85 -22 q 90 8 90 -11 q 89 31 90 29 q 87 52 87 32 q 110 74 87 74 m 803 1099 q 823 1051 803 1079 q 833 1032 833 1042 q 823 1022 833 1023 q 794 1015 817 1017 q 762 1011 774 1011 q 736 1010 761 1010 q 653 1032 677 1010 q 616 1122 616 1060 l 422 1111 q 353 1003 407 1029 q 239 986 318 986 q 212 999 212 986 q 227 1034 212 1015 q 240 1079 240 1054 l 240 1096 q 239 1104 240 1103 q 237 1114 239 1112 q 253 1133 237 1133 l 256 1133 q 271 1132 257 1132 q 400 1137 355 1132 q 454 1140 410 1137 q 623 1152 497 1141 q 633 1154 629 1153 q 642 1154 636 1154 l 663 1154 q 729 1158 694 1157 q 791 1162 785 1160 q 811 1147 811 1162 q 810 1132 811 1133 q 806 1108 808 1116 l 806 1103 l 806 1101 q 804 1100 806 1100 q 803 1099 804 1100 m 289 306 q 328 239 289 261 q 407 221 358 221 q 458 229 439 221 q 517 310 497 245 q 534 461 534 358 q 519 600 534 521 q 482 660 505 660 q 374 518 456 660 q 289 306 289 378 z "},"e":{"ha":1389,"x_min":31,"x_max":1365,"o":"m 307 1038 q 170 1036 171 1038 q 115 1035 168 1035 q 64 1034 65 1035 q 50 1044 50 1034 q 56 1071 50 1059 q 58 1082 57 1079 q 58 1089 58 1084 l 58 1099 l 58 1111 l 58 1124 q 45 1186 57 1164 q 31 1223 31 1208 q 35 1235 31 1231 q 41 1238 35 1236 q 45 1239 43 1238 q 49 1240 47 1239 q 66 1242 50 1242 l 78 1242 q 179 1213 140 1242 q 240 1063 240 1166 l 551 1067 q 621 1214 551 1169 q 743 1244 660 1244 q 783 1235 783 1244 q 766 1207 783 1234 q 750 1149 750 1182 q 754 1099 750 1121 q 764 1051 758 1063 q 749 1039 764 1039 l 643 1039 q 570 1038 642 1038 q 500 1036 567 1036 q 498 1010 498 1035 q 497 987 497 1008 q 493 922 494 970 q 492 876 492 917 q 490 850 490 872 q 489 839 489 848 q 541 814 514 831 q 555 802 545 810 q 568 790 566 796 q 583 778 578 783 q 607 718 602 754 q 612 627 612 690 l 612 628 q 610 554 611 628 q 602 486 608 522 l 597 486 l 611 486 q 642 488 612 488 q 705 489 697 488 q 757 497 757 492 q 764 546 761 521 q 771 595 766 579 q 778 643 777 606 q 838 798 796 751 q 1044 879 895 854 q 1261 895 1171 895 l 1291 895 q 1310 893 1292 893 q 1329 882 1329 893 q 1314 844 1322 867 q 1305 810 1305 827 q 1307 794 1305 796 q 1331 743 1314 764 q 1356 711 1337 730 q 1365 699 1360 700 q 1349 688 1365 692 q 1303 679 1332 682 q 1253 673 1292 673 q 1141 696 1178 673 q 1088 798 1088 726 q 1095 848 1089 798 q 1089 850 1093 850 q 1076 851 1088 851 q 1071 852 1075 852 q 1002 815 1028 852 q 958 625 958 755 q 945 460 958 557 q 937 387 945 460 q 926 261 926 269 q 914 138 922 220 l 914 109 q 917 71 916 109 q 933 50 920 57 q 946 33 946 41 q 913 16 946 22 q 890 11 895 11 q 884 9 885 11 q 875 8 876 9 q 864 7 873 7 q 857 5 863 5 q 848 4 852 4 q 844 3 847 3 q 783 -3 831 -3 q 722 31 736 -3 q 721 53 722 49 q 720 62 721 61 q 724 160 720 111 q 739 293 724 160 q 751 392 739 307 q 755 443 753 429 q 757 460 757 447 q 758 465 758 461 q 668 458 758 464 q 599 432 602 450 q 587 311 599 432 q 581 245 583 288 q 578 155 578 203 q 576 113 578 114 q 575 92 575 111 q 574 83 574 90 q 585 52 574 62 q 606 28 606 35 q 572 16 606 18 q 492 3 509 8 q 441 -1 464 -1 q 401 9 416 -1 q 378 41 383 26 q 376 57 376 43 q 389 218 376 94 q 390 235 390 220 q 392 258 390 256 q 393 272 393 260 q 395 278 395 273 q 399 332 397 318 q 400 343 399 342 q 401 353 400 351 q 418 570 411 473 q 419 615 418 603 q 421 632 421 624 q 422 647 421 639 q 422 664 422 656 q 425 701 424 690 q 425 715 425 711 l 425 714 q 390 798 425 775 q 328 814 368 814 l 306 815 l 307 815 l 309 815 l 310 815 q 297 812 310 814 q 218 635 297 694 q 83 590 151 590 q 53 595 58 590 q 43 602 43 597 l 43 603 q 66 664 58 633 q 72 720 72 672 q 69 760 71 720 q 68 789 68 761 q 82 810 68 810 q 210 823 155 810 q 233 828 211 827 q 241 829 240 828 q 254 831 253 829 q 261 832 256 832 q 271 833 262 833 q 277 835 272 835 q 285 836 278 836 q 304 838 286 838 q 311 839 306 839 l 307 1038 z "},"r":{"ha":1011,"x_min":90,"x_max":921,"o":"m 353 697 q 317 525 322 562 q 300 338 300 412 l 300 339 q 302 278 300 339 q 304 254 304 277 q 306 229 304 231 q 310 212 309 218 q 311 207 310 208 q 313 201 313 205 q 363 109 322 135 q 431 92 389 92 l 446 92 q 534 113 488 93 q 586 131 568 123 q 585 136 585 132 q 664 233 585 193 q 796 272 728 265 l 806 272 l 808 272 l 810 272 l 811 272 l 810 272 q 831 269 810 271 q 839 268 838 269 q 847 267 846 268 q 857 258 856 264 q 835 207 847 245 q 827 157 827 184 l 827 146 q 847 92 829 115 q 868 71 859 82 q 888 52 885 54 q 854 29 888 43 q 770 9 804 11 l 746 9 q 665 24 692 9 q 595 94 612 46 q 441 54 453 57 q 318 33 361 37 q 285 32 317 32 q 168 57 211 32 q 94 186 100 92 q 90 307 90 236 l 90 311 q 104 513 90 440 q 178 764 122 659 q 218 811 187 782 q 282 854 233 827 q 372 892 307 868 q 654 954 485 926 q 857 975 770 970 l 861 917 q 875 839 865 861 q 918 768 884 814 q 921 764 920 764 q 921 762 921 762 q 913 753 921 758 q 838 734 896 739 l 812 734 l 814 734 l 808 734 q 793 736 807 736 q 762 737 766 736 q 692 757 725 745 q 642 812 661 771 q 635 836 636 819 q 627 863 629 857 q 619 885 627 865 q 611 911 612 901 q 597 909 599 911 q 585 908 586 909 q 463 872 511 904 q 397 803 425 848 q 353 697 371 761 z "},"t":{"ha":1229,"x_min":85,"x_max":1164,"o":"m 749 990 q 768 922 765 981 q 770 908 770 921 q 757 772 770 867 q 755 765 755 771 q 754 754 755 758 q 750 725 753 745 q 745 690 745 703 l 1111 726 l 1116 726 q 1140 714 1140 726 q 1135 699 1135 700 q 1133 696 1133 697 q 1132 692 1132 694 q 1131 688 1131 690 q 1122 665 1129 679 q 1116 624 1117 624 l 1116 619 q 1132 564 1118 590 q 1150 538 1139 551 q 1158 525 1153 533 q 1164 515 1162 517 q 1160 507 1164 511 q 1135 497 1157 501 q 1086 490 1126 492 q 1053 486 1060 486 q 1040 485 1051 485 q 947 507 982 485 q 893 625 896 541 q 892 642 892 627 q 893 661 893 643 l 893 663 l 739 652 q 726 532 739 652 q 714 397 721 441 q 710 349 713 363 q 705 306 707 339 q 696 168 696 239 q 697 138 696 140 q 701 92 699 117 q 722 53 705 58 q 737 36 737 41 q 685 12 737 24 q 603 -1 671 7 q 550 -7 575 -1 l 547 -7 q 478 37 498 -7 q 476 56 476 41 q 475 64 476 62 l 475 68 q 473 83 473 69 q 486 253 473 132 q 496 334 488 260 q 507 415 500 375 q 517 494 507 419 q 519 517 519 517 q 519 515 519 517 q 522 536 521 515 q 524 546 524 542 q 525 553 524 549 q 526 567 525 564 q 534 624 532 599 q 518 623 530 623 q 511 621 513 623 q 500 619 505 621 q 486 618 489 619 q 472 616 473 618 q 464 615 468 615 q 457 614 461 615 q 441 612 447 614 q 432 611 440 611 q 422 610 431 610 q 359 606 400 608 l 359 591 q 285 422 359 478 q 142 374 218 376 l 131 374 q 115 375 117 374 q 85 390 85 376 q 114 449 85 393 q 132 494 131 484 q 134 513 134 496 l 134 514 l 134 522 q 129 557 134 542 q 119 596 123 561 q 144 615 119 612 q 368 640 165 616 q 453 653 390 646 q 497 659 454 654 q 500 661 498 660 q 503 661 503 661 l 507 661 l 517 661 q 529 664 526 663 q 534 664 533 664 l 551 850 q 553 876 553 851 l 553 880 q 533 945 550 921 q 494 970 515 966 q 404 940 468 951 q 290 926 318 926 l 282 926 q 260 932 260 926 q 285 979 281 965 q 293 1028 293 1002 l 293 1034 q 279 1083 290 1053 q 275 1090 279 1083 q 273 1095 273 1092 q 272 1096 272 1096 q 271 1097 272 1096 q 262 1112 269 1099 q 258 1122 261 1112 q 253 1131 253 1128 q 286 1140 253 1140 q 335 1146 289 1141 q 401 1150 380 1150 q 428 1152 403 1152 l 441 1152 q 479 1147 453 1150 q 532 1059 528 1136 l 532 1050 q 525 986 530 1050 q 546 987 545 986 l 543 987 l 542 987 q 551 989 545 987 q 576 990 558 989 q 603 991 579 991 q 637 996 611 993 q 653 997 639 997 q 668 999 654 999 q 694 1003 688 1002 l 704 1003 l 708 1003 q 726 1002 725 1003 q 749 990 737 997 z "},"y":{"ha":1112,"x_min":49,"x_max":1064,"o":"m 343 175 q 307 264 322 218 q 282 355 290 310 q 261 553 262 443 l 261 562 l 261 607 l 261 618 l 261 629 q 262 642 262 631 q 264 654 262 653 q 343 847 278 782 q 424 904 378 882 q 530 940 465 925 q 657 958 582 958 l 663 958 q 775 943 688 958 q 847 896 827 928 q 867 818 865 880 l 867 815 q 847 708 867 786 q 815 636 827 657 q 741 553 793 589 q 633 513 699 522 q 529 503 583 507 l 521 503 q 476 507 490 503 q 475 494 475 505 l 475 485 q 490 368 475 435 q 518 244 494 345 q 578 157 536 191 q 704 121 632 121 l 711 121 q 765 126 755 121 q 818 175 794 131 q 839 261 839 218 l 839 264 q 825 314 838 300 q 822 317 823 315 q 821 318 821 318 q 819 319 821 318 q 818 322 818 321 q 817 323 817 323 q 815 325 817 323 q 811 328 814 325 q 810 329 810 329 q 808 330 810 329 q 806 334 807 332 q 793 353 793 349 q 807 361 793 358 q 905 368 819 367 q 1038 372 1018 371 l 1039 372 q 1064 364 1064 372 q 1057 353 1064 364 q 1055 350 1057 351 q 1054 349 1054 349 q 1053 347 1053 347 q 1051 346 1053 347 q 1050 345 1050 346 q 1048 343 1048 345 q 1047 342 1047 343 q 1046 340 1046 342 q 1032 300 1036 330 q 1018 208 1026 254 q 909 113 996 149 q 732 79 840 82 l 728 79 q 604 103 692 79 q 505 136 546 118 q 475 138 504 138 l 444 138 q 419 136 443 136 q 401 135 418 135 q 366 134 367 135 q 317 123 339 132 q 319 83 318 83 l 319 81 q 239 -60 319 -9 q 97 -98 176 -96 l 90 -98 q 49 -87 49 -98 q 74 -58 52 -82 q 102 5 94 -37 l 102 17 l 102 21 q 98 60 100 21 q 92 85 97 69 q 87 104 90 96 l 87 106 q 98 123 87 117 q 182 140 121 135 q 229 144 215 143 q 241 146 231 146 q 248 147 243 147 l 245 147 l 244 147 l 243 147 q 241 147 241 147 q 261 150 241 147 q 267 151 265 150 q 275 153 273 151 q 306 158 288 153 q 343 175 338 165 m 485 543 q 496 539 492 539 q 558 587 514 539 q 586 619 571 604 q 611 648 607 642 q 661 743 644 688 q 676 839 676 829 l 676 843 q 664 897 676 884 q 639 921 654 914 q 616 926 618 926 q 612 928 614 926 l 611 928 q 589 924 600 928 q 582 920 583 921 q 579 917 579 917 q 575 916 576 917 q 572 914 574 916 q 570 911 571 913 q 567 909 567 911 q 492 772 519 879 q 471 614 471 685 l 471 604 q 485 543 472 549 z "},"u":{"ha":1111,"x_min":68,"x_max":1043,"o":"m 68 492 q 122 650 68 578 q 260 762 174 722 q 326 787 288 778 q 419 808 371 799 q 677 831 525 831 l 686 832 q 708 828 686 832 q 746 823 743 823 q 810 829 755 829 q 865 822 822 829 q 1006 714 966 796 q 1040 517 1040 652 q 1042 497 1040 498 q 1043 481 1042 482 q 1021 463 1043 463 l 939 463 q 880 458 901 461 q 829 478 832 458 q 828 501 828 481 q 827 513 827 503 l 827 517 l 827 515 l 827 542 l 827 583 l 827 627 q 806 734 827 676 q 724 787 779 768 q 714 789 717 787 q 686 790 692 789 q 685 783 685 789 q 684 775 684 782 q 682 764 682 771 q 681 760 682 761 q 672 720 673 747 q 671 714 671 718 q 669 707 669 713 q 668 700 669 701 q 667 693 667 699 q 663 673 665 676 q 639 529 639 536 l 639 515 q 650 514 640 514 q 669 515 668 514 q 679 517 671 517 q 689 518 681 518 q 715 509 705 518 q 699 418 704 432 q 694 396 696 415 q 688 357 693 367 q 684 334 686 342 q 684 325 684 328 q 681 315 682 321 q 676 290 677 292 q 671 254 676 271 q 663 204 665 224 q 657 178 663 193 q 656 170 656 176 l 656 165 q 654 157 654 164 q 653 149 653 155 q 652 138 652 147 q 650 127 652 129 q 648 115 650 117 q 647 102 647 114 q 646 87 646 97 q 644 81 644 86 q 643 74 643 79 q 647 54 643 62 q 653 50 648 53 q 661 41 656 47 q 681 25 681 31 q 643 7 681 12 q 572 -3 635 1 q 513 -8 553 -8 q 431 45 436 -8 q 429 56 429 46 q 450 200 429 94 q 464 272 450 207 q 471 309 464 281 q 473 323 472 317 q 476 343 475 330 q 498 454 486 387 q 481 458 492 458 q 458 457 479 457 q 449 456 457 456 q 428 461 433 456 q 427 490 427 463 q 431 522 429 498 q 433 561 433 558 q 437 603 435 575 q 465 766 464 766 q 463 778 465 775 q 359 725 406 778 q 307 639 325 688 q 283 564 296 612 q 273 500 273 538 q 281 479 273 482 q 300 456 300 468 q 267 437 300 437 q 184 429 220 432 q 153 428 183 428 q 135 427 151 427 q 82 440 96 427 q 68 492 68 454 z "},"i":{"ha":1153,"x_min":56,"x_max":1108,"o":"m 694 783 q 575 558 681 694 q 539 513 558 539 q 490 452 518 486 q 547 457 510 452 q 619 463 586 463 l 648 463 q 690 456 661 463 q 762 288 733 446 q 789 104 778 175 q 802 68 794 79 q 827 53 807 60 q 844 33 844 46 q 819 16 844 20 q 720 -5 760 1 q 660 -12 681 -12 q 576 46 599 -12 q 553 248 567 157 q 465 401 529 401 q 458 400 461 401 q 400 342 439 400 q 346 260 353 269 q 304 183 325 231 q 288 102 288 138 q 306 56 288 66 q 323 32 323 43 q 309 17 323 24 q 268 7 298 12 q 211 -1 245 3 q 149 -5 178 -5 q 87 1 111 -5 q 62 25 64 7 q 58 49 58 39 q 56 102 56 96 q 65 186 56 146 q 143 317 71 231 q 278 468 178 361 q 386 587 368 562 q 317 576 345 579 q 248 571 283 571 q 158 587 192 571 q 111 654 117 610 q 110 667 111 659 q 107 681 110 676 q 106 710 106 690 q 167 861 106 807 q 358 920 232 920 q 463 937 395 920 q 561 956 528 956 q 642 928 611 956 q 699 823 677 897 l 711 823 l 729 823 q 929 836 790 823 q 1061 848 977 839 q 1089 838 1089 848 q 1067 782 1082 823 q 1059 729 1059 755 q 1074 676 1059 703 q 1108 627 1093 644 q 1088 612 1108 614 q 1048 608 1069 608 q 1011 606 1023 606 q 904 631 943 606 q 848 747 848 665 q 851 790 848 760 q 803 787 821 789 q 760 786 783 787 q 694 783 696 783 m 407 890 q 354 823 375 890 q 334 673 334 754 q 350 643 334 653 q 385 633 364 633 q 424 643 414 633 q 463 708 449 669 q 476 791 476 750 q 461 864 476 836 q 407 890 444 890 z "},"o":{"ha":1071,"x_min":65,"x_max":1006,"o":"m 624 900 q 699 899 697 900 q 741 880 721 897 q 761 828 761 867 q 743 742 761 787 q 730 710 742 736 q 725 699 725 700 q 724 694 724 697 q 722 690 724 692 q 721 686 722 690 q 720 682 721 686 q 715 672 718 679 q 710 659 713 665 q 707 650 707 650 q 682 587 704 643 q 669 549 669 561 q 679 534 669 538 l 682 534 q 770 551 689 534 q 885 568 861 568 q 939 532 939 568 q 897 403 939 504 q 822 236 867 329 q 790 161 811 214 q 753 56 777 117 l 753 49 q 751 41 751 47 l 751 40 l 750 40 l 750 39 l 750 37 q 774 -5 750 7 q 778 -7 775 -7 l 778 -8 q 779 -9 779 -9 q 781 -11 781 -11 q 782 -12 781 -11 q 783 -17 783 -14 q 785 -18 785 -18 q 770 -32 785 -26 q 753 -35 753 -33 q 747 -37 753 -35 q 742 -39 746 -39 l 684 -39 q 632 -40 633 -39 q 550 -31 564 -40 q 521 20 526 -21 q 519 29 519 21 q 549 121 519 61 q 581 187 571 167 q 591 212 590 208 q 654 358 631 285 q 675 463 675 424 q 668 497 673 463 q 640 510 656 509 q 615 511 636 511 q 604 513 614 513 l 606 513 q 547 509 587 513 q 493 504 517 504 q 453 518 463 504 q 452 529 452 519 q 494 659 452 570 q 536 782 536 757 l 536 786 q 510 823 525 811 q 467 835 478 835 q 406 823 463 835 q 392 819 397 821 q 386 818 387 819 q 382 817 383 818 q 364 811 376 811 q 267 644 347 692 q 131 610 216 610 l 110 610 q 86 614 90 614 q 68 624 68 615 q 93 654 68 627 q 119 700 117 686 q 121 732 121 701 l 121 747 l 121 774 q 126 793 121 787 q 155 802 134 800 q 256 823 176 802 q 261 825 257 825 q 262 827 261 825 l 265 827 q 286 831 271 829 q 290 833 289 832 q 294 833 292 833 q 304 836 294 833 q 322 840 318 839 q 330 842 323 842 q 335 843 332 843 q 339 844 338 843 q 346 846 340 846 q 351 847 350 846 q 395 857 382 857 q 397 860 396 859 q 399 860 399 860 l 401 860 q 408 861 407 860 q 416 863 410 863 q 419 879 416 863 q 424 904 419 879 q 432 961 427 909 q 437 1013 437 978 q 293 1011 297 1013 q 267 1010 269 1011 q 203 1008 210 1010 q 139 1007 143 1008 q 79 1006 81 1007 q 65 1013 65 1006 q 81 1054 65 1013 q 92 1100 89 1080 q 85 1147 92 1108 q 78 1165 83 1152 q 72 1178 72 1177 q 97 1189 72 1185 l 96 1189 l 94 1189 l 93 1189 l 92 1189 q 98 1190 93 1189 q 118 1192 104 1190 q 127 1193 126 1192 q 143 1194 142 1193 l 175 1194 q 277 1166 240 1194 q 326 1044 326 1132 l 739 1059 q 737 1072 737 1060 l 737 1086 q 803 1190 737 1158 q 924 1211 850 1211 q 956 1210 954 1211 l 981 1210 q 1006 1200 1006 1210 q 983 1162 997 1189 q 975 1126 975 1145 q 982 1080 977 1126 q 985 1072 983 1080 q 986 1069 986 1071 q 987 1065 986 1067 q 989 1059 987 1060 q 990 1054 989 1055 q 991 1050 991 1053 q 993 1048 993 1048 l 993 1047 q 994 1042 994 1046 q 996 1036 996 1040 q 971 1028 996 1028 l 974 1028 q 924 1023 956 1028 q 802 1022 808 1023 l 750 1022 l 705 1023 q 659 1022 660 1023 l 637 1022 l 642 1022 q 632 978 632 997 q 624 900 624 928 z "},"p":{"ha":1231,"x_min":58,"x_max":1158,"o":"m 85 869 q 325 880 85 869 q 340 882 336 882 q 351 884 346 884 q 386 885 371 884 q 424 889 414 889 q 441 890 433 890 q 473 892 456 892 q 547 896 492 895 q 561 897 549 897 l 579 897 q 593 899 590 897 q 612 900 600 900 q 625 901 623 900 q 835 907 786 901 q 914 910 857 907 q 1111 920 971 914 q 1152 907 1152 920 q 1141 884 1152 897 q 1137 873 1139 880 q 1136 868 1136 872 q 1135 865 1135 867 q 1129 852 1129 860 q 1120 798 1120 832 q 1132 747 1120 770 q 1143 728 1143 728 q 1158 700 1158 700 q 1135 686 1158 693 q 1086 677 1093 677 q 1050 673 1061 673 q 933 710 978 673 q 872 872 872 762 l 697 863 l 661 590 q 676 587 661 589 q 688 586 677 586 q 694 585 689 585 q 699 583 696 583 q 717 579 711 581 q 724 578 722 579 q 730 576 729 578 q 758 550 758 568 l 758 547 q 743 370 758 534 q 741 354 743 370 q 734 317 737 339 q 726 258 732 293 q 714 168 721 201 q 710 138 713 157 q 703 97 704 111 q 707 65 703 81 q 725 45 708 52 q 739 29 739 37 q 705 16 739 20 q 694 14 704 14 q 682 12 693 12 l 684 12 q 665 9 684 11 q 637 5 665 9 q 579 1 603 1 q 528 12 553 1 q 500 54 505 28 q 497 82 497 68 q 507 189 497 142 q 511 221 510 196 q 514 243 513 221 q 515 256 515 244 q 517 267 517 257 q 519 285 518 267 q 521 297 521 286 q 522 310 521 309 q 526 340 524 332 l 555 547 q 539 549 541 547 q 517 550 538 550 q 486 554 511 551 q 450 576 453 558 q 449 593 449 578 q 447 602 449 600 l 447 606 q 463 737 447 606 q 464 745 463 743 q 465 751 464 750 q 467 755 465 754 q 468 760 467 760 l 468 762 q 475 796 468 762 q 486 850 478 815 l 328 847 q 249 672 328 721 q 113 642 200 642 q 58 659 58 642 q 64 671 58 665 q 71 686 68 675 q 72 690 71 689 q 75 692 75 692 q 74 692 74 692 q 75 693 75 693 q 77 694 77 694 l 77 696 l 77 697 q 81 708 79 705 q 89 753 89 730 l 89 764 q 78 825 87 796 q 69 859 69 851 q 85 869 69 869 z "},"[":{"ha":833,"x_min":62,"x_max":753,"o":"m 619 359 q 623 336 623 338 l 623 328 l 623 314 l 623 317 q 554 195 623 233 q 403 160 504 160 q 302 171 372 160 q 227 200 245 187 q 135 336 167 239 q 103 551 103 453 q 119 714 103 636 q 164 836 135 794 q 292 928 199 893 q 351 946 311 936 q 416 958 379 953 q 482 961 472 961 q 624 936 558 961 q 668 892 654 926 q 682 817 682 869 q 647 676 682 745 q 547 571 608 603 q 492 553 517 559 q 436 545 461 545 q 335 559 416 545 q 307 566 325 566 l 302 566 q 298 539 300 564 q 297 501 297 533 q 296 485 296 498 q 297 468 296 471 q 298 439 297 443 q 306 422 300 424 q 375 431 335 425 q 422 432 382 432 q 441 433 425 433 l 440 433 q 555 419 518 433 q 619 359 611 401 m 121 75 l 624 83 l 627 83 q 637 74 637 83 q 636 60 637 61 q 635 39 635 50 q 633 31 635 32 q 640 -20 633 9 q 644 -28 642 -26 q 647 -32 644 -28 q 648 -36 648 -33 q 650 -40 650 -37 q 660 -60 652 -40 q 633 -66 660 -66 l 614 -66 q 503 -37 538 -66 q 467 49 467 -4 l 277 47 q 218 -46 277 -17 q 100 -69 165 -69 q 62 -60 62 -69 q 83 -33 62 -56 q 86 -31 85 -32 q 87 -28 86 -29 q 89 -25 87 -25 q 93 -18 92 -20 q 94 -16 94 -17 q 96 -14 94 -14 q 97 -11 97 -12 q 100 -4 97 -11 q 102 3 100 1 l 102 16 l 102 36 q 106 68 102 62 q 121 75 113 75 m 732 1075 q 742 1035 732 1053 q 743 1034 743 1034 q 745 1032 743 1034 q 746 1029 746 1031 q 749 1028 747 1028 l 749 1025 l 749 1021 q 753 1011 751 1013 q 725 999 753 1003 q 697 997 721 997 q 684 996 685 997 l 677 996 q 599 1013 628 996 q 557 1097 557 1040 l 345 1097 q 288 1007 330 1029 q 248 994 273 999 q 183 989 227 989 q 139 1000 139 989 q 140 1004 139 1003 q 142 1006 140 1006 q 143 1008 143 1006 q 144 1011 144 1010 l 144 1014 q 146 1017 144 1015 q 147 1018 146 1017 q 149 1021 147 1019 q 158 1039 149 1029 q 170 1072 170 1059 q 168 1092 170 1090 q 165 1104 165 1095 q 164 1112 164 1105 q 184 1135 164 1135 l 713 1135 q 734 1131 732 1135 q 741 1122 741 1129 q 737 1105 741 1122 q 733 1084 734 1092 q 732 1075 732 1083 m 361 193 q 375 192 363 192 q 419 222 406 192 q 435 292 435 256 l 435 309 q 431 332 435 319 q 414 368 425 358 q 343 390 392 390 q 309 389 310 390 q 304 371 304 387 q 321 261 304 323 q 361 193 340 200 m 315 600 q 449 693 385 600 q 507 859 507 782 q 501 897 507 888 q 479 920 493 914 q 447 928 463 928 q 390 897 416 928 q 342 804 363 865 q 310 624 310 697 q 315 600 310 600 z "},"]":{"ha":925,"x_min":136,"x_max":806,"o":"m 168 65 q 224 69 187 66 q 265 74 257 71 q 271 75 267 75 q 281 77 277 75 l 286 77 q 307 78 302 77 q 321 79 314 79 q 350 81 328 79 q 660 110 642 110 l 677 110 l 689 110 q 697 97 694 109 q 693 68 697 97 q 689 32 689 46 l 689 26 q 708 -7 692 9 q 724 -28 724 -26 q 696 -37 724 -35 q 663 -39 664 -37 l 637 -39 q 567 -29 583 -39 q 513 58 515 -5 l 345 54 q 346 43 346 53 q 311 -45 346 -14 q 204 -85 265 -81 l 196 -85 l 197 -85 l 200 -85 l 203 -85 l 205 -85 q 208 -85 208 -85 q 161 -82 208 -85 q 136 -74 136 -81 q 143 -65 138 -74 q 157 -45 147 -58 q 165 -12 165 -29 l 165 -8 q 158 29 164 24 q 153 53 153 37 l 153 54 q 168 65 153 65 m 732 1100 q 741 1069 733 1083 q 743 1068 742 1069 q 745 1065 745 1067 q 749 1055 746 1064 q 754 1046 753 1048 q 757 1042 755 1043 l 757 1040 q 749 1031 757 1035 q 721 1023 749 1031 q 705 1022 707 1023 q 696 1021 704 1021 q 682 1019 694 1019 l 671 1019 q 597 1039 637 1019 q 549 1122 558 1061 l 372 1103 q 315 1003 363 1038 q 211 970 277 972 l 197 970 q 165 979 168 970 q 179 1007 165 985 q 192 1048 192 1031 l 192 1051 q 189 1061 192 1054 q 186 1074 187 1069 q 182 1089 183 1086 q 176 1107 176 1101 l 176 1108 q 191 1120 176 1120 l 192 1120 q 319 1133 193 1121 q 436 1146 347 1139 q 547 1158 490 1154 q 586 1162 564 1160 q 603 1164 595 1164 q 642 1166 610 1164 q 708 1174 673 1169 l 717 1174 q 742 1164 741 1174 q 739 1153 742 1164 q 737 1146 739 1147 q 736 1137 737 1139 q 734 1129 734 1136 q 733 1117 734 1118 q 732 1108 732 1116 l 732 1100 m 182 867 q 347 888 200 872 q 359 889 349 889 q 379 890 375 889 q 421 895 401 893 q 454 899 443 897 q 468 900 465 899 q 484 901 482 900 q 501 903 485 903 q 541 907 509 903 q 575 911 566 908 q 589 913 576 913 q 603 914 591 914 q 746 926 696 925 l 751 926 q 775 914 775 926 q 774 911 775 913 q 772 903 774 904 q 771 896 772 897 q 770 892 770 895 q 762 865 770 892 q 758 823 758 836 l 758 814 q 775 765 760 787 q 806 715 789 739 q 742 699 806 700 q 724 697 741 697 q 618 721 671 697 q 536 871 543 762 l 399 864 q 389 721 395 828 q 387 673 389 681 l 387 642 q 386 628 386 635 l 386 631 q 383 574 385 631 q 382 545 382 567 q 380 510 382 519 q 379 484 379 503 q 378 460 379 464 q 376 436 376 454 l 376 437 q 374 354 375 382 q 370 325 372 326 q 367 288 368 288 l 368 289 l 368 288 q 370 258 370 286 q 372 233 372 233 q 389 220 375 222 q 403 208 403 218 q 387 193 403 200 q 351 180 374 182 l 353 180 q 335 178 353 179 q 322 176 329 176 q 319 175 319 175 q 318 175 318 175 q 300 171 304 171 q 260 167 271 170 q 245 165 249 167 q 239 164 240 165 l 240 164 l 231 164 q 183 172 203 164 q 161 203 164 180 q 160 216 161 215 q 158 277 158 218 l 158 275 q 161 411 160 275 q 174 686 168 518 q 182 867 175 786 z "},"\\":{"ha":390,"x_min":18,"x_max":372,"o":"m 168 903 l 358 121 q 372 43 372 77 q 302 -17 372 -17 q 260 -4 275 -17 q 239 26 245 9 q 231 58 232 49 q 221 92 228 68 l 32 873 q 18 950 18 924 q 36 994 18 981 q 87 1011 56 1011 q 140 987 127 1011 q 168 903 153 964 z "},"a":{"ha":924,"x_min":58,"x_max":896,"o":"m 346 884 q 419 893 367 885 q 526 914 515 909 l 529 914 q 547 904 547 914 q 468 787 547 885 q 432 705 432 743 q 433 703 433 704 q 490 707 472 704 l 489 707 q 513 710 489 707 q 529 711 528 710 q 545 713 543 711 l 549 713 q 570 701 570 713 q 564 682 570 692 q 562 681 564 681 q 561 677 562 679 q 559 676 559 676 q 558 673 559 675 q 557 672 557 672 q 555 671 555 671 q 545 656 555 671 q 539 648 545 653 q 530 637 534 642 q 494 589 507 602 q 447 507 468 550 l 446 507 l 453 507 q 467 509 465 507 q 497 510 493 509 q 611 526 574 524 l 631 526 l 644 526 q 665 519 659 524 q 764 393 721 494 q 827 164 825 262 q 836 87 828 149 q 867 46 846 56 q 896 22 896 31 q 864 8 896 12 l 713 -3 l 710 -3 q 668 4 710 -1 q 636 25 643 14 q 607 127 619 49 q 603 155 606 139 q 596 187 599 172 q 589 224 593 203 q 572 311 579 269 q 555 386 561 355 q 513 450 543 432 q 446 468 490 468 l 440 468 q 425 467 439 467 q 422 463 425 465 q 419 460 421 461 q 418 458 418 460 q 416 457 416 458 q 414 453 416 456 q 412 452 412 453 q 411 450 411 452 q 410 447 410 449 q 408 446 408 446 q 407 443 408 444 q 406 441 406 441 q 404 440 406 440 q 329 294 358 372 q 297 129 297 179 l 297 121 q 322 62 298 71 q 345 46 345 57 q 304 26 345 32 q 216 14 254 17 q 203 12 204 14 q 186 11 187 12 q 136 7 175 8 l 132 7 q 79 28 97 7 q 58 93 60 50 l 58 102 q 87 235 58 161 q 172 395 115 309 q 233 488 199 436 q 285 557 261 528 q 343 631 310 590 q 392 677 368 659 q 370 685 389 685 l 367 685 l 368 685 l 370 685 l 372 685 l 375 685 q 376 685 376 685 q 347 682 376 685 q 326 679 335 681 q 313 677 318 677 q 298 676 311 676 q 290 675 292 676 l 288 675 q 278 673 279 675 q 267 672 268 673 q 254 671 265 671 l 250 671 q 210 684 218 671 q 208 690 208 685 q 207 693 208 692 l 207 694 q 251 782 207 717 q 296 864 296 847 l 296 865 q 143 839 161 839 l 144 839 l 146 839 q 138 839 144 839 q 119 836 132 838 l 113 836 q 106 835 111 835 l 103 835 q 102 833 102 833 q 72 829 83 829 l 71 829 q 61 836 62 829 q 77 888 75 863 q 82 932 82 897 l 82 936 q 75 978 82 936 q 72 989 74 985 q 71 999 71 993 q 68 1011 68 1011 l 68 1013 q 81 1039 68 1034 q 118 1046 92 1046 q 135 1047 134 1046 q 153 1048 136 1048 q 182 1053 158 1050 q 241 1057 232 1054 l 258 1057 q 330 1048 297 1057 q 367 1015 363 1038 q 368 993 368 1014 q 370 985 370 991 l 370 986 l 370 983 q 358 933 370 983 q 346 884 346 903 z "},"s":{"ha":1042,"x_min":129,"x_max":904,"o":"m 161 33 q 138 176 144 78 q 131 292 134 225 q 129 376 129 293 l 129 460 q 199 665 132 586 q 351 783 261 751 q 353 798 353 785 l 353 799 q 339 829 351 810 q 317 863 317 854 q 315 865 317 864 q 311 869 314 867 q 302 882 306 878 q 294 895 297 892 q 293 897 293 896 q 273 928 278 926 q 267 937 268 937 q 252 974 253 958 q 250 978 250 975 q 292 1018 250 1013 q 386 1035 376 1035 q 403 1039 390 1036 q 415 1040 412 1039 q 427 1042 418 1042 q 443 1043 428 1043 q 449 1044 444 1044 q 471 1046 450 1046 q 489 1044 488 1046 q 501 1035 501 1042 l 501 1034 q 497 1010 501 1028 q 496 999 496 1008 q 494 993 496 994 l 494 990 q 496 978 494 979 q 543 918 500 968 q 610 839 564 889 q 629 840 611 840 q 745 802 697 840 q 819 693 789 761 q 828 664 827 673 q 829 656 828 657 q 831 643 829 644 q 832 631 832 642 q 833 618 833 629 q 838 486 838 571 l 838 452 l 838 421 q 836 349 836 401 l 836 252 q 838 192 836 193 q 842 160 838 176 q 843 154 842 155 q 844 149 843 150 q 846 143 846 147 q 847 138 847 142 q 848 134 848 138 q 850 127 850 132 q 851 121 851 126 q 852 115 851 117 q 884 89 864 94 q 904 72 901 83 q 856 50 904 58 l 847 50 l 843 50 q 838 47 843 50 l 831 47 q 832 47 832 47 q 822 45 832 47 q 817 43 821 43 q 802 39 806 40 q 794 37 800 37 q 785 36 793 36 q 739 29 777 31 q 715 28 737 28 q 672 35 711 28 q 644 61 648 46 q 643 68 644 66 q 642 77 643 75 q 640 86 640 78 q 639 96 639 87 q 635 126 636 111 l 635 161 l 635 176 q 632 197 635 176 q 629 231 629 231 q 628 340 628 232 q 636 469 635 371 l 636 486 q 633 578 636 486 q 595 722 621 673 q 501 781 561 781 l 489 781 q 359 696 390 771 q 339 536 343 656 l 339 472 q 340 389 339 415 l 340 350 q 345 203 343 232 q 355 111 350 126 q 376 74 361 81 q 406 53 404 62 q 374 36 406 45 q 363 33 367 33 q 353 31 359 32 q 340 28 345 29 q 329 25 335 26 q 322 24 325 25 q 319 22 319 24 q 301 17 307 17 q 237 5 273 7 q 220 4 236 4 q 161 33 172 4 z "},"d":{"ha":1305,"x_min":65,"x_max":1251,"o":"m 822 720 q 704 597 786 642 q 504 553 623 553 l 490 553 q 488 554 489 553 q 538 392 497 479 q 608 261 574 313 q 648 208 643 208 q 777 196 734 199 q 942 182 911 182 q 960 151 960 182 q 958 129 960 139 q 957 102 957 117 q 965 53 957 75 q 996 17 974 31 q 1013 -4 1013 4 q 1002 -17 1013 -12 q 972 -24 987 -24 q 944 -25 960 -24 q 913 -26 929 -26 q 777 7 829 -26 q 699 178 699 60 l 343 163 q 345 143 343 150 q 346 127 346 136 q 261 -5 346 26 q 115 -22 216 -22 q 82 -25 85 -25 q 65 -16 65 -25 q 79 12 65 -3 q 98 49 93 31 q 104 86 104 65 q 102 119 104 92 q 97 146 97 140 q 114 165 97 163 q 261 179 183 174 q 400 199 354 189 q 314 385 347 302 q 250 664 250 545 q 261 753 250 708 q 297 831 272 796 q 481 953 354 909 q 694 989 589 989 l 722 989 q 737 987 729 987 q 828 940 796 982 q 854 847 854 905 q 839 755 854 802 l 878 755 q 935 754 893 754 l 962 754 q 1140 761 1078 754 q 1157 762 1152 761 q 1171 764 1164 764 q 1203 742 1203 764 q 1200 713 1203 741 q 1197 684 1197 685 q 1202 647 1197 671 q 1221 599 1206 624 q 1239 571 1231 582 q 1251 551 1246 561 q 1227 538 1251 542 q 1178 532 1211 534 q 1145 528 1149 528 q 1000 583 1043 528 q 962 711 962 627 q 935 715 947 713 q 914 717 921 717 q 838 722 868 722 q 822 720 825 722 m 473 593 q 488 579 476 579 q 593 692 524 579 q 661 878 661 802 q 650 921 661 900 q 619 943 640 939 q 587 947 602 947 q 489 857 521 947 q 465 689 465 787 q 468 632 465 663 q 473 593 471 606 z "},"f":{"ha":1147,"x_min":65,"x_max":1100,"o":"m 421 4 q 410 62 411 9 q 408 104 408 64 q 411 184 408 136 q 418 240 412 218 q 439 361 433 347 q 408 357 432 361 q 375 353 403 357 q 358 351 374 351 q 322 350 354 350 q 306 349 321 349 l 297 349 l 300 349 q 212 355 298 349 q 125 387 150 367 q 82 440 92 408 q 66 513 68 476 q 65 536 65 514 q 100 694 65 621 q 147 781 122 745 q 207 843 178 819 q 310 904 258 886 q 456 942 376 935 q 538 949 484 946 q 659 953 586 951 q 707 956 692 954 q 739 956 722 956 l 808 956 l 880 956 q 987 951 985 956 q 994 940 994 951 l 994 937 q 991 916 993 937 q 986 859 986 901 l 986 847 q 1000 791 987 821 q 1038 736 1011 765 q 1036 732 1036 734 q 1035 729 1035 730 q 1032 726 1034 728 q 1019 725 1031 725 q 1013 724 1018 724 q 1006 722 1007 724 q 999 721 1004 721 l 970 721 q 904 725 937 721 q 828 749 846 730 q 771 808 793 771 q 741 921 745 850 q 722 922 739 922 q 677 924 718 924 q 659 925 676 925 q 624 924 625 925 q 568 918 585 921 q 521 905 550 917 q 376 818 431 878 q 318 677 318 755 l 318 663 q 334 660 318 660 l 353 660 q 411 665 387 660 q 454 669 453 669 q 500 671 456 671 l 505 671 q 554 665 546 671 q 604 636 578 660 q 639 587 633 614 q 648 533 644 581 q 650 509 650 532 q 652 498 652 507 l 652 500 q 653 476 652 478 q 654 452 653 453 l 654 414 l 1046 440 l 1048 440 q 1064 429 1064 440 q 1063 424 1063 428 q 1061 419 1061 422 q 1060 411 1060 418 q 1059 404 1059 410 q 1057 397 1057 403 q 1055 386 1055 396 q 1054 382 1055 383 q 1053 376 1054 378 q 1047 339 1047 371 l 1047 332 q 1076 267 1048 302 q 1100 229 1100 231 q 1097 221 1100 224 q 1068 207 1092 214 q 1010 199 1040 201 q 986 197 1008 197 q 878 222 921 197 q 798 379 804 267 q 779 378 796 378 q 704 376 777 376 q 665 372 673 375 q 654 366 654 368 q 637 218 640 264 q 632 129 632 195 l 632 115 q 633 98 633 114 q 635 78 633 79 q 652 57 636 62 q 664 41 663 52 q 656 29 664 35 q 619 16 644 22 q 555 0 582 3 q 488 -8 530 -5 q 468 -9 486 -9 q 421 4 429 -9 m 441 440 l 441 461 l 441 469 q 440 509 441 507 q 432 578 437 542 q 390 623 427 611 q 339 628 376 628 l 325 628 q 317 627 323 627 q 313 625 315 625 l 310 625 q 307 623 310 625 q 306 616 307 618 q 304 608 304 615 q 300 597 301 607 q 298 557 298 596 l 298 526 q 319 435 302 479 q 368 395 334 397 q 400 396 370 396 q 433 407 422 399 q 441 435 441 412 l 441 440 z "},"g":{"ha":1029,"x_min":61,"x_max":958,"o":"m 591 897 q 608 766 607 825 l 608 754 q 603 690 608 699 q 581 633 597 667 q 524 589 562 600 q 416 576 489 579 l 334 575 q 208 551 293 553 l 203 551 q 96 596 127 551 q 61 694 62 640 l 61 699 q 77 774 61 721 q 119 833 97 814 q 258 886 151 868 q 321 896 260 888 q 432 914 427 913 q 575 935 435 914 q 689 943 648 943 l 701 943 q 825 929 787 943 q 909 871 880 913 q 946 819 933 850 q 958 747 956 789 l 958 742 q 917 534 958 657 q 831 321 851 364 q 770 172 777 195 q 755 79 755 135 l 755 75 q 766 37 755 45 q 786 20 786 28 q 771 8 786 12 q 732 0 753 1 q 711 -1 713 0 q 700 -3 701 -1 q 689 -4 690 -3 q 676 -5 688 -5 q 643 -7 675 -7 l 632 -7 q 555 1 583 -7 q 517 45 519 17 q 515 57 515 46 l 515 58 q 574 267 515 125 q 578 273 575 268 q 579 279 579 278 q 581 282 579 281 q 582 286 582 285 q 583 289 582 288 q 586 294 583 289 q 596 319 596 318 q 625 390 602 326 q 629 397 627 395 q 631 403 629 401 q 635 411 633 406 q 636 416 636 414 q 637 421 636 419 q 647 444 643 440 q 660 475 656 463 q 685 538 667 492 q 745 772 745 685 l 745 775 q 714 871 743 822 q 637 908 685 908 l 636 908 q 591 897 612 905 m 323 607 q 392 659 366 608 q 416 762 416 705 l 416 766 q 400 839 414 811 q 354 865 385 865 l 353 865 q 288 818 310 864 q 264 718 264 761 l 264 714 q 281 637 265 668 q 322 607 294 607 l 323 607 z "},"h":{"ha":871,"x_min":52,"x_max":798,"o":"m 528 859 q 513 872 513 865 l 513 873 q 554 901 513 888 q 567 905 555 901 q 574 907 568 907 q 581 908 575 908 q 596 913 591 909 q 629 921 608 916 q 643 925 637 924 q 652 926 646 926 q 659 928 656 926 q 684 932 669 929 q 693 933 688 933 q 699 935 697 933 q 710 936 707 935 l 715 936 q 742 926 737 936 q 774 825 757 905 q 796 646 783 768 q 798 572 798 644 l 798 553 q 796 536 798 542 q 794 517 796 525 q 790 441 791 493 q 749 254 781 343 q 564 53 699 121 q 318 -8 452 0 l 297 -8 q 165 35 204 -8 q 109 218 115 87 l 109 225 q 117 326 109 236 q 119 349 117 326 q 121 359 119 357 q 122 370 121 368 q 123 379 123 371 q 125 390 125 382 q 126 400 126 395 q 127 407 126 404 q 129 421 127 419 q 138 485 136 484 q 129 486 136 486 l 121 486 q 85 482 98 482 l 81 482 q 58 488 64 482 q 57 500 57 489 q 62 551 57 539 q 74 648 71 632 q 78 682 75 665 q 81 701 81 701 q 82 720 82 707 l 82 722 q 77 746 82 741 q 52 782 54 768 q 106 804 52 791 q 236 831 201 829 l 245 831 q 289 818 277 831 q 300 777 297 811 l 300 766 q 292 631 300 721 q 290 585 290 629 l 290 568 q 297 567 292 567 q 300 566 298 567 l 301 566 l 304 566 q 314 567 313 566 q 322 568 315 568 q 338 572 336 571 q 355 571 354 572 q 330 335 346 425 q 317 158 317 258 l 317 142 q 349 60 318 86 q 406 39 376 39 l 412 39 q 498 87 468 40 q 551 258 529 127 q 566 347 554 277 q 579 468 576 427 l 579 494 q 581 521 581 496 q 582 546 581 545 q 583 570 582 568 l 583 593 l 583 606 l 583 611 l 583 614 l 583 615 l 583 616 l 583 618 q 582 654 582 619 q 576 743 579 714 q 559 817 568 794 q 547 843 553 838 q 528 859 536 854 z "},"j":{"ha":750,"x_min":87,"x_max":665,"o":"m 403 856 q 422 857 404 857 q 585 789 521 857 q 665 582 656 722 q 642 436 660 493 q 596 334 623 374 q 353 215 518 227 q 334 214 351 214 q 182 273 245 214 q 96 479 107 347 q 94 518 94 481 l 94 522 q 96 558 94 557 q 183 766 115 696 q 278 828 222 806 q 403 856 332 850 m 135 1076 l 625 1112 l 629 1112 q 637 1104 637 1112 l 637 1103 l 637 1084 q 636 1064 636 1083 l 636 1060 q 639 1038 636 1060 q 650 1011 640 1022 q 660 990 660 1000 q 648 982 660 983 q 621 978 639 981 q 585 977 619 977 q 501 994 524 977 q 463 1067 468 1019 l 304 1057 l 304 1046 q 262 965 304 993 q 163 937 207 942 q 131 936 161 936 l 119 936 q 110 943 110 936 q 121 970 111 943 q 134 1000 132 994 q 135 1014 135 1002 l 135 1021 q 131 1046 134 1028 q 126 1065 126 1060 l 126 1067 q 135 1076 126 1076 m 131 57 q 326 72 176 58 q 396 79 349 75 q 412 82 408 81 q 422 82 416 82 l 440 82 q 447 85 444 83 q 452 85 449 85 l 460 85 q 478 86 473 85 q 503 87 496 86 q 612 97 525 87 l 614 97 q 625 89 625 97 q 624 69 625 71 q 623 47 623 68 l 623 37 q 627 17 623 33 q 647 -22 631 0 q 653 -31 647 -25 q 657 -37 654 -32 q 633 -47 657 -46 q 625 -49 627 -47 q 615 -50 616 -49 q 604 -52 611 -52 q 597 -53 600 -53 l 583 -53 q 517 -37 557 -53 q 447 58 468 -9 l 297 45 q 298 32 298 43 q 261 -52 298 -25 q 171 -82 228 -78 l 149 -82 q 121 -81 122 -82 q 106 -77 117 -79 q 96 -75 104 -75 q 87 -68 87 -74 q 96 -56 87 -64 q 122 -21 119 -29 q 123 -5 123 -20 l 123 3 q 122 16 122 4 q 121 22 121 17 q 117 40 118 26 l 117 43 q 131 57 117 56 m 407 828 q 350 742 375 827 q 311 557 328 682 q 294 432 300 492 q 289 357 289 411 q 290 330 289 332 q 306 267 292 281 q 340 241 318 243 l 343 241 q 427 343 395 241 q 460 570 454 432 q 461 636 461 579 q 463 663 463 640 l 463 659 q 460 720 463 659 q 444 802 458 754 q 410 828 435 828 l 407 828 z "},"k":{"ha":1036,"x_min":49,"x_max":935,"o":"m 106 701 q 104 707 104 703 l 104 713 q 103 724 104 722 q 102 757 102 725 l 102 765 l 102 777 l 102 802 q 103 884 103 810 q 104 918 104 886 l 103 916 l 103 932 l 103 954 q 75 1017 96 1011 q 57 1028 62 1018 q 49 1038 49 1032 l 49 1039 q 60 1054 49 1039 q 109 1071 94 1069 q 126 1075 122 1074 q 144 1079 127 1076 q 150 1080 144 1080 q 154 1082 151 1082 q 157 1083 155 1082 q 167 1084 165 1083 l 170 1084 q 186 1089 184 1088 q 258 1101 228 1100 q 275 1103 260 1103 l 278 1103 q 318 1086 313 1103 l 318 1063 l 318 1034 l 318 920 l 317 828 l 317 781 l 317 743 q 486 802 382 768 q 628 833 562 828 q 646 835 629 835 q 661 836 647 836 l 665 836 l 664 836 l 661 836 l 660 836 l 671 836 q 684 836 677 836 q 701 833 688 835 q 859 775 811 814 q 914 650 903 734 q 916 607 916 648 l 916 595 q 913 530 916 595 q 911 507 911 529 q 909 493 911 494 q 908 481 909 482 q 907 463 907 479 q 905 449 907 450 q 904 435 905 436 q 900 397 901 424 q 888 264 896 346 l 888 257 l 888 252 q 885 240 888 252 q 884 215 885 221 q 882 205 882 211 q 880 187 880 203 q 876 153 878 168 q 875 135 875 151 q 876 122 875 123 q 907 66 880 72 q 935 47 932 60 l 935 46 q 911 28 935 33 q 819 16 873 26 q 789 9 796 11 q 777 8 782 8 q 761 5 762 5 q 730 4 760 4 l 728 4 q 690 8 704 4 q 661 50 665 14 q 660 72 660 52 l 660 79 q 688 357 660 131 q 705 600 705 551 l 705 615 q 703 665 704 615 q 615 789 690 789 l 614 789 q 606 787 612 787 q 476 726 522 782 q 393 562 415 665 l 399 562 q 406 564 406 562 l 404 564 q 427 567 404 566 q 444 568 443 567 q 465 567 464 568 q 481 546 479 558 q 433 370 437 406 q 389 157 401 221 q 387 135 387 154 q 386 123 387 125 l 386 119 l 386 121 q 385 106 385 119 l 385 102 q 386 90 385 92 q 406 56 387 60 q 432 39 431 47 l 432 37 q 410 17 432 26 q 367 3 385 4 q 354 1 366 1 q 342 0 353 0 q 330 -1 332 0 q 319 -3 321 -1 q 304 -4 318 -4 q 297 -5 298 -4 q 290 -7 292 -5 q 279 -8 289 -8 q 273 -9 278 -9 q 257 -11 272 -11 q 250 -12 256 -12 l 248 -12 l 249 -12 l 245 -12 q 207 -7 212 -12 q 167 41 176 3 q 165 53 167 52 l 165 57 q 164 58 164 58 q 163 75 163 60 l 163 79 q 199 271 163 151 q 271 486 232 408 q 258 488 260 486 q 245 486 248 488 q 239 485 240 486 q 232 484 233 485 q 224 482 231 482 q 184 478 197 478 q 172 476 183 476 l 170 476 q 167 478 170 476 q 158 479 164 479 l 158 488 l 158 492 q 157 496 158 494 l 157 497 l 157 500 q 203 618 157 551 q 272 703 231 657 q 248 707 264 707 q 227 705 245 705 q 210 704 225 704 q 203 703 204 704 q 197 701 199 703 q 189 700 196 700 q 182 699 187 699 q 175 697 180 697 q 164 696 174 696 q 155 694 163 694 l 151 694 q 132 693 150 693 l 129 693 q 121 694 122 693 q 106 701 113 694 z "},"l":{"ha":1267,"x_min":127,"x_max":1177,"o":"m 574 406 q 585 407 575 407 q 639 379 611 407 q 682 279 675 343 l 682 265 q 681 252 681 264 l 681 249 q 635 163 673 197 q 436 87 589 127 q 317 26 378 53 q 211 -3 260 0 l 203 -3 q 142 33 151 -3 q 134 68 136 53 q 127 113 134 89 l 127 135 q 139 249 127 135 q 184 427 149 314 q 322 682 232 571 q 460 810 390 762 q 378 872 386 868 q 374 878 376 872 q 372 880 372 879 q 371 882 372 882 q 370 884 371 884 q 368 885 370 884 q 367 888 368 886 q 358 900 366 895 q 357 901 358 900 q 355 903 357 901 q 467 966 447 958 q 539 996 518 993 q 623 901 616 905 q 682 842 640 876 q 815 726 765 783 q 875 640 842 696 q 946 514 908 586 q 1008 342 979 449 q 1059 187 1031 248 q 1100 131 1072 153 q 1135 107 1111 117 q 1177 78 1177 92 q 1171 69 1177 71 q 1137 53 1160 62 q 1048 29 1137 53 q 986 16 1023 21 q 974 14 985 14 q 892 77 928 14 q 888 85 890 79 q 882 94 885 89 q 871 125 879 100 q 868 135 871 126 q 865 147 867 143 q 859 168 863 151 q 851 186 852 182 q 786 386 810 325 q 697 575 745 498 q 587 677 644 664 q 458 579 501 639 q 397 479 421 534 q 357 338 372 418 q 465 371 406 345 q 574 406 529 401 m 355 297 q 345 236 347 271 q 343 200 343 233 q 342 182 343 183 l 342 174 l 342 153 q 346 132 346 139 q 347 123 346 125 q 364 117 349 118 q 380 115 366 115 q 387 114 386 115 l 390 114 l 396 114 q 456 138 441 115 q 481 215 481 165 l 481 227 q 461 288 479 269 q 411 304 446 304 l 401 304 q 355 297 374 301 z "},";":{"ha":975,"x_min":66,"x_max":885,"o":"m 288 600 l 288 599 q 256 566 288 576 q 110 536 229 553 q 96 534 109 534 q 87 533 94 533 l 86 533 q 66 547 66 533 q 69 564 66 547 q 74 586 71 570 q 102 681 81 639 q 212 803 142 758 q 465 867 311 865 q 467 885 467 868 q 468 892 468 886 q 446 937 468 928 q 422 962 422 953 q 465 982 422 981 q 541 986 492 982 q 583 987 543 987 q 600 989 585 989 l 599 989 l 610 989 l 608 989 q 652 986 608 987 q 677 971 667 983 q 694 916 693 956 l 694 914 q 684 835 694 871 q 671 770 673 790 q 667 746 667 753 q 665 737 665 743 q 664 729 665 732 q 661 714 663 714 q 665 694 661 700 q 689 688 672 688 l 693 688 l 690 688 l 689 688 q 732 690 689 689 q 814 700 772 700 l 818 700 q 860 696 840 700 q 885 675 876 690 q 864 567 882 663 q 851 503 859 533 q 844 471 844 472 q 836 432 839 450 q 836 422 836 427 q 833 414 835 418 q 833 408 833 411 q 831 401 832 406 q 831 396 831 399 q 828 389 829 395 q 828 383 828 386 q 825 379 827 380 q 798 168 798 222 l 798 160 l 798 151 l 798 117 l 798 89 l 798 82 q 807 49 798 53 q 828 26 828 33 q 790 8 828 14 q 732 0 760 1 q 644 -8 669 -8 l 640 -8 q 583 3 625 -8 q 558 37 562 12 q 551 83 551 83 l 551 90 q 576 273 551 136 q 583 314 578 283 q 597 386 589 343 q 621 496 607 429 q 646 652 646 608 l 646 653 q 614 672 643 672 l 612 672 q 574 668 596 672 q 497 659 539 659 l 493 659 q 460 664 465 659 q 443 688 444 671 l 443 692 l 443 693 q 452 761 443 715 l 452 762 q 453 771 452 770 q 457 796 453 777 q 458 808 458 798 q 460 821 460 810 q 336 757 385 818 q 286 623 286 697 l 286 618 q 288 600 286 602 z "},"'":{"ha":1292,"x_min":97,"x_max":1239,"o":"m 349 892 q 350 908 350 893 q 336 957 347 933 q 323 978 329 966 q 309 999 310 999 q 340 1008 309 1007 q 372 1014 350 1008 q 424 1019 392 1019 l 446 1019 l 452 1019 q 558 986 522 1019 q 596 890 589 956 q 597 864 596 868 q 596 847 596 851 q 595 840 596 842 l 595 842 q 692 859 637 846 q 771 872 746 872 l 777 872 q 810 863 800 872 q 817 831 814 859 l 817 811 q 810 714 817 794 q 802 639 806 675 q 799 616 800 625 q 796 599 798 608 q 790 551 791 568 q 904 574 879 574 q 975 583 943 581 l 991 583 q 1071 572 1029 583 q 1137 522 1111 557 q 1174 425 1161 489 q 1189 282 1186 347 q 1190 228 1189 243 q 1192 204 1192 211 l 1192 205 l 1192 155 q 1193 131 1193 151 q 1198 92 1194 98 q 1215 71 1203 78 q 1239 50 1239 58 q 1223 40 1239 41 q 1187 32 1211 33 q 1126 24 1162 29 q 1071 17 1074 17 l 1063 17 q 1019 24 1042 17 q 991 56 1003 29 q 982 187 989 77 q 982 205 982 197 q 979 221 981 214 q 977 257 979 221 q 972 294 975 283 q 943 452 961 400 q 899 509 928 492 q 842 521 876 521 l 831 521 q 783 514 822 521 q 762 345 762 349 q 747 224 755 307 q 739 142 739 157 l 739 139 q 757 72 742 96 q 783 57 757 72 q 793 41 793 52 q 781 31 793 32 q 747 25 774 25 q 707 20 728 21 q 636 12 656 14 l 608 12 q 567 14 571 12 q 534 32 543 20 q 528 71 529 36 q 526 96 526 74 q 541 243 526 168 q 546 277 543 258 q 550 311 547 294 q 557 355 555 345 q 559 375 558 367 q 561 389 559 380 q 567 421 562 399 q 575 479 574 452 q 415 408 471 472 q 325 195 358 342 q 321 168 322 191 q 319 123 319 161 q 326 81 321 89 q 346 58 332 64 q 359 45 359 53 q 336 26 359 35 q 285 16 311 18 q 225 11 268 12 q 178 7 191 8 l 167 7 q 125 12 139 7 q 104 40 109 21 q 97 93 98 65 l 97 117 q 106 205 97 170 q 168 342 122 281 q 271 440 218 408 q 400 485 304 460 q 583 517 400 485 q 593 661 591 603 q 597 766 597 705 q 596 815 597 808 q 557 817 570 815 q 539 818 545 818 l 522 818 q 435 807 489 815 q 367 794 371 796 q 355 793 364 793 q 342 791 346 793 q 325 799 325 791 q 340 843 339 836 q 349 892 347 864 z "},"z":{"ha":1083,"x_min":60,"x_max":996,"o":"m 597 608 l 785 650 q 789 711 786 692 q 793 778 790 751 q 794 823 794 781 q 796 843 796 825 l 798 840 q 793 875 798 861 q 771 900 787 889 q 753 918 753 909 q 782 933 753 926 q 791 935 786 935 q 800 936 798 935 q 808 937 804 937 q 812 939 811 937 q 819 940 815 940 q 822 942 821 940 q 831 943 828 942 q 838 945 836 943 q 843 946 842 945 q 914 954 878 953 l 929 954 l 945 954 q 968 946 954 951 q 986 913 982 940 q 996 839 993 880 l 996 806 q 994 747 996 749 q 990 686 991 707 q 986 643 986 653 q 971 429 979 497 q 958 300 965 386 q 957 285 957 293 q 956 264 957 273 l 956 249 q 956 241 956 244 q 953 233 954 239 q 943 139 949 200 q 945 127 943 131 q 946 115 945 117 q 947 106 946 107 q 949 96 949 104 q 965 74 956 79 q 979 60 979 66 q 958 43 979 50 q 916 29 947 33 q 860 21 904 28 q 800 14 832 17 l 794 14 q 755 22 771 14 q 734 54 745 29 q 733 68 733 56 l 733 81 q 743 243 733 146 q 747 285 746 265 q 749 296 749 289 q 750 307 749 302 q 751 323 751 313 l 751 342 q 758 421 751 345 q 762 452 760 436 q 764 473 764 453 q 765 489 765 475 q 778 606 777 606 l 593 570 l 551 118 q 553 110 551 111 q 554 100 553 102 q 555 85 554 86 q 571 61 557 77 q 582 43 582 53 q 574 32 582 37 q 561 28 572 29 q 557 26 558 28 q 551 25 553 26 q 549 24 550 25 q 545 22 546 24 q 428 0 484 1 l 422 0 q 355 40 370 0 q 353 62 354 40 l 353 79 q 358 197 353 158 q 370 332 370 304 q 374 376 372 367 q 375 396 375 383 q 376 410 376 397 q 378 425 376 424 q 382 471 379 439 q 383 492 383 478 q 385 509 383 504 q 386 526 386 514 q 387 539 386 536 q 389 558 389 541 q 390 579 390 562 q 392 599 392 583 q 393 607 393 602 l 393 610 l 393 608 q 395 648 395 614 q 396 664 396 650 l 396 663 l 396 684 q 367 789 395 757 q 319 811 349 811 l 317 811 q 285 803 298 811 q 282 802 285 802 q 278 800 281 800 l 278 790 q 207 646 278 694 q 90 608 154 610 q 79 610 89 610 l 77 610 l 75 610 q 60 616 60 610 q 72 646 60 616 q 85 699 85 671 l 85 703 l 85 705 q 81 737 85 724 q 74 765 77 751 l 74 766 q 94 789 74 782 l 93 789 l 92 789 l 90 789 q 89 789 89 789 q 104 791 89 789 q 119 796 107 793 q 168 808 136 799 q 222 821 184 810 q 253 829 222 821 q 256 832 254 831 q 257 832 257 832 l 261 832 q 268 833 262 833 q 279 835 271 835 q 313 843 298 840 q 330 847 323 844 q 339 848 336 847 q 342 850 342 850 q 354 854 350 852 q 358 857 357 856 q 361 857 359 857 l 366 857 l 370 857 q 376 859 371 859 q 382 860 378 860 l 383 860 q 393 861 385 861 q 400 863 395 863 q 412 864 401 864 q 418 865 414 865 l 416 865 l 424 865 q 510 838 463 865 q 571 770 550 804 q 599 660 597 724 l 599 646 q 597 608 599 610 z "},"x":{"ha":1320,"x_min":35,"x_max":1192,"o":"m 35 517 l 35 526 q 89 705 35 611 q 216 851 140 800 q 446 939 292 904 q 606 968 515 957 q 781 981 688 979 q 875 985 823 982 q 982 991 936 986 q 1006 993 983 993 q 1084 983 1064 993 q 1157 935 1111 977 q 1173 882 1165 899 q 1186 827 1182 865 q 1192 770 1192 812 q 1153 528 1192 656 q 1140 526 1152 526 q 1126 525 1139 525 q 1096 521 1104 522 q 1038 515 1076 515 q 964 575 975 515 q 975 648 964 575 q 1004 884 1004 799 l 1004 897 q 979 940 1003 929 q 928 951 947 951 l 918 951 q 903 950 904 951 q 888 949 889 950 q 827 940 878 947 q 804 831 827 913 q 760 619 787 758 q 800 618 799 619 q 838 616 836 618 q 859 602 859 616 l 859 597 q 833 507 857 585 q 791 370 798 389 q 771 294 771 300 q 856 313 815 296 q 884 319 868 318 q 899 323 888 321 q 901 325 900 325 q 905 326 903 325 q 911 328 909 326 q 940 336 926 329 q 956 338 942 338 q 1002 318 977 338 q 1036 211 1035 282 l 1036 204 q 960 86 1036 115 q 789 62 899 66 q 694 43 770 60 q 599 21 623 24 l 593 21 q 555 29 571 21 q 534 60 542 35 q 533 69 533 61 q 532 74 533 72 l 532 75 l 532 79 q 555 214 532 87 q 561 237 555 221 q 574 283 568 256 q 586 333 581 314 q 596 371 591 353 q 604 397 602 387 q 640 546 632 492 q 632 558 640 554 q 614 559 631 559 q 604 558 606 559 l 579 558 q 568 557 578 557 q 557 558 558 557 q 550 568 550 559 l 550 571 q 562 619 558 603 q 572 656 567 636 q 579 684 579 681 q 587 717 581 693 q 596 754 596 750 q 625 928 625 893 l 625 932 q 411 897 465 926 q 328 835 366 876 q 262 728 290 796 q 271 729 269 728 q 279 730 278 729 l 278 730 q 293 733 278 730 q 304 734 294 734 q 315 736 307 736 q 412 754 364 754 l 419 754 l 432 754 q 489 713 472 753 q 503 608 500 673 l 503 603 q 421 489 503 526 q 257 456 361 463 q 197 444 215 454 q 129 427 134 428 q 111 422 117 424 q 102 419 104 421 l 97 419 q 47 452 58 419 q 35 517 36 490 m 222 564 q 227 534 222 550 q 267 498 235 498 l 268 498 q 304 521 288 500 q 323 576 319 550 q 328 625 328 604 l 328 633 q 310 688 325 668 q 257 699 285 699 l 250 699 q 244 676 249 690 q 243 671 243 673 q 241 665 243 669 q 239 659 239 659 q 235 642 236 647 q 233 637 233 640 q 232 635 232 636 q 231 628 232 629 q 222 568 222 593 l 222 564 m 737 127 q 743 104 737 111 q 771 97 754 97 l 775 97 q 831 118 807 98 q 857 197 857 144 l 857 203 q 847 249 856 233 q 817 258 842 258 l 812 258 l 814 258 l 806 258 l 808 258 q 810 258 810 258 q 783 256 810 258 q 775 254 777 256 q 766 253 768 254 q 760 252 765 252 q 758 250 760 252 l 757 250 q 743 196 749 225 q 737 135 737 176 l 737 127 z "},"c":{"ha":1211,"x_min":37,"x_max":1160,"o":"m 389 1043 q 289 1026 294 1029 q 252 1021 260 1021 q 243 1019 249 1019 q 203 1014 225 1017 q 167 1010 179 1011 q 129 1004 153 1007 q 74 996 74 996 l 69 996 q 40 1014 40 996 q 46 1044 40 1035 q 49 1057 47 1044 q 50 1065 49 1064 q 52 1074 50 1072 q 53 1080 53 1075 l 53 1093 l 53 1100 l 53 1112 l 53 1125 l 53 1129 q 50 1137 53 1129 q 47 1156 49 1156 l 47 1154 q 41 1175 43 1166 q 37 1189 40 1181 q 58 1206 37 1200 q 103 1217 58 1207 q 150 1222 117 1222 l 160 1222 q 239 1203 207 1222 q 282 1103 281 1173 l 282 1099 l 282 1086 q 281 1072 281 1084 l 679 1107 q 733 1174 701 1146 q 807 1213 764 1200 q 936 1231 859 1227 l 942 1231 q 968 1221 968 1231 q 951 1177 958 1206 q 942 1140 942 1158 q 940 1118 940 1139 l 940 1114 q 954 1060 943 1084 q 968 1036 958 1043 q 943 1019 968 1029 q 900 1010 933 1014 q 843 1003 871 1004 l 829 1003 q 750 1015 782 1003 q 690 1074 703 1032 l 604 1063 q 593 986 597 1023 q 585 899 586 949 q 606 893 586 893 l 612 893 q 627 895 614 895 q 640 896 629 896 q 661 897 642 897 q 682 899 681 897 q 736 904 734 903 l 746 904 l 747 904 q 781 896 777 904 q 782 869 782 895 q 783 860 783 868 q 775 772 783 825 q 757 652 757 660 q 810 656 796 654 q 840 657 817 657 q 868 659 847 659 q 879 661 875 660 q 890 661 885 661 q 913 663 905 661 q 940 664 930 663 q 974 665 961 664 q 1002 667 981 667 q 1028 668 1021 667 q 1117 672 1057 669 q 1143 661 1143 669 q 1131 639 1137 652 q 1121 623 1125 628 q 1112 581 1112 597 l 1112 576 q 1117 549 1112 562 q 1133 509 1120 530 q 1145 492 1139 496 q 1152 479 1150 484 q 1160 464 1157 467 q 1147 453 1160 457 q 1140 452 1141 453 q 1132 450 1133 452 q 1126 449 1128 450 q 1122 447 1124 447 q 1114 446 1120 446 q 1069 439 1100 440 l 1061 439 q 960 469 1000 439 q 897 627 901 518 l 751 619 q 730 460 732 472 q 724 415 724 418 q 722 397 724 404 q 722 387 722 392 q 720 376 721 383 q 718 357 718 361 q 717 349 718 351 q 715 330 715 335 q 714 323 715 325 l 714 317 q 711 306 714 317 q 710 293 710 298 q 708 289 708 290 q 707 282 708 286 q 705 279 705 281 q 705 273 705 277 q 704 269 704 271 q 703 257 704 261 q 701 244 701 253 q 697 208 699 218 q 696 192 696 203 q 692 165 694 184 q 688 132 688 135 l 688 114 l 688 106 q 692 81 690 92 q 694 65 693 77 q 697 45 696 54 q 721 11 703 12 q 737 -3 737 7 l 737 -4 q 705 -28 737 -24 q 696 -29 704 -29 q 685 -31 686 -29 l 686 -31 q 688 -31 688 -31 q 664 -33 688 -31 q 627 -37 656 -35 l 618 -37 l 612 -37 q 607 -40 612 -37 q 589 -41 604 -41 q 571 -43 575 -41 q 566 -45 568 -45 l 564 -45 l 557 -45 q 510 -36 529 -45 q 479 3 492 -28 q 473 41 473 26 l 473 57 q 486 216 473 98 q 493 273 492 239 q 501 340 494 302 q 503 353 503 345 q 504 364 503 359 q 505 376 504 372 q 507 382 507 379 q 515 450 511 404 q 529 596 529 539 l 529 603 l 410 596 q 361 449 400 492 q 218 385 321 408 q 174 379 204 379 l 170 379 q 146 383 154 379 q 138 396 140 387 l 138 397 q 146 416 138 408 q 168 467 163 441 q 172 507 172 486 l 172 514 q 164 564 171 539 l 164 571 q 161 579 164 571 q 160 586 161 585 q 158 589 158 587 q 157 593 157 590 l 157 595 q 182 612 157 610 q 378 625 267 614 q 542 646 496 636 l 576 860 q 542 865 559 865 l 530 865 l 503 865 q 447 860 471 865 q 390 851 390 851 l 389 851 q 372 863 372 851 q 371 876 371 864 l 371 884 q 379 981 371 918 q 383 1004 379 985 q 385 1015 385 1007 q 386 1025 385 1022 q 387 1036 387 1029 q 389 1043 387 1042 z "},"v":{"ha":1158,"x_min":62,"x_max":1035,"o":"m 990 1171 l 999 1171 q 1014 1165 1014 1171 q 987 1111 1007 1156 q 978 1059 978 1097 l 978 1048 q 997 1002 981 1018 q 1002 999 999 1000 q 1004 996 1003 997 q 1010 989 1006 993 q 1013 987 1011 987 q 1014 985 1013 986 q 1015 983 1014 985 q 1028 971 1026 972 q 1032 967 1031 970 q 1035 964 1034 965 q 1023 951 1035 957 q 982 936 1008 943 q 922 926 957 928 q 899 925 921 925 q 821 939 843 925 q 746 1014 766 962 l 650 1000 q 720 896 671 957 q 814 800 777 835 q 925 754 892 794 q 965 636 958 714 q 966 600 966 635 q 965 568 965 599 q 953 353 957 464 q 949 235 951 269 q 947 199 947 216 q 946 184 947 187 l 946 186 q 947 149 946 150 q 949 121 949 147 q 956 69 951 85 q 972 41 960 50 q 993 21 990 31 l 993 20 q 962 1 993 7 q 943 -1 962 0 q 926 -5 928 -3 q 908 -9 913 -9 q 857 -17 888 -14 l 844 -17 q 798 -8 817 -17 q 760 33 775 1 q 753 65 754 36 q 751 83 751 66 q 750 90 751 89 l 750 94 q 749 154 749 96 q 750 243 749 241 q 766 521 753 350 q 768 547 766 546 q 770 571 768 570 q 771 589 770 587 q 772 607 771 606 l 772 629 q 771 669 772 668 q 755 743 770 721 q 717 771 746 770 l 708 771 q 636 730 672 771 q 581 619 593 679 q 553 375 562 521 q 549 262 550 311 q 547 220 547 241 q 546 201 547 205 q 547 157 546 158 q 549 138 549 155 l 549 126 l 549 115 q 557 77 550 93 q 572 54 562 62 q 595 29 591 43 q 561 11 595 12 q 541 9 542 11 q 518 8 519 9 q 501 7 517 7 q 492 5 500 5 q 457 1 484 3 q 443 0 456 0 q 435 -1 441 -1 l 436 -1 l 421 -1 q 383 4 389 -1 q 357 39 372 9 q 350 94 351 46 q 346 224 346 151 l 346 264 l 346 273 q 353 435 346 273 q 408 648 366 590 q 579 771 453 714 q 503 884 579 786 q 427 978 494 892 l 345 972 q 254 880 336 909 q 119 857 195 864 q 98 856 118 856 q 86 854 97 854 l 79 854 q 62 860 64 854 q 96 921 87 897 q 109 968 109 943 l 109 974 q 93 1029 107 1014 q 81 1051 83 1042 q 62 1079 81 1051 q 75 1089 62 1084 q 115 1095 86 1095 q 150 1099 125 1095 q 174 1100 151 1100 q 182 1101 175 1101 l 180 1101 q 205 1103 182 1103 q 277 1090 249 1103 q 342 1000 326 1067 l 736 1047 q 812 1143 754 1111 q 920 1169 856 1165 q 949 1171 921 1171 l 965 1171 l 990 1171 z "},"b":{"ha":939,"x_min":61,"x_max":893,"o":"m 155 1132 q 273 1141 176 1135 l 272 1141 l 271 1141 q 269 1141 269 1141 q 335 1146 269 1141 q 345 1149 340 1147 q 351 1149 347 1149 l 370 1149 q 416 1153 390 1152 q 545 1161 469 1157 q 668 1169 619 1166 q 703 1171 675 1171 q 717 1173 705 1173 l 718 1173 q 736 1160 733 1173 q 732 1136 736 1156 q 728 1108 728 1118 l 728 1105 q 739 1071 729 1079 q 749 1055 739 1069 q 753 1048 750 1051 q 755 1044 753 1047 q 757 1042 757 1043 q 758 1040 757 1042 q 733 1028 758 1032 q 703 1023 714 1025 q 686 1021 690 1021 q 672 1019 685 1019 q 590 1040 621 1019 q 545 1124 547 1068 l 330 1117 l 330 1108 q 285 1019 330 1053 q 184 987 239 991 l 175 987 l 171 987 l 170 987 l 168 987 l 167 987 q 154 989 165 989 l 151 989 q 122 1000 122 990 q 139 1025 122 1007 q 154 1061 154 1044 l 154 1063 q 150 1100 154 1086 q 143 1125 144 1104 q 155 1132 143 1132 m 176 74 l 699 115 l 700 115 q 714 106 714 115 q 711 79 714 106 q 710 56 711 58 q 708 41 708 53 l 708 43 l 708 32 q 725 -3 714 12 q 741 -28 737 -16 q 729 -37 741 -31 q 724 -39 725 -37 q 720 -40 722 -40 q 708 -41 718 -41 q 703 -43 704 -41 l 700 -43 l 684 -43 q 574 -14 615 -43 q 530 65 532 12 l 332 54 q 334 32 334 53 l 334 26 q 290 -47 334 -25 q 205 -69 257 -66 l 183 -69 l 175 -69 l 176 -69 l 174 -69 q 167 -68 168 -69 q 150 -66 153 -68 q 131 -58 131 -64 q 132 -57 132 -58 q 134 -56 134 -57 q 135 -53 134 -54 q 136 -52 136 -53 q 138 -50 138 -52 q 139 -47 138 -49 q 142 -45 139 -47 q 143 -41 143 -43 q 144 -40 144 -40 q 146 -37 144 -39 q 147 -36 146 -36 q 149 -35 147 -35 q 150 -33 149 -33 q 153 -29 150 -32 q 154 -26 154 -28 q 155 -25 154 -26 q 157 -24 155 -25 q 168 7 168 0 l 168 9 l 168 12 q 165 36 168 12 q 163 52 163 50 q 163 54 163 53 q 160 57 161 56 q 157 64 157 61 q 176 74 157 74 m 794 755 l 796 755 q 811 737 811 755 q 812 707 811 708 q 817 679 812 694 q 828 650 817 679 q 869 607 844 625 q 893 585 893 593 q 886 572 893 579 q 804 549 863 553 l 787 549 q 677 574 725 549 q 591 696 608 610 q 511 689 550 690 q 465 681 465 684 q 419 625 461 681 q 336 492 367 555 q 294 343 294 406 l 294 334 q 307 279 296 301 q 343 244 318 256 q 393 235 357 235 l 401 235 q 484 252 440 236 q 494 256 486 254 q 504 260 503 258 q 509 261 505 261 q 511 262 510 262 q 522 267 519 264 q 614 372 550 349 q 668 380 632 375 q 700 386 699 385 q 739 390 707 386 l 745 390 q 774 375 772 390 l 774 374 q 765 339 774 366 q 760 302 760 313 q 758 294 758 301 l 758 290 q 774 233 760 254 q 779 222 778 232 q 785 211 779 221 q 786 207 785 208 q 787 203 786 204 q 789 199 789 201 q 764 182 789 187 q 665 172 751 174 l 657 172 q 590 186 612 172 q 530 235 551 212 q 525 233 529 233 q 519 232 522 233 q 504 229 519 232 q 481 225 494 228 q 376 203 461 221 q 368 203 372 203 q 355 200 366 201 q 328 196 346 199 q 306 192 313 195 q 254 184 277 186 l 229 184 q 161 193 187 184 q 97 240 127 203 q 61 329 62 275 l 61 336 q 69 385 61 359 q 142 517 90 435 q 143 518 143 518 q 144 519 144 519 l 144 521 q 146 524 146 522 q 147 525 146 524 q 149 528 149 526 q 150 529 149 528 q 157 539 150 529 q 176 570 158 543 q 243 668 224 636 q 271 710 250 679 q 292 742 285 728 q 306 764 300 755 q 314 777 311 774 q 342 871 342 842 l 342 879 q 339 896 342 879 q 311 925 335 905 q 288 954 288 943 l 288 956 q 350 975 288 971 q 361 977 359 975 q 380 981 366 979 q 408 985 401 983 q 447 989 439 989 l 460 989 l 458 989 l 456 989 q 500 986 456 987 q 541 964 525 982 q 555 918 553 945 l 555 913 q 518 787 555 864 q 513 772 514 777 q 509 765 510 768 q 501 753 501 754 q 485 718 493 736 q 496 721 492 720 q 504 721 500 721 l 521 721 q 574 725 536 724 q 643 734 608 729 q 684 741 667 741 q 794 755 729 750 z "},"n":{"ha":928,"x_min":57,"x_max":859,"o":"m 77 730 q 57 739 57 730 q 74 771 60 751 q 87 799 87 789 q 106 843 102 832 q 107 863 107 844 q 109 871 109 864 q 102 918 109 871 q 90 953 93 947 q 89 960 89 957 q 87 962 87 961 q 86 966 87 965 q 85 970 86 970 q 106 986 85 983 q 256 1003 227 1000 q 472 1017 335 1017 q 611 1007 578 1017 q 704 972 669 997 q 728 945 722 966 q 732 916 732 918 q 721 851 732 900 q 718 844 721 851 q 718 840 718 842 q 715 838 717 839 q 714 833 715 836 q 711 829 713 832 q 692 777 710 808 q 661 705 677 742 q 643 661 643 676 q 650 650 643 653 l 656 650 l 654 650 l 652 650 q 692 653 652 652 q 764 661 746 660 q 791 664 789 664 q 840 656 822 664 q 859 628 859 650 q 857 616 859 618 q 806 496 850 587 q 764 416 806 494 q 755 401 760 408 q 753 395 753 399 q 749 387 750 392 q 745 380 747 383 q 739 368 742 374 q 734 361 734 363 q 724 339 728 346 q 663 218 682 258 q 659 210 663 218 q 648 189 654 201 q 610 111 635 158 q 604 81 604 92 q 618 50 604 58 q 633 36 633 39 q 621 26 633 31 q 611 25 612 26 q 603 24 604 25 q 596 21 596 22 q 564 17 596 21 q 554 16 562 16 q 543 14 553 14 q 533 12 534 14 q 524 11 525 12 q 513 9 514 11 q 503 8 504 9 q 443 3 457 3 q 429 1 437 1 q 375 16 389 1 q 353 61 357 28 q 351 64 351 62 q 412 204 351 79 q 507 383 428 236 q 532 437 521 410 q 539 450 539 447 q 543 458 543 457 q 547 468 545 463 q 570 519 549 473 q 607 631 607 599 q 604 637 607 635 q 587 642 599 642 q 561 643 586 643 q 504 642 505 643 q 461 637 467 637 q 421 642 435 637 q 406 660 407 647 q 404 664 404 661 q 457 790 404 673 q 465 806 463 799 q 467 810 465 808 q 468 811 468 811 q 469 814 469 812 q 471 818 469 817 q 475 827 475 823 q 478 833 476 829 q 482 840 481 838 q 489 852 486 846 q 493 864 490 859 q 509 896 507 885 q 513 905 511 904 q 517 914 515 907 q 519 917 518 916 q 519 918 519 918 q 521 922 521 920 q 489 970 513 954 q 433 982 465 982 q 395 978 412 982 q 385 977 393 977 q 378 975 379 977 q 359 971 366 974 q 260 783 359 852 q 168 743 211 755 q 77 730 125 730 z "},"m":{"ha":1371,"x_min":62,"x_max":1293,"o":"m 62 559 q 107 721 62 629 q 231 857 157 815 q 329 897 275 882 q 433 917 416 917 q 661 916 654 917 l 945 916 l 958 924 q 971 922 960 922 q 977 921 975 922 l 979 921 q 1008 925 989 921 q 1034 929 1026 929 q 1101 930 1100 929 q 1145 932 1103 932 q 1173 928 1157 932 q 1265 854 1236 909 q 1293 736 1293 794 q 1258 608 1293 652 q 1179 543 1223 553 q 1162 539 1178 542 q 1147 534 1150 538 q 1140 533 1141 534 q 1103 532 1139 532 l 1067 532 l 1035 532 l 1021 532 q 971 522 996 525 q 908 518 940 518 q 856 524 865 518 q 817 539 832 525 q 778 650 791 561 q 777 664 778 663 q 775 677 777 676 q 774 694 775 685 q 771 715 772 705 q 766 751 770 746 q 765 778 766 777 q 764 799 764 779 q 760 836 761 827 q 758 854 758 838 q 757 864 757 856 q 745 884 753 876 q 721 889 734 889 q 681 872 694 889 q 659 679 676 868 q 627 441 642 525 q 579 379 625 433 q 540 336 561 359 q 479 268 519 313 q 347 111 397 179 q 340 97 345 106 q 334 87 335 89 q 326 78 329 83 q 317 53 317 64 q 329 32 317 40 q 340 17 340 26 q 325 1 340 7 q 301 -3 304 -3 q 296 -5 298 -4 q 218 -7 220 -5 q 180 -8 216 -8 q 154 -9 179 -9 q 93 -1 113 -9 q 75 32 75 7 q 143 176 75 92 q 204 245 191 231 q 281 325 252 296 q 392 450 368 412 q 313 449 314 450 q 239 444 268 444 q 163 449 186 444 q 107 464 131 452 q 72 500 85 473 q 62 559 62 518 m 268 603 q 290 510 268 545 q 325 485 298 494 q 380 476 357 476 q 428 493 419 476 q 453 640 437 507 q 465 847 465 757 q 460 890 465 890 q 446 892 458 892 q 379 873 406 892 q 319 808 338 851 q 288 718 293 758 q 268 603 268 624 m 950 815 q 953 734 950 803 q 960 677 954 707 q 981 591 966 612 q 1006 574 990 579 q 1038 566 1022 566 q 1064 576 1053 566 q 1088 627 1079 597 q 1095 703 1095 703 q 1064 838 1095 802 q 994 879 1042 859 q 991 876 994 876 q 986 882 987 876 q 978 879 983 879 q 972 878 974 879 q 966 876 968 878 q 961 875 964 875 q 960 873 960 873 q 958 873 958 873 q 953 876 956 873 q 951 840 951 872 q 950 822 951 823 l 950 814 l 950 815 z "},",":{"ha":1204,"x_min":53,"x_max":1131,"o":"m 646 69 q 664 49 664 60 q 623 29 664 31 q 555 25 597 29 q 494 22 494 24 l 498 22 q 432 58 441 22 q 425 96 429 71 q 424 125 424 102 q 422 140 424 139 l 422 146 q 441 350 422 180 q 454 426 453 419 q 458 449 456 433 q 464 488 461 463 q 469 517 468 515 q 450 521 469 521 q 422 519 449 519 q 408 524 408 519 q 482 640 422 579 q 600 730 536 703 q 567 734 589 734 q 514 733 515 734 q 475 729 481 729 q 441 733 453 729 q 431 749 431 737 q 447 920 436 842 q 453 1013 453 949 q 401 1008 429 1011 q 335 1007 336 1008 q 269 936 314 960 q 127 905 220 905 q 97 907 98 905 q 98 907 98 907 q 77 909 98 907 q 53 920 53 911 q 61 933 54 920 q 81 970 61 933 q 92 1034 92 1011 q 83 1083 92 1061 q 74 1108 79 1100 q 65 1129 68 1122 q 74 1139 65 1135 q 92 1143 87 1140 q 93 1145 92 1145 q 94 1146 93 1146 l 97 1146 l 102 1146 q 104 1149 103 1147 q 106 1149 106 1149 l 109 1149 l 113 1149 q 127 1150 126 1149 q 143 1152 142 1150 q 171 1153 144 1153 q 286 1131 249 1153 q 343 1044 343 1103 l 768 1079 q 843 1178 768 1152 q 975 1196 880 1196 l 997 1196 q 1013 1194 999 1194 q 1053 1181 1053 1192 q 1048 1171 1050 1179 q 1046 1162 1047 1165 q 1043 1156 1044 1158 q 1042 1149 1042 1153 q 1042 1147 1042 1147 q 1039 1141 1040 1146 q 1039 1137 1039 1139 q 1036 1135 1038 1136 q 1036 1132 1036 1135 q 1034 1129 1035 1131 q 1025 1079 1025 1096 q 1035 1025 1025 1042 q 1038 1022 1036 1023 q 1039 1019 1039 1021 q 1043 1013 1042 1014 q 1044 1011 1044 1011 q 1046 1008 1044 1010 q 1047 1006 1046 1007 q 1048 1003 1048 1004 q 1050 1000 1048 1002 q 1059 986 1053 990 q 1029 972 1059 983 q 921 957 983 957 q 823 975 857 957 q 766 1040 782 996 l 677 1036 l 642 772 q 720 807 717 804 q 854 829 774 829 q 1071 770 1007 829 q 1131 602 1131 717 q 1111 444 1131 549 q 1089 309 1105 424 q 1079 237 1084 271 q 1074 195 1074 203 q 1069 168 1071 171 q 1067 114 1068 114 l 1067 115 q 1069 72 1068 115 q 1083 46 1071 53 q 1101 28 1101 35 q 1086 16 1101 22 q 1048 7 1072 8 q 1036 5 1047 5 q 1023 4 1035 4 q 1013 3 1022 3 q 1007 1 1008 3 l 1004 1 q 972 -3 983 0 q 930 -4 971 -4 q 872 7 908 -4 q 850 35 851 17 q 846 66 846 61 q 879 315 846 104 q 884 345 880 328 q 890 380 886 359 q 896 424 893 403 q 900 456 897 431 q 907 503 904 490 q 911 526 908 504 q 922 614 920 581 q 935 711 935 692 q 929 753 935 747 q 911 778 924 766 q 860 791 882 791 q 728 724 796 791 q 642 597 668 668 q 668 583 642 593 q 694 571 694 574 q 653 361 671 468 q 632 218 632 257 l 632 135 q 646 69 635 87 z "},".":{"ha":557,"x_min":85,"x_max":286,"o":"m 86 25 l 86 53 l 86 74 q 85 90 85 75 l 85 129 q 119 201 85 163 q 143 214 134 207 q 154 220 154 218 q 193 224 161 221 q 227 225 195 225 l 285 220 l 285 180 q 286 160 285 161 l 286 138 l 286 109 l 286 94 q 285 78 285 93 q 283 75 285 77 q 282 72 283 72 q 281 66 281 71 q 279 61 279 65 l 279 60 l 278 60 l 278 58 l 265 45 l 233 32 l 215 31 q 210 29 214 29 q 204 28 205 29 q 193 26 195 28 q 179 25 192 25 l 86 25 z "},"/":{"ha":386,"x_min":-3,"x_max":386,"o":"m -3 -17 l 244 1011 l 386 1011 l 139 -17 l -3 -17 z "},"~":{"ha":1042,"x_min":36,"x_max":977,"o":"m 36 937 q 40 962 37 942 q 47 993 41 979 q 53 1044 53 1007 l 53 1048 q 39 1101 53 1084 q 45 1133 40 1132 q 43 1137 45 1136 q 41 1139 41 1139 q 58 1165 41 1141 q 93 1171 71 1171 l 92 1171 l 89 1171 q 121 1174 89 1173 l 135 1174 q 231 1157 187 1174 q 294 1071 289 1129 l 743 1105 q 823 1208 757 1182 q 933 1231 865 1227 l 965 1232 q 970 1225 965 1231 q 977 1198 975 1219 l 961 1124 q 972 1064 972 1101 q 925 996 972 996 l 926 996 q 907 999 926 996 l 892 999 q 810 1014 847 999 q 753 1075 762 1034 l 293 1038 q 195 942 285 972 q 50 921 147 924 l 43 921 l 36 937 m 135 236 l 135 261 l 135 294 l 135 342 l 135 355 q 147 504 135 396 q 183 652 163 618 q 310 782 243 741 q 501 831 400 827 q 574 832 503 832 q 679 828 618 832 q 775 783 750 817 q 818 711 808 747 q 831 628 829 681 q 832 550 832 627 q 831 490 831 549 l 831 481 l 831 471 l 831 465 q 827 354 831 432 q 819 231 819 268 l 819 199 q 815 182 815 199 q 814 171 814 180 l 814 161 q 812 151 812 160 l 812 144 q 814 134 814 143 q 812 122 814 122 q 825 93 825 111 q 828 86 825 89 q 839 69 832 83 q 846 57 840 58 q 873 33 873 47 q 796 16 873 16 q 717 9 753 16 q 697 8 715 8 q 689 7 696 7 q 673 5 675 7 l 667 5 l 669 5 l 661 5 q 623 12 657 5 q 599 39 608 18 q 593 82 599 58 l 593 103 q 599 203 593 171 q 600 221 599 220 q 602 239 600 237 q 606 289 604 254 q 607 318 606 317 q 608 334 608 319 q 610 347 608 346 q 611 364 611 349 q 610 379 610 366 q 615 490 610 461 q 619 603 619 550 l 619 624 q 593 739 616 693 q 504 791 567 787 q 492 793 503 793 l 485 793 q 376 715 412 789 q 342 490 342 644 q 343 441 342 443 q 342 408 343 410 l 342 370 q 336 297 340 315 l 336 231 l 336 178 l 336 160 l 336 139 q 346 79 338 117 q 375 49 351 56 q 396 31 396 37 l 396 29 q 379 12 396 20 q 322 3 370 4 l 269 1 q 248 0 268 0 q 236 -1 237 0 q 225 -3 227 -1 l 218 -3 q 174 5 191 -3 q 147 50 155 16 q 136 157 139 82 q 135 236 135 158 z "},"!":{"ha":471,"x_min":126,"x_max":363,"o":"m 126 818 l 126 836 q 158 930 126 888 q 244 968 192 968 q 354 903 318 968 q 363 847 363 867 l 361 829 l 265 339 l 220 339 q 189 579 212 467 q 161 703 178 636 q 126 818 149 751 m 243 221 q 326 189 296 221 q 359 106 359 158 q 326 26 359 62 q 245 -9 296 -9 q 160 24 197 -9 q 126 109 126 56 q 141 161 126 134 q 183 204 157 189 q 243 221 211 221 z "},"@":{"ha":1047,"x_min":207,"x_max":694,"o":"m 250 832 l 244 839 l 243 850 l 250 880 l 252 882 l 368 889 l 476 889 q 529 893 485 889 q 555 896 549 895 q 567 896 564 896 l 581 896 l 578 896 l 694 890 l 694 843 q 643 842 692 842 q 593 840 636 840 q 541 839 590 839 q 486 838 490 839 q 386 836 390 838 l 389 836 l 392 836 q 376 836 387 836 q 336 833 364 835 q 250 832 253 833 m 359 724 q 363 726 361 725 q 367 730 366 726 q 371 733 368 732 q 374 736 372 734 q 376 737 375 737 q 380 743 376 739 q 385 749 383 746 q 389 751 387 750 q 416 760 404 755 q 419 761 416 760 q 422 761 421 761 q 425 762 425 761 q 441 766 437 764 l 498 766 l 541 749 l 579 703 l 587 668 q 586 615 587 616 q 575 576 583 606 q 550 536 571 572 l 529 526 q 507 513 525 522 q 498 507 498 509 q 494 504 496 504 q 486 498 489 498 l 406 500 l 345 524 l 336 543 l 329 545 l 317 610 l 332 694 q 336 699 334 696 q 338 700 338 699 q 339 701 339 700 q 340 703 340 701 q 342 704 342 703 q 343 705 343 704 q 345 707 345 705 q 347 710 346 708 q 349 711 347 710 q 350 714 350 713 q 353 717 351 715 q 355 721 354 718 q 359 724 357 722 m 425 432 q 485 416 464 427 q 500 408 492 410 q 509 403 503 406 q 515 400 515 401 q 517 397 517 399 l 543 357 l 550 319 q 549 300 549 313 q 547 285 547 297 q 546 278 547 281 q 545 273 546 275 q 533 244 538 257 q 526 229 528 232 q 505 201 515 208 q 476 176 504 200 l 411 164 l 392 167 q 376 172 385 167 q 349 182 364 174 q 323 196 346 182 l 319 204 q 318 207 318 205 q 315 210 317 208 q 314 212 315 211 q 311 214 313 212 q 310 216 311 215 q 307 220 310 216 q 306 222 306 221 q 302 222 304 222 q 301 225 301 224 q 298 227 300 225 q 297 228 298 228 q 296 241 296 229 l 296 252 q 294 261 294 253 q 293 264 293 262 l 293 268 q 292 272 292 269 q 290 283 290 273 q 289 288 289 285 l 289 289 q 293 310 289 290 q 297 329 294 326 q 298 333 297 332 q 300 338 300 335 q 301 343 300 342 q 302 347 301 346 q 306 349 306 349 l 304 349 q 307 358 307 358 q 311 368 310 358 l 345 408 l 358 415 q 425 432 385 427 m 545 96 l 667 92 l 667 75 l 652 56 q 595 54 602 56 q 562 53 566 54 l 515 53 q 469 52 511 52 l 340 52 q 264 47 315 50 q 225 46 229 47 q 207 45 208 46 l 210 45 q 208 66 210 65 q 207 89 207 68 q 225 90 221 89 q 264 92 252 90 q 307 93 268 93 q 408 96 338 96 l 476 96 l 545 96 z "},"#":{"ha":1181,"x_min":62,"x_max":1007,"o":"m 161 785 l 572 785 q 574 791 574 786 q 575 799 575 793 q 576 804 575 803 q 578 807 578 806 l 578 808 q 579 815 579 810 q 581 823 579 822 q 590 888 590 847 l 590 886 q 587 922 589 886 q 570 942 581 933 q 545 966 545 956 q 596 982 545 982 q 663 986 610 982 q 715 987 667 987 q 737 989 717 989 l 734 989 l 733 989 q 747 987 745 989 q 781 986 774 987 q 804 971 796 982 q 821 913 821 950 q 800 796 821 872 q 778 705 778 736 l 778 699 q 779 694 779 697 l 781 694 l 781 693 q 818 679 786 679 q 880 686 818 681 q 897 689 886 688 q 914 690 905 690 q 928 693 924 692 q 937 693 932 693 l 949 693 q 986 688 979 693 q 1007 665 1002 681 q 979 511 1006 665 q 954 412 964 457 q 947 379 951 400 q 936 338 942 358 q 921 265 932 315 q 893 83 893 122 q 903 41 893 49 q 926 17 926 28 q 899 1 926 7 q 864 -3 890 0 q 850 -4 851 -3 q 836 -5 838 -4 q 825 -7 827 -5 q 814 -8 815 -7 q 794 -9 807 -9 q 787 -11 789 -9 l 789 -11 q 765 -12 787 -12 q 753 -14 754 -12 l 747 -14 q 681 -1 703 -14 q 656 29 659 11 q 652 60 652 46 q 679 237 652 78 q 685 258 679 241 q 690 285 690 272 q 703 342 696 314 q 736 490 713 376 q 765 653 765 611 q 730 671 765 671 l 732 671 q 652 664 732 669 q 602 659 637 659 q 558 668 572 659 q 547 689 547 675 l 547 700 q 557 741 551 733 q 567 760 564 755 l 387 755 q 326 624 387 689 q 151 551 258 551 q 81 555 151 553 q 62 566 62 557 q 102 614 90 604 q 123 656 117 637 q 134 730 129 665 q 161 785 136 785 z "},"$":{"ha":689,"x_min":39,"x_max":643,"o":"m 62 56 l 61 268 l 89 268 q 135 151 106 203 q 203 71 157 109 q 290 40 241 40 l 290 380 q 39 679 39 492 q 290 914 39 875 l 290 1002 l 366 1002 l 366 917 q 475 895 454 901 q 582 848 525 880 l 583 656 l 554 656 q 513 764 536 717 q 436 846 484 808 q 366 868 397 863 l 366 576 l 510 497 q 607 399 572 463 q 643 256 643 329 q 616 139 643 180 q 550 66 589 93 q 479 29 501 37 q 444 20 473 29 q 414 11 437 18 q 366 -3 390 4 l 366 -134 l 290 -134 l 290 -3 l 150 20 l 62 56 m 290 614 l 290 868 l 231 854 q 170 754 170 817 q 200 671 170 701 q 290 614 229 643 m 366 328 l 366 32 q 463 78 425 40 q 494 176 494 115 q 489 222 494 212 q 465 261 488 231 l 366 328 z "},"%":{"ha":1053,"x_min":33,"x_max":965,"o":"m 204 -22 l 661 812 q 555 793 576 793 q 432 810 490 793 l 433 714 q 424 668 424 685 q 416 643 424 668 q 406 611 415 643 q 404 606 406 607 q 403 603 404 604 l 403 600 q 403 599 403 600 q 400 596 401 597 q 396 585 399 587 q 395 579 396 581 q 392 574 395 579 q 353 517 383 551 q 283 465 323 489 q 210 444 243 444 q 122 468 168 444 q 58 533 79 492 q 33 625 33 572 q 58 751 33 696 q 122 847 85 806 q 203 907 161 886 q 282 926 248 926 q 355 914 334 926 q 399 882 396 885 q 461 844 431 854 q 538 831 492 831 q 726 916 659 831 q 768 939 746 939 q 796 936 768 937 l 268 -22 l 204 -22 m 339 786 q 315 890 339 846 q 309 900 313 896 q 293 901 306 901 q 288 903 292 903 q 265 901 267 903 q 170 785 207 865 q 132 618 132 705 q 134 596 132 597 q 135 583 135 595 q 136 579 136 582 l 136 561 q 140 533 136 545 q 144 524 142 529 q 146 517 144 518 q 153 496 150 510 l 172 473 l 178 471 l 178 473 l 187 473 q 196 472 189 472 q 203 473 201 472 l 212 473 q 245 507 236 493 q 268 534 264 525 q 281 558 281 557 q 289 581 285 564 q 290 585 289 583 q 292 587 292 586 q 293 589 292 587 l 293 590 q 294 594 293 593 q 298 604 296 596 q 302 614 300 608 q 304 618 304 615 q 306 621 306 619 q 307 625 307 623 q 309 629 309 627 q 311 633 310 629 q 314 636 313 635 q 314 637 314 636 l 314 640 q 318 651 317 648 q 321 656 319 654 q 322 660 321 659 q 325 675 323 675 q 328 686 325 675 q 329 699 329 689 q 335 743 335 725 q 339 786 339 777 m 728 436 q 825 460 785 460 q 921 415 876 460 q 965 278 965 370 q 940 143 965 211 q 861 26 914 72 q 730 -21 810 -21 q 642 7 688 -21 q 581 79 604 32 q 558 165 558 117 q 576 261 558 222 q 633 361 596 315 q 728 436 668 404 m 798 429 l 787 429 q 775 414 787 429 q 770 408 775 414 l 770 407 l 768 407 q 766 406 768 406 q 765 404 766 406 q 726 357 757 397 q 677 262 694 310 q 657 170 661 216 q 661 134 657 160 q 667 109 665 110 q 669 87 667 109 q 679 56 673 61 q 694 29 682 41 q 696 22 694 24 q 697 16 696 17 q 704 9 700 11 q 707 8 705 8 q 708 5 707 7 q 711 3 710 4 q 714 1 711 1 q 715 0 715 0 l 717 0 l 725 0 q 724 0 724 0 q 734 3 724 0 q 741 4 739 3 q 745 5 743 4 q 757 9 754 7 q 812 86 786 36 q 838 135 835 122 q 865 262 864 179 q 867 298 867 264 l 867 297 q 864 336 867 297 q 856 376 863 358 q 825 428 840 414 q 798 429 823 429 z "},"^":{"ha":884,"x_min":225,"x_max":677,"o":"m 225 741 l 239 793 l 347 799 l 428 798 l 427 798 q 456 800 427 799 q 469 803 469 803 l 479 803 l 489 803 q 585 808 504 807 q 615 810 595 810 q 637 811 632 810 q 660 812 656 811 q 668 814 664 814 l 677 814 l 667 761 q 436 747 484 747 q 307 743 389 746 q 265 742 302 742 q 225 741 229 742 m 307 632 q 412 673 358 669 q 454 677 439 677 l 509 671 l 509 653 l 509 635 l 509 623 q 510 606 510 621 l 503 595 l 501 568 q 486 486 498 515 q 484 485 485 485 q 482 484 484 485 q 481 482 482 484 q 475 476 481 482 q 471 471 472 476 q 465 464 469 469 q 456 450 463 458 q 376 433 421 433 q 281 475 332 433 l 289 478 l 278 484 l 281 494 q 279 509 279 496 q 278 521 278 510 q 277 530 277 522 q 275 582 275 532 l 307 632 m 419 343 l 484 339 l 488 339 l 490 340 l 489 309 l 492 275 l 492 215 q 481 167 492 215 l 464 147 q 450 138 461 144 q 447 136 450 138 q 439 131 446 135 q 435 129 436 131 q 433 127 435 127 l 375 122 l 306 139 l 300 144 l 296 146 l 275 200 l 281 272 q 289 283 283 278 q 293 289 290 286 q 294 292 294 290 q 307 309 306 304 q 318 319 307 309 q 321 321 319 321 q 322 322 321 321 q 325 323 323 323 q 326 325 325 323 q 328 326 326 325 q 329 328 328 326 q 330 329 329 328 q 371 339 355 339 q 419 343 389 343 z "},"&":{"ha":847,"x_min":37,"x_max":819,"o":"m 429 300 l 429 297 q 446 285 429 289 q 490 279 456 279 l 496 279 q 515 281 514 279 q 533 282 532 281 q 545 283 534 283 q 555 285 546 285 q 604 339 555 307 q 721 375 643 374 l 736 375 q 783 371 771 375 q 799 354 798 367 q 787 317 798 354 q 775 254 775 283 l 775 253 q 798 210 775 232 q 819 179 819 183 q 802 165 819 170 q 736 157 794 163 l 725 157 q 600 183 640 157 q 557 258 557 208 q 414 240 505 257 q 347 235 350 236 q 329 233 343 233 l 318 235 q 321 235 321 235 q 278 237 321 235 q 239 252 254 241 q 216 294 216 261 l 216 296 q 271 452 216 340 q 318 549 317 546 q 326 567 319 553 q 340 592 334 579 q 351 614 347 606 q 364 637 358 629 q 370 648 367 642 q 375 661 374 657 q 427 828 427 766 l 427 829 l 427 840 q 425 847 425 842 q 424 851 424 848 l 424 852 q 403 872 422 864 q 347 879 368 879 l 340 879 l 315 879 q 296 878 314 878 l 296 869 q 294 848 296 850 q 236 737 286 779 q 158 696 197 708 q 74 681 97 681 l 71 681 q 37 694 37 681 q 47 711 37 701 q 71 750 64 724 q 72 789 71 782 q 74 798 74 793 l 74 800 l 74 802 l 74 800 l 74 808 l 74 838 q 72 865 72 839 l 72 867 q 81 890 72 889 q 252 903 153 890 q 507 932 454 929 l 515 932 q 579 925 526 932 q 629 892 607 920 q 647 831 644 864 l 647 828 q 597 648 647 762 q 496 449 549 545 q 429 300 435 336 m 183 1143 l 730 1157 l 732 1157 q 741 1152 741 1157 q 739 1145 739 1150 q 737 1136 737 1143 q 736 1129 737 1131 q 734 1122 734 1128 q 733 1095 733 1121 l 733 1089 q 742 1060 733 1074 q 747 1047 742 1053 q 749 1046 749 1046 q 750 1044 749 1046 l 750 1043 q 753 1038 751 1043 q 757 1028 754 1034 l 757 1026 q 747 1018 757 1022 q 708 1014 737 1014 l 699 1014 q 599 1031 629 1014 q 547 1120 553 1053 l 353 1109 q 297 1023 347 1050 q 204 999 258 1002 l 199 999 q 154 1007 170 999 q 139 1018 140 1014 q 147 1026 144 1023 q 161 1043 149 1029 q 171 1074 171 1057 q 168 1100 171 1074 q 164 1125 167 1105 q 183 1143 164 1140 m 121 79 q 345 89 179 79 q 386 90 359 90 q 429 92 414 90 q 536 96 500 93 q 669 102 604 97 q 685 87 684 102 q 682 62 685 87 q 681 41 681 58 q 679 29 679 39 l 679 28 q 689 -5 679 8 q 694 -12 694 -7 q 700 -22 696 -18 q 704 -29 703 -25 q 705 -31 705 -31 q 707 -33 705 -32 q 708 -35 708 -35 q 710 -39 708 -36 q 682 -49 710 -47 q 665 -50 667 -49 q 653 -52 664 -52 l 647 -52 q 545 -25 585 -52 q 503 65 503 3 l 294 61 q 240 -36 282 -7 q 149 -61 204 -61 l 142 -61 l 144 -61 l 147 -61 q 98 -58 147 -60 q 72 -47 72 -57 q 97 -20 72 -47 q 113 9 111 -5 l 113 18 q 111 33 113 32 q 110 47 111 46 q 109 60 110 58 l 109 61 q 121 79 109 79 z "},"*":{"ha":1014,"x_min":49,"x_max":965,"o":"m 315 1136 q 343 1137 325 1136 q 371 1140 361 1139 q 390 1140 379 1140 q 411 1141 401 1141 l 407 1141 l 436 1141 q 505 1145 444 1145 q 642 1146 624 1145 l 782 1146 q 839 1147 787 1147 q 852 1135 852 1147 q 846 1108 851 1135 q 840 1076 840 1100 l 840 1071 q 857 1039 842 1053 q 871 1017 871 1021 q 856 1010 871 1013 q 828 1006 838 1006 q 802 1004 827 1004 q 710 1023 746 1004 q 664 1111 664 1050 l 465 1111 q 467 1095 467 1111 q 418 1013 467 1040 q 330 993 371 993 q 301 997 317 993 q 279 1003 293 999 q 272 1010 272 1006 q 288 1026 272 1011 q 300 1060 297 1043 q 301 1068 301 1061 q 298 1086 300 1068 q 297 1103 297 1088 q 296 1111 297 1109 l 297 1114 l 297 1112 q 315 1136 297 1133 m 179 90 q 260 94 201 92 q 457 103 279 94 l 467 103 q 486 104 482 103 q 525 106 517 104 q 568 107 562 106 q 607 109 606 107 q 728 114 652 109 q 739 98 739 114 q 737 72 739 74 q 733 45 733 56 l 734 46 q 734 45 734 46 q 736 21 734 40 q 753 -11 737 1 q 765 -32 765 -29 q 753 -41 765 -39 q 739 -43 751 -43 q 724 -45 725 -43 q 697 -46 722 -46 q 614 -26 652 -46 q 562 72 570 5 l 342 60 q 285 -36 342 -4 q 183 -57 245 -57 q 155 -56 157 -57 q 146 -54 147 -56 q 136 -53 138 -54 q 126 -45 126 -52 q 146 -24 126 -43 q 168 8 165 -1 q 172 35 172 21 q 171 57 172 56 q 170 65 171 64 q 168 75 170 74 q 179 90 168 90 m 951 913 q 962 900 962 913 q 950 857 962 892 q 937 807 937 819 q 947 762 937 781 q 965 715 960 724 q 943 704 965 704 q 917 703 942 703 q 785 747 825 703 q 745 876 745 796 l 639 875 q 627 751 629 758 q 608 581 621 711 l 608 566 q 603 511 608 561 q 587 357 587 415 l 608 357 q 653 358 610 358 q 741 359 729 358 l 818 359 q 850 361 821 361 l 848 361 q 871 350 871 361 q 869 345 869 349 q 868 336 868 342 q 865 328 865 328 q 861 317 864 318 q 860 311 861 313 q 859 306 860 307 q 852 254 852 290 q 864 207 852 237 q 865 205 865 205 q 867 204 865 205 q 868 200 867 201 q 871 195 868 200 q 873 191 871 193 q 875 187 875 189 q 876 184 876 186 q 880 178 879 179 q 884 174 880 175 q 885 171 884 174 q 886 168 885 170 q 864 155 886 160 q 843 154 863 154 q 726 182 785 154 q 640 319 650 221 l 300 315 q 232 200 289 236 q 121 174 195 174 l 123 174 l 126 174 l 129 174 q 115 175 125 174 q 82 176 106 175 q 56 183 57 178 q 49 189 49 184 q 53 196 49 191 q 85 249 83 231 q 86 273 86 250 l 85 281 l 85 279 l 85 282 q 83 317 85 304 q 78 336 78 328 q 90 343 78 343 l 111 343 q 151 345 113 345 q 236 346 229 345 q 376 353 355 347 q 396 500 385 418 q 401 544 399 526 q 406 578 404 562 q 408 608 408 608 q 412 637 410 618 q 414 650 414 640 q 415 656 415 652 q 416 661 416 657 q 418 673 416 671 q 429 737 425 724 q 433 782 432 768 q 436 811 435 798 q 440 843 437 825 q 441 857 441 844 q 443 871 443 860 l 340 872 q 317 787 335 827 q 267 730 300 755 q 160 701 222 701 q 151 703 153 701 q 129 704 132 703 q 115 705 127 705 q 79 718 79 713 q 114 757 86 722 q 129 796 126 782 q 131 814 131 799 q 132 821 132 815 l 132 819 l 132 832 l 132 831 q 129 865 132 831 q 125 893 126 871 q 140 901 125 901 l 139 901 q 205 903 196 901 l 249 903 l 293 903 q 329 904 325 903 q 389 905 330 905 q 457 908 436 908 q 553 909 461 909 q 654 911 561 911 l 875 911 q 965 913 888 913 l 951 913 z "},"(":{"ha":463,"x_min":56,"x_max":446,"o":"m 446 1038 l 446 1007 q 343 917 374 956 q 269 760 297 864 q 237 428 237 618 q 267 117 237 239 q 301 17 282 61 q 347 -64 319 -28 q 446 -147 383 -117 l 446 -180 q 170 43 285 -127 q 85 224 113 125 q 56 432 56 321 q 85 637 56 546 q 170 817 113 730 q 446 1038 282 983 z "},")":{"ha":463,"x_min":17,"x_max":408,"o":"m 17 -180 l 17 -150 q 121 -58 87 -103 q 195 97 167 1 q 227 429 227 237 q 220 606 227 509 q 197 742 214 671 q 115 921 165 863 q 17 1004 79 970 l 17 1038 q 294 814 179 983 q 408 425 408 654 q 294 41 408 201 q 17 -180 180 -126 z "},"_":{"ha":914,"x_min":57,"x_max":786,"o":"m 183 942 l 170 950 l 155 949 q 160 961 158 957 q 163 969 161 962 q 165 981 164 977 q 174 1010 168 987 q 175 1022 175 1013 q 176 1036 175 1034 q 178 1048 176 1047 q 179 1053 178 1051 l 179 1057 q 180 1061 179 1060 q 182 1069 180 1068 q 253 1074 212 1071 q 283 1076 271 1075 q 313 1080 293 1078 q 415 1088 380 1082 l 412 1088 q 449 1090 412 1089 q 464 1093 460 1092 q 473 1093 468 1093 l 485 1093 q 493 1096 490 1095 q 497 1096 494 1096 l 505 1096 l 525 1096 q 532 1097 526 1097 q 543 1099 539 1097 l 550 1099 q 564 1100 554 1100 q 579 1101 574 1100 q 616 1103 610 1101 q 652 1105 652 1104 l 650 1105 l 652 1105 q 676 1103 652 1104 q 684 1101 677 1101 q 692 1100 685 1100 l 696 1100 q 701 1099 697 1099 l 697 1054 l 713 1011 l 714 989 l 647 977 l 581 986 l 568 994 q 566 997 568 994 l 566 999 l 564 999 q 562 1002 562 1000 q 559 1003 561 1003 q 557 1004 558 1004 q 543 1019 545 1017 q 510 1076 534 1034 q 498 1075 505 1075 q 486 1074 492 1075 q 471 1072 475 1072 q 465 1071 467 1071 l 467 1071 q 468 1071 468 1071 q 446 1068 468 1071 q 428 1067 429 1068 l 416 1067 q 401 1065 412 1065 q 389 1064 390 1065 q 359 1063 375 1063 q 349 1061 350 1063 l 338 1019 l 310 977 l 248 946 l 183 942 m 754 896 l 762 901 l 771 896 l 775 896 l 786 896 q 777 860 777 869 q 772 823 777 860 q 761 814 766 819 q 760 812 760 812 q 758 811 758 811 q 757 810 757 810 q 755 808 755 810 q 754 807 754 808 q 753 806 753 807 q 751 804 753 806 q 749 802 750 803 q 736 790 739 791 q 732 786 733 787 q 729 783 730 785 q 689 742 696 753 l 708 704 l 711 663 q 713 633 713 659 q 708 562 713 587 l 708 561 l 708 546 q 704 514 705 538 q 700 488 701 496 q 699 476 699 484 q 697 461 699 468 q 677 418 693 443 q 667 396 668 404 q 661 387 663 389 q 656 379 660 385 q 651 374 654 376 q 648 370 648 371 q 646 366 647 367 q 642 359 644 364 q 636 349 637 353 q 632 345 633 346 q 631 342 631 343 q 628 339 629 340 q 623 329 627 329 q 593 309 623 329 q 562 285 578 292 q 504 256 529 262 l 428 239 l 351 239 q 275 256 275 254 q 243 265 261 256 q 200 282 220 272 q 195 275 196 278 q 191 271 193 273 q 189 268 189 269 q 186 265 187 267 q 183 262 184 264 q 180 261 182 262 q 179 260 179 261 q 176 257 178 258 q 175 256 175 257 q 174 254 174 256 q 172 253 174 254 q 170 250 171 252 q 155 236 157 237 q 146 225 154 233 q 117 195 146 225 q 110 187 114 192 q 103 180 107 183 q 100 176 102 179 q 94 172 97 175 q 57 179 69 176 q 58 182 58 180 q 60 186 58 184 q 61 191 61 187 q 62 195 61 193 q 64 201 64 196 q 65 204 64 203 q 66 208 66 205 q 75 235 75 235 q 98 257 94 256 q 119 277 115 267 q 122 279 121 278 q 123 281 122 281 q 125 282 123 282 q 135 289 135 289 q 138 292 136 290 q 139 293 139 292 q 140 294 140 293 q 149 302 144 296 q 157 309 149 304 q 160 311 158 310 q 161 313 160 311 q 163 314 163 314 q 164 315 164 315 l 139 395 l 136 476 l 143 571 q 168 644 155 612 q 174 667 174 659 q 180 676 175 667 q 182 679 182 677 q 183 684 182 682 q 184 686 184 685 q 186 688 184 688 q 187 692 186 690 q 191 699 189 692 q 207 730 205 729 l 262 794 q 340 833 336 829 q 375 842 353 836 q 418 854 403 847 q 490 850 490 851 l 492 850 q 528 846 497 850 q 554 842 549 842 q 562 840 557 840 q 586 829 574 838 l 589 829 q 590 829 590 829 q 593 827 591 828 q 597 825 596 827 q 600 823 599 825 q 602 822 600 823 q 608 818 606 821 q 611 817 610 817 q 627 812 625 814 q 636 810 636 810 q 643 806 639 807 l 647 806 q 646 806 646 806 q 653 803 646 806 q 657 802 656 803 q 659 800 659 802 q 663 804 661 803 q 665 807 664 806 q 668 810 667 808 q 671 814 669 811 q 673 817 672 815 q 675 818 673 817 q 677 819 676 819 q 679 821 677 819 q 686 828 681 821 q 690 832 689 831 q 694 836 693 835 q 697 839 697 839 q 701 843 699 840 q 704 846 703 844 q 705 847 704 846 q 707 848 705 847 q 710 850 708 850 q 711 852 710 851 q 714 856 713 854 q 715 857 715 857 q 717 859 717 859 q 718 860 718 860 q 721 863 720 861 q 722 864 722 864 q 724 865 724 865 q 725 867 724 867 q 726 868 725 868 q 728 869 726 868 q 730 871 729 871 q 732 872 730 871 q 733 873 732 872 q 734 875 733 873 q 736 876 734 875 q 737 878 736 876 q 743 884 741 880 q 746 886 745 885 q 747 888 747 888 q 749 889 749 889 q 750 890 750 890 q 751 892 751 892 q 753 893 753 893 q 754 896 753 895 m 528 746 l 511 817 l 482 831 l 453 831 l 437 831 q 436 829 436 831 q 435 828 435 829 q 433 827 435 828 q 432 825 433 827 q 427 819 431 823 q 419 812 421 814 q 418 811 418 811 q 416 810 416 810 q 415 808 415 810 q 414 807 414 808 q 412 806 412 807 q 411 804 411 806 q 410 803 410 804 q 408 802 408 803 q 407 800 407 802 q 406 799 406 800 q 404 798 406 799 q 403 796 403 798 q 400 794 401 796 q 399 793 400 793 q 397 791 399 791 q 396 790 397 790 q 393 787 395 789 l 338 633 l 326 482 l 336 484 l 349 490 q 374 514 368 510 q 382 522 378 521 q 389 530 383 525 q 393 534 389 530 q 400 542 396 538 q 415 554 406 547 q 429 568 416 559 q 433 572 432 571 q 435 575 433 574 q 437 578 436 576 q 439 579 437 579 q 482 625 454 595 q 511 656 489 633 q 528 673 515 661 l 528 746 m 529 608 l 525 608 l 524 607 l 522 607 l 521 606 q 460 543 504 587 q 425 507 429 513 q 372 457 403 488 q 322 410 342 427 l 315 342 l 332 277 l 370 262 l 406 264 l 450 300 q 454 307 454 307 q 458 314 456 309 q 463 322 461 317 q 465 328 464 326 q 468 332 467 329 q 472 340 469 339 q 475 346 472 340 q 479 351 475 347 q 517 481 507 424 l 517 490 q 519 493 518 492 q 519 494 519 493 l 519 497 l 519 505 q 521 517 521 507 l 521 519 q 525 566 522 533 q 528 583 525 566 q 529 608 529 587 m 640 115 l 650 114 q 663 110 656 113 q 681 106 667 109 l 675 58 l 682 36 q 694 -8 688 3 l 632 -5 l 571 -14 q 532 12 534 9 q 522 20 528 16 q 515 26 518 24 q 507 31 511 28 q 496 82 504 46 q 400 72 414 72 q 326 65 354 69 q 318 46 319 54 q 311 28 314 32 q 290 -8 301 8 q 269 -20 288 -11 q 253 -26 258 -24 q 245 -28 250 -28 q 244 -29 244 -29 q 243 -29 243 -29 q 222 -35 236 -29 q 197 -40 203 -36 q 160 -33 186 -36 l 161 -33 q 144 -31 161 -32 q 122 -26 126 -29 q 125 -20 123 -22 q 127 -11 125 -17 q 132 -1 129 -7 q 134 3 134 3 q 138 8 136 7 q 139 13 138 11 q 140 17 140 16 q 142 20 142 18 q 143 24 142 22 q 144 29 144 25 q 149 47 146 33 q 151 60 149 47 q 153 66 153 61 q 154 72 153 71 q 286 87 214 79 q 397 98 382 97 q 440 102 401 98 q 458 104 452 103 q 472 104 464 104 q 496 107 486 106 q 519 107 507 107 q 640 115 637 115 z "},"+":{"ha":811,"x_min":58,"x_max":753,"o":"m 318 143 l 318 400 l 58 400 l 58 579 l 318 579 l 318 839 l 492 839 l 492 579 l 753 579 l 753 400 l 492 400 l 492 143 l 318 143 z "},"Q":{"ha":1139,"x_min":52,"x_max":1021,"o":"m 672 755 q 758 768 742 766 q 829 775 765 774 l 848 775 q 958 755 914 775 q 1021 653 1019 725 l 1021 650 q 1015 600 1021 614 q 901 457 997 509 q 724 403 840 422 q 627 395 682 397 q 614 283 619 325 q 600 142 600 196 l 600 140 l 600 119 q 599 107 599 118 l 599 103 q 608 57 600 74 q 627 35 614 43 q 652 17 652 26 q 618 -1 652 7 q 550 -14 572 -7 q 486 -22 504 -21 l 475 -22 q 412 -12 435 -22 q 378 31 385 0 q 376 46 376 32 l 376 61 q 389 214 376 109 q 410 357 389 214 q 363 350 392 351 q 339 346 343 347 q 323 343 325 343 q 252 335 289 338 l 231 335 q 118 354 168 335 q 52 457 56 383 l 52 467 q 53 479 52 478 q 220 667 58 603 q 447 713 336 708 q 460 804 450 720 q 465 897 465 825 l 465 911 q 437 974 464 960 q 411 993 411 983 q 416 1002 411 1000 q 443 1011 422 1007 q 450 1013 449 1011 q 458 1014 457 1013 q 468 1015 460 1015 q 476 1017 475 1015 q 485 1018 478 1018 q 510 1022 504 1019 q 517 1023 515 1022 q 525 1025 524 1023 q 534 1028 532 1026 q 541 1028 538 1028 l 550 1028 l 568 1028 q 591 1029 574 1029 q 621 1031 593 1031 q 633 1029 632 1031 q 671 1019 661 1025 q 689 951 688 1008 q 690 933 690 950 q 686 854 690 890 q 677 791 679 815 q 676 779 677 781 l 676 772 q 675 770 675 771 q 673 762 675 764 q 672 755 673 757 m 633 422 q 660 421 635 421 q 721 435 679 425 q 778 492 764 468 q 804 596 804 529 l 804 606 q 783 686 802 654 q 750 717 772 707 q 707 725 732 725 l 701 725 q 696 724 697 725 q 682 722 684 724 q 665 721 681 721 l 633 422 m 290 611 q 262 551 278 602 q 254 486 254 519 l 254 478 q 281 408 257 429 q 357 387 313 387 l 364 387 q 386 392 378 390 q 392 395 389 393 q 397 395 395 395 q 401 396 399 396 q 407 397 404 396 q 411 397 410 397 l 441 679 q 429 681 440 681 l 418 681 q 358 667 406 679 q 290 611 319 648 z "},"W":{"ha":1202,"x_min":75,"x_max":1071,"o":"m 75 269 q 77 302 75 301 q 119 511 83 406 q 222 673 154 614 q 297 728 253 704 q 403 768 347 753 q 599 810 475 796 q 611 811 610 810 q 624 812 623 811 q 632 814 631 812 q 647 815 646 814 q 686 819 677 819 q 697 821 688 821 q 707 822 699 822 l 705 822 q 733 825 705 823 l 770 819 q 768 818 768 819 q 765 817 766 818 q 764 815 764 817 q 762 814 762 815 q 758 810 760 811 q 754 807 755 807 q 761 812 755 807 q 772 817 766 817 q 793 811 778 811 q 847 822 793 812 q 916 833 916 833 q 957 829 939 833 q 1053 722 1026 811 q 1071 581 1071 684 q 1069 532 1071 533 q 1047 363 1065 419 q 1011 256 1031 293 q 946 196 1003 244 q 875 155 897 160 q 714 136 851 146 q 543 118 559 127 q 437 89 497 107 q 321 52 351 62 q 290 47 296 50 q 260 46 289 46 q 153 68 186 46 q 93 142 109 90 q 75 269 75 179 m 296 245 q 297 203 296 204 q 322 135 298 168 q 374 110 342 110 q 422 129 396 110 q 450 176 443 146 q 496 476 457 212 q 526 761 519 640 q 397 675 450 761 q 330 492 361 614 q 318 431 323 472 q 315 416 318 431 l 315 410 l 315 407 q 315 406 315 406 q 313 403 314 404 q 306 370 313 403 q 297 275 298 336 q 296 245 296 273 m 659 236 q 685 189 665 204 q 728 172 704 172 q 782 189 751 172 q 817 227 807 205 q 852 353 839 262 q 871 518 867 401 q 872 567 872 522 q 873 587 873 568 l 873 586 q 869 672 873 625 q 846 750 868 734 q 794 786 828 781 q 768 782 783 782 q 741 778 757 782 q 713 635 729 736 q 696 522 697 557 q 684 439 692 486 q 675 382 676 414 q 668 319 669 361 q 667 310 667 318 q 665 298 665 309 q 664 288 665 289 q 663 277 664 278 q 661 253 661 275 q 660 245 660 252 l 660 244 l 659 236 z "},"E":{"ha":1389,"x_min":14,"x_max":1349,"o":"m 350 41 q 357 132 351 121 q 363 200 358 160 q 366 232 366 231 q 371 298 371 271 q 374 338 372 298 q 376 351 375 347 q 376 359 376 355 l 376 372 l 376 385 l 376 382 q 379 447 376 382 q 383 496 380 486 q 386 546 383 496 q 395 653 389 591 q 399 726 399 721 q 390 791 399 742 q 389 800 390 799 q 387 810 387 802 q 383 825 385 811 q 378 856 378 839 q 355 869 367 868 q 347 875 351 871 q 340 879 343 876 q 329 878 338 878 q 321 876 322 878 q 304 875 309 876 q 269 871 298 875 q 261 808 262 839 q 245 743 258 778 q 244 742 245 742 q 243 741 244 741 q 241 737 243 737 q 240 736 241 736 l 239 736 l 239 734 l 237 734 l 237 733 l 236 733 l 236 732 l 235 732 l 235 730 q 232 728 233 729 q 229 724 232 726 q 227 722 228 724 q 224 721 225 722 q 210 707 214 708 l 208 707 l 208 705 q 207 704 207 705 q 205 703 205 704 l 204 703 l 204 701 l 203 701 l 203 700 q 180 688 196 693 q 174 685 175 685 q 170 682 171 684 q 167 681 168 681 q 164 677 165 679 q 161 676 163 676 q 158 675 160 675 q 147 673 157 673 q 143 672 146 672 q 132 669 143 671 q 121 668 131 668 q 115 667 117 667 q 110 665 113 667 q 98 664 103 665 q 71 663 72 664 q 40 661 41 663 q 28 665 36 664 l 29 665 q 22 668 29 665 q 17 669 21 669 q 16 671 16 669 l 14 671 q 22 701 21 700 q 24 704 24 703 q 25 708 25 705 q 26 713 26 710 q 28 717 28 714 q 29 725 29 718 q 31 732 31 726 q 35 745 31 733 q 36 750 36 746 q 37 753 36 751 q 39 757 39 754 q 40 760 39 758 q 45 771 41 770 q 50 791 50 781 q 52 833 52 793 l 52 873 q 61 875 60 873 q 75 876 74 875 q 83 878 82 876 q 90 879 85 879 q 106 880 104 879 q 143 888 129 888 q 192 892 172 890 q 203 893 196 893 q 211 895 208 893 q 233 896 227 895 q 418 909 235 897 q 472 897 428 909 q 525 873 492 896 q 530 869 528 871 q 534 867 533 868 q 543 857 538 861 q 545 856 545 856 q 546 854 546 854 l 546 852 q 547 851 547 851 q 549 850 549 850 q 550 847 550 848 l 550 846 l 551 846 l 551 844 q 553 843 551 843 q 554 842 553 842 q 555 840 555 840 q 579 806 572 827 q 583 781 581 789 q 585 772 583 774 q 586 760 585 761 q 587 749 587 758 q 589 736 589 747 q 590 724 590 734 q 593 692 590 724 q 597 639 596 642 q 675 652 636 647 q 688 653 686 652 q 700 654 699 653 q 729 659 724 657 q 742 660 730 660 q 754 661 743 661 q 766 717 764 700 q 771 728 770 718 q 772 736 771 734 l 772 742 q 775 750 774 742 q 779 762 778 754 q 794 814 785 796 q 819 846 812 839 q 823 851 822 850 q 827 854 825 852 q 829 859 828 856 q 829 860 829 860 q 832 863 829 860 q 836 865 833 863 q 838 867 838 865 q 839 868 839 867 l 840 868 q 843 871 842 869 q 847 873 844 872 q 848 876 848 875 q 850 878 850 876 q 871 897 865 893 q 970 922 956 922 q 975 924 971 924 q 979 925 978 924 l 987 925 q 997 926 994 925 l 1002 926 q 1014 928 1011 926 q 1025 929 1023 928 q 1040 930 1038 929 q 1068 935 1063 932 q 1168 945 1150 943 q 1267 946 1169 946 q 1311 939 1287 946 l 1301 865 l 1314 806 l 1349 772 l 1348 745 l 1267 729 l 1189 730 q 1179 737 1186 734 q 1172 742 1175 741 q 1169 743 1169 743 q 1162 747 1168 745 q 1161 749 1161 749 q 1160 750 1161 749 l 1158 750 l 1157 750 q 1152 753 1157 751 q 1149 754 1150 753 q 1146 755 1146 754 q 1143 757 1145 755 q 1141 758 1143 757 q 1140 760 1141 758 q 1132 764 1137 761 q 1128 765 1131 765 l 1128 766 l 1126 766 q 1122 771 1126 770 q 1114 775 1121 774 q 1112 782 1112 777 q 1111 786 1111 783 q 1109 790 1111 789 q 1103 811 1108 790 q 1095 843 1097 828 q 1089 869 1095 861 q 1086 889 1089 869 q 1082 909 1083 908 q 1057 900 1076 904 q 1054 899 1055 900 l 1053 899 l 1051 899 q 1050 897 1051 899 l 1048 897 q 1029 888 1043 896 q 1028 886 1029 886 q 1025 885 1026 885 q 1021 882 1022 885 q 1017 880 1019 880 q 1014 879 1014 880 q 1011 875 1013 879 q 1007 867 1010 868 q 1003 857 1006 865 q 999 847 1002 856 q 996 843 997 847 q 994 840 996 842 q 993 839 994 839 q 991 838 991 839 q 990 835 991 836 q 986 828 987 832 q 978 810 983 814 q 970 799 971 803 q 936 476 954 586 q 916 285 922 318 q 907 214 908 249 q 903 179 904 192 q 901 161 903 163 q 905 113 901 144 q 907 98 905 100 q 908 87 908 97 q 909 77 909 86 q 911 62 911 75 q 913 60 911 61 q 914 56 913 57 q 918 46 917 50 q 921 45 920 46 l 921 43 q 922 41 922 43 q 924 39 924 40 q 925 37 925 39 q 926 36 926 36 l 926 35 q 878 26 905 32 q 852 22 863 25 q 844 21 851 21 q 840 20 842 21 l 839 20 q 810 16 838 20 q 800 14 802 16 q 789 12 790 14 q 778 11 781 12 q 766 9 768 11 q 754 8 765 8 q 750 12 753 12 l 750 14 l 749 14 q 746 16 747 14 q 745 18 746 17 q 742 20 743 20 q 741 21 741 21 q 737 24 739 22 q 736 25 737 25 l 734 25 q 733 26 734 26 q 730 28 732 28 q 729 29 729 29 q 728 31 728 29 q 726 32 726 31 q 725 33 725 32 q 722 36 725 33 q 721 39 722 37 q 718 40 720 39 q 717 41 717 41 l 715 41 l 714 41 q 718 113 717 85 q 720 146 720 117 q 721 160 721 147 l 721 158 q 725 249 724 222 l 725 248 q 728 293 725 248 q 729 314 728 313 q 730 334 729 332 q 732 347 730 343 q 733 383 732 376 q 737 432 734 404 q 739 458 739 435 q 741 482 741 463 q 742 497 742 486 q 743 517 742 510 q 746 524 745 521 q 746 529 746 526 l 746 541 q 747 567 746 559 q 749 596 747 590 q 750 625 749 623 q 729 624 749 624 q 708 623 728 623 q 697 621 699 623 q 669 619 673 621 q 667 618 668 619 q 664 616 665 618 q 657 615 659 616 q 652 614 653 615 q 633 608 642 608 q 597 607 632 607 q 589 539 597 597 q 587 526 589 528 q 586 514 587 515 q 585 498 585 507 q 583 493 583 496 l 583 494 q 581 471 582 494 q 579 457 581 458 l 579 441 q 575 404 578 429 q 574 395 575 396 q 572 387 572 393 l 572 386 q 572 385 572 385 q 571 385 571 385 q 570 370 570 383 q 561 294 567 334 q 559 281 561 282 q 558 272 559 273 q 557 264 558 265 q 555 254 555 262 q 553 232 554 254 q 551 215 551 229 q 550 205 550 212 q 546 168 549 178 q 543 143 545 144 q 545 132 543 134 q 546 123 546 131 q 547 115 547 122 q 549 106 549 114 q 550 102 550 104 q 551 93 550 94 q 553 85 551 86 q 555 71 553 85 q 557 61 557 69 q 558 58 558 60 l 558 49 l 562 36 l 564 36 q 513 29 564 35 q 489 25 507 28 q 478 24 479 25 q 472 22 476 22 q 454 21 471 21 q 441 20 453 20 q 429 18 440 18 q 419 17 428 17 q 404 16 412 16 q 387 12 404 16 q 350 41 374 28 z "},"R":{"ha":1083,"x_min":69,"x_max":893,"o":"m 699 711 q 586 603 677 677 q 444 475 476 511 q 318 277 364 386 q 298 191 298 216 q 339 98 298 136 q 419 68 374 68 q 431 69 421 69 q 530 94 472 77 q 547 100 530 96 q 555 103 547 102 q 576 111 567 106 q 663 220 586 176 q 800 261 730 261 l 799 261 l 796 261 l 794 261 l 791 261 q 802 260 799 261 q 825 258 818 260 q 839 248 839 257 q 823 207 825 216 q 819 175 821 187 q 818 167 818 171 q 817 163 817 165 q 823 118 817 163 q 850 69 832 87 q 893 26 871 47 q 843 1 893 17 q 789 -11 808 -8 q 742 -16 766 -16 q 650 9 685 -16 q 583 79 612 33 q 460 33 545 56 q 265 4 351 4 q 123 64 172 4 q 69 211 69 122 q 94 323 69 261 q 192 446 118 383 q 345 575 222 476 q 518 762 461 679 q 551 823 546 802 q 566 880 566 846 q 553 907 566 900 q 536 928 536 914 q 550 946 536 940 q 602 960 564 954 q 631 964 625 962 q 642 965 632 965 q 653 966 643 966 q 728 972 667 972 q 799 926 799 972 q 794 899 799 913 q 750 789 781 840 q 729 755 745 774 q 721 743 724 746 q 715 736 720 741 q 707 724 714 730 q 704 720 707 722 q 703 720 703 720 q 703 718 703 718 q 701 715 703 717 q 699 711 699 713 z "},"T":{"ha":1250,"x_min":49,"x_max":1153,"o":"m 326 595 q 231 407 326 463 q 75 372 182 372 q 49 386 49 372 q 79 447 49 393 q 96 503 94 473 l 96 510 q 87 546 96 526 q 78 566 78 561 q 74 574 78 568 q 72 578 74 576 q 71 581 72 579 q 66 590 69 582 q 75 600 66 596 q 89 603 85 602 q 97 603 93 603 l 106 603 l 104 603 q 330 628 155 603 q 476 648 457 646 q 511 653 488 648 q 518 721 513 653 l 518 720 q 521 753 519 720 q 529 839 524 804 q 525 882 529 852 q 500 924 518 914 q 468 949 468 937 q 526 974 468 962 q 533 975 532 974 q 541 977 539 975 q 546 978 545 977 q 561 979 559 978 q 597 985 562 981 q 675 994 624 994 q 726 981 704 994 q 746 949 741 975 q 753 889 753 889 q 741 754 753 836 q 736 722 739 749 q 734 704 734 721 q 733 694 734 696 q 732 685 733 686 q 787 686 733 686 q 818 688 789 688 q 851 689 819 689 q 966 700 899 692 q 1092 717 1059 717 q 1118 713 1112 717 q 1126 699 1126 711 q 1114 648 1126 697 q 1109 616 1112 625 q 1108 607 1109 608 q 1107 603 1108 604 q 1124 553 1109 576 q 1132 541 1132 543 q 1139 529 1133 541 q 1149 514 1146 517 q 1153 505 1150 511 q 1120 490 1153 496 q 1121 490 1121 490 q 1076 484 1121 490 q 1051 482 1075 482 q 1038 481 1050 481 l 1039 481 q 935 513 975 481 q 885 659 885 557 l 725 648 q 721 607 724 639 q 720 587 721 589 q 718 557 720 558 q 717 541 717 553 q 715 532 715 538 q 710 459 714 530 q 697 302 705 389 q 696 281 696 298 q 694 268 694 278 l 694 264 q 693 250 694 252 q 692 235 693 236 q 690 214 690 233 q 686 176 689 199 l 686 157 q 685 138 685 155 q 690 92 685 97 q 703 66 693 71 q 732 40 732 54 q 686 16 732 18 l 688 16 q 557 0 688 14 q 513 -4 530 -4 q 476 5 486 -4 q 452 43 463 17 q 446 94 446 57 q 460 288 446 214 q 489 500 461 288 q 493 536 492 526 q 496 541 494 539 q 496 543 496 542 l 496 547 l 496 550 q 500 574 496 554 q 503 593 501 574 q 505 600 504 599 q 505 604 505 603 l 505 608 l 505 615 l 326 595 z "},"Y":{"ha":925,"x_min":86,"x_max":710,"o":"m 86 644 q 87 647 86 647 q 89 650 89 647 q 87 671 87 657 q 86 679 87 677 q 157 861 94 803 q 355 954 244 928 q 450 974 355 956 q 514 982 475 981 l 519 982 l 532 982 q 623 970 575 982 q 692 925 659 962 q 710 836 693 922 q 708 840 710 840 q 705 839 707 840 l 705 823 l 705 785 q 704 745 704 782 q 696 725 697 726 q 694 722 694 724 q 693 717 694 718 q 692 713 693 714 q 690 711 692 711 q 686 701 689 707 q 685 699 686 699 q 684 696 685 697 l 685 696 q 682 693 685 696 q 681 689 682 690 q 663 665 677 681 q 595 595 639 611 q 509 555 564 555 q 408 543 460 546 q 368 539 399 541 q 325 534 361 539 l 317 534 l 311 534 l 307 534 l 309 528 q 317 497 311 511 q 367 431 317 494 q 403 370 376 416 q 425 298 424 318 l 425 288 q 427 224 427 286 l 427 207 l 427 97 l 429 72 q 435 43 432 50 q 453 24 436 29 q 467 7 467 17 l 467 5 q 452 -8 467 -7 q 380 -21 386 -20 l 382 -21 l 383 -21 l 385 -21 l 386 -21 q 378 -22 383 -21 q 359 -24 372 -24 q 347 -25 349 -24 q 334 -26 335 -25 q 318 -28 319 -26 l 313 -28 l 296 -28 q 254 -24 271 -28 q 225 1 232 -20 q 218 52 221 18 q 216 68 216 53 q 214 97 215 68 q 212 129 214 127 l 212 176 q 211 268 211 197 l 211 269 q 201 323 208 309 q 126 488 144 424 q 103 575 114 524 q 94 608 96 590 q 90 625 92 621 q 86 644 87 642 m 282 611 q 288 600 288 608 q 289 596 289 599 q 297 568 290 572 q 306 567 304 568 q 310 566 307 566 l 311 566 l 313 566 q 376 597 338 567 q 390 610 386 608 q 410 628 395 612 q 435 652 429 647 q 443 660 439 656 q 452 668 447 664 q 456 671 454 671 q 458 673 457 672 q 461 676 460 675 q 464 679 463 677 q 486 729 464 688 q 511 786 507 779 q 530 875 530 850 l 530 882 l 530 885 q 517 920 528 901 q 493 937 505 935 q 469 942 484 942 l 467 942 q 464 940 465 940 q 439 935 444 940 q 411 917 428 932 q 294 754 354 872 q 293 739 293 753 q 292 722 292 737 q 290 710 290 721 q 289 703 289 708 l 289 690 q 288 677 289 679 q 286 664 288 665 q 285 650 285 663 q 283 623 283 640 q 282 611 282 619 z "},"U":{"ha":1320,"x_min":74,"x_max":1240,"o":"m 74 178 q 77 254 74 212 q 83 297 79 286 q 122 422 92 350 q 221 574 158 507 q 383 684 296 644 q 555 734 449 714 q 726 749 607 749 l 762 760 l 761 760 q 760 760 760 760 q 851 766 760 760 l 859 766 q 876 768 860 768 q 909 770 907 768 q 978 771 913 771 q 1129 681 1084 749 q 1187 500 1178 607 q 1194 404 1192 461 q 1196 325 1196 397 q 1197 292 1197 322 l 1197 297 l 1197 281 l 1197 265 l 1197 218 q 1196 174 1196 216 q 1197 118 1196 119 q 1213 81 1197 87 q 1240 56 1240 69 q 1204 29 1240 35 q 1143 17 1147 17 q 1132 15 1133 17 q 1124 14 1131 14 q 1118 12 1122 12 q 1109 11 1117 11 q 1064 5 1099 5 q 1013 18 1031 5 q 990 53 996 32 q 983 127 983 111 q 985 211 983 210 q 986 311 986 212 q 985 429 986 428 q 977 513 983 473 q 918 664 961 616 q 806 722 890 693 l 779 725 q 750 722 777 722 l 747 153 l 747 129 q 750 92 749 129 q 760 74 751 85 q 783 52 783 62 q 724 22 783 31 q 694 18 718 20 q 684 17 685 18 q 672 16 673 17 q 647 11 665 12 q 624 9 646 9 q 612 8 623 8 l 608 8 l 610 8 q 567 18 581 8 q 550 57 551 29 q 545 205 545 135 q 543 270 545 250 q 542 371 542 290 l 542 427 q 542 456 542 441 q 539 503 541 468 q 536 690 539 513 l 514 690 q 458 676 481 690 q 378 590 421 653 q 319 372 338 525 q 307 186 307 250 l 307 160 q 306 135 306 158 q 310 90 306 104 q 325 69 314 74 q 351 46 351 60 q 340 32 351 39 q 302 21 329 25 l 304 21 l 306 21 l 309 21 l 310 21 q 277 18 310 20 l 269 18 q 262 17 268 17 q 261 16 261 17 l 260 16 l 258 16 q 172 5 225 5 q 109 20 126 5 q 79 75 82 37 q 77 118 79 75 q 75 153 75 119 q 74 171 74 154 l 74 178 z "},"I":{"ha":903,"x_min":66,"x_max":803,"o":"m 304 60 q 325 40 325 52 l 325 39 q 309 24 325 29 q 267 11 281 12 q 243 7 261 8 q 233 5 241 5 q 224 4 232 4 q 210 3 220 3 q 192 1 196 3 q 174 0 183 0 q 165 -1 167 0 q 153 -3 163 -3 q 93 5 117 -3 q 68 40 69 14 q 66 78 66 41 l 66 103 q 68 125 68 104 q 69 144 69 126 q 79 189 71 146 q 201 383 92 239 q 292 493 231 421 q 371 576 338 545 q 309 567 326 567 q 244 562 283 562 q 144 579 186 562 q 90 654 96 603 q 89 668 89 656 q 87 681 87 669 l 87 693 l 87 707 q 146 847 92 794 q 309 917 199 897 q 355 925 311 917 q 375 929 368 926 q 383 930 378 930 q 390 932 389 930 q 400 933 392 933 q 408 935 401 935 q 522 947 472 947 q 604 935 570 947 q 656 895 637 924 q 672 857 665 880 q 676 819 676 839 l 676 814 q 574 576 673 725 q 486 460 505 490 q 530 464 490 460 q 593 468 570 468 q 663 457 615 468 q 707 415 692 447 q 732 328 720 393 q 755 160 745 277 q 779 74 764 81 q 803 53 803 62 q 787 35 803 43 q 742 20 772 26 q 736 18 741 18 q 729 17 734 17 q 724 15 725 17 q 718 14 722 14 q 708 12 710 14 q 682 7 694 7 q 640 1 643 1 q 628 0 636 0 q 582 14 596 0 q 559 61 566 29 q 558 79 558 66 q 557 87 557 82 q 555 98 555 89 q 554 110 554 102 q 550 144 551 115 q 541 229 546 204 q 538 260 541 229 q 534 281 538 264 q 530 313 532 292 q 450 406 504 406 l 441 406 q 437 400 439 406 q 435 397 437 400 q 432 393 433 393 q 419 376 427 382 q 397 347 404 357 q 393 343 396 345 q 390 338 392 340 q 340 264 346 277 q 310 184 322 244 q 293 100 294 132 l 293 94 q 304 60 293 64 m 375 888 q 330 815 349 884 q 307 671 310 760 l 307 669 q 325 633 307 643 q 367 621 349 621 q 393 628 379 621 q 439 701 421 652 q 463 799 461 746 l 463 807 q 447 865 463 842 q 396 890 432 890 q 390 889 392 890 q 375 888 376 889 z "},"O":{"ha":1183,"x_min":57,"x_max":1103,"o":"m 803 950 l 675 950 q 646 825 667 946 q 625 667 625 707 q 644 665 627 665 q 703 671 689 665 q 745 673 732 672 q 785 677 755 675 q 821 682 804 679 q 839 681 838 682 q 851 679 850 681 q 864 677 863 679 q 879 644 879 675 q 836 497 879 589 q 810 435 818 456 q 789 383 802 414 q 777 351 783 370 q 765 326 768 334 q 761 315 762 318 q 757 309 760 313 q 754 300 755 304 q 749 286 751 289 q 746 279 747 282 q 743 272 745 275 q 741 265 742 268 q 737 258 739 261 q 715 201 715 208 q 677 79 677 110 q 685 62 677 69 q 708 35 708 43 q 677 18 708 25 q 631 8 675 17 q 618 7 621 8 q 607 5 610 5 q 602 4 603 4 q 590 3 600 3 q 546 -1 564 -1 q 476 11 501 -1 q 449 58 449 26 q 496 221 449 109 q 589 453 528 307 q 600 478 593 463 q 610 504 607 494 q 619 525 614 514 q 631 550 628 545 q 637 564 633 555 q 644 581 640 572 q 657 611 653 600 q 633 629 652 623 q 600 635 628 635 l 602 635 q 603 635 603 635 q 536 628 603 635 q 517 627 524 628 q 507 627 511 627 q 498 624 503 625 q 484 622 489 624 q 473 621 478 621 q 435 629 446 621 q 418 671 418 644 q 419 690 418 689 q 418 692 418 690 q 421 694 418 693 q 422 707 421 704 q 427 732 425 721 q 436 796 427 747 q 446 850 441 806 q 463 936 446 850 l 338 928 q 239 836 329 864 q 96 819 176 819 q 57 832 57 819 q 89 892 86 882 q 103 949 103 914 q 90 1002 103 971 q 89 1004 89 1003 q 87 1007 87 1006 q 86 1008 87 1008 q 85 1010 86 1010 q 78 1021 85 1010 q 61 1046 75 1023 q 72 1059 61 1051 q 79 1060 78 1059 q 86 1061 85 1060 q 113 1067 100 1061 q 172 1071 142 1071 q 282 1050 239 1071 q 345 962 339 1023 l 794 982 q 878 1083 812 1057 q 989 1101 903 1101 q 1021 1100 990 1100 q 1046 1101 1044 1100 l 1060 1101 q 1080 1095 1080 1101 q 1067 1067 1080 1088 q 1053 1011 1053 1043 q 1060 970 1053 1002 q 1084 926 1067 947 q 1103 900 1103 908 q 1057 880 1103 892 q 954 868 1003 868 q 857 886 888 868 q 803 950 811 904 z "},"P":{"ha":1219,"x_min":66,"x_max":1137,"o":"m 103 854 q 187 863 110 857 q 228 867 199 865 q 237 868 229 868 q 250 869 249 868 q 262 871 261 869 q 273 872 272 871 l 272 872 l 271 872 l 269 872 q 268 872 268 872 q 294 875 268 872 q 309 876 296 876 q 322 878 310 878 q 500 895 406 888 q 623 901 597 901 q 758 913 623 901 q 794 918 793 917 q 819 922 815 921 q 839 924 821 924 q 935 935 876 926 q 1121 945 983 945 q 1137 933 1137 945 q 1125 897 1128 911 q 1116 868 1121 873 q 1107 807 1107 838 q 1111 761 1107 782 q 1128 715 1112 749 q 1129 707 1129 714 q 1122 697 1129 699 q 1088 692 1117 692 q 1060 693 1061 692 q 1036 694 1059 694 q 935 757 977 694 q 897 893 897 808 l 720 873 q 697 692 720 819 q 692 650 696 690 q 688 616 690 628 q 686 602 686 615 q 685 591 685 600 q 679 550 685 579 q 654 357 668 501 q 628 135 628 184 q 633 81 628 86 q 657 57 639 58 q 673 40 673 53 q 650 20 673 26 q 586 7 616 12 q 517 -1 547 -1 q 452 11 478 -1 q 414 53 425 24 q 412 72 412 54 q 422 178 412 142 l 422 176 q 425 199 424 176 q 428 208 427 205 q 428 211 428 210 l 428 216 l 428 215 q 429 221 429 218 q 431 227 431 224 q 432 237 431 233 q 433 249 433 239 q 435 260 435 252 q 440 306 439 304 q 443 321 440 307 q 444 326 443 322 q 444 336 444 330 q 446 342 444 340 q 454 404 449 345 q 465 496 463 452 q 473 571 473 561 q 475 581 473 578 q 476 597 475 590 q 478 608 478 604 q 479 615 479 611 q 482 625 481 619 q 482 635 482 629 q 484 648 484 636 q 486 667 485 648 q 488 686 488 668 q 490 708 489 686 q 492 722 490 721 q 493 734 492 733 q 497 765 494 758 q 505 854 505 835 l 322 839 q 317 754 322 760 q 265 675 304 705 q 187 636 232 648 q 102 623 158 623 l 79 623 q 66 632 66 627 q 69 640 66 632 q 97 699 83 664 q 106 750 106 725 q 100 796 106 786 q 93 819 98 796 q 89 832 90 828 q 87 838 87 833 q 86 843 87 842 q 103 854 86 854 z "},"{":{"ha":903,"x_min":64,"x_max":803,"o":"m 501 884 q 570 868 543 869 q 650 800 624 848 q 675 697 675 753 q 619 545 675 615 q 571 486 608 529 q 507 428 532 447 l 515 428 q 559 432 529 428 q 578 435 572 433 q 585 435 582 435 l 600 435 l 615 435 l 614 435 q 693 424 646 435 q 737 379 724 408 q 758 268 755 340 q 762 158 760 179 q 766 93 764 140 q 782 60 770 65 q 803 41 803 52 q 793 29 803 31 q 753 18 793 29 l 754 18 q 749 18 753 18 q 736 16 745 17 q 729 14 733 14 q 722 12 725 14 q 711 11 720 11 q 633 1 676 1 q 587 11 602 1 q 568 39 571 22 q 566 136 566 117 q 564 192 564 151 q 562 212 562 199 q 561 233 562 225 q 559 265 561 260 q 529 343 555 313 q 468 370 504 370 l 460 370 q 397 322 429 357 q 330 235 364 288 q 297 167 326 229 q 282 100 282 117 q 297 68 282 72 q 329 45 329 54 q 304 29 329 35 q 283 26 283 28 l 285 26 q 264 22 279 25 q 203 14 237 17 q 165 12 191 12 q 149 11 160 11 l 150 11 q 90 21 109 11 q 64 66 64 35 q 86 180 64 135 q 131 268 114 241 q 250 400 151 304 q 256 406 253 403 q 261 410 258 407 q 265 415 262 412 q 272 422 268 419 q 278 428 277 427 q 289 439 281 432 q 310 458 294 444 q 318 467 314 463 q 326 475 322 471 q 334 482 329 479 q 340 489 338 486 q 347 496 345 493 q 351 501 349 498 q 340 500 342 501 q 329 498 330 500 q 315 497 322 497 q 309 496 313 496 q 275 494 298 494 q 261 493 271 493 l 262 493 q 160 514 199 493 q 113 607 113 541 q 114 622 113 621 q 115 637 115 624 q 172 777 127 720 q 296 857 214 827 l 304 1004 l 304 1025 q 296 1043 301 1042 q 283 1059 283 1048 q 319 1080 283 1076 q 403 1089 366 1082 q 463 1095 425 1095 q 500 1083 490 1095 q 507 1061 504 1080 q 509 1023 509 1060 l 509 1025 q 505 943 509 1025 q 501 884 501 893 m 406 549 q 456 604 435 562 q 472 696 472 643 l 472 725 q 464 764 472 737 q 406 811 450 811 q 359 791 379 811 q 328 732 339 768 q 315 650 315 693 q 330 572 315 611 q 376 542 346 542 q 406 549 376 543 z "},"}":{"ha":844,"x_min":61,"x_max":746,"o":"m 746 575 q 728 326 746 401 q 672 199 710 244 q 582 146 636 165 q 458 114 489 123 q 336 45 392 68 q 227 21 265 21 q 110 71 154 21 q 61 235 61 126 q 71 590 61 425 q 119 733 83 682 q 215 811 161 782 q 368 878 281 842 q 393 889 380 884 q 424 900 406 893 q 475 920 465 917 q 570 939 529 939 q 597 937 596 939 q 619 929 608 930 q 676 886 653 916 q 717 811 700 857 q 746 575 746 714 m 433 856 q 419 857 432 857 q 342 825 374 857 q 298 732 309 786 q 282 590 292 686 q 278 411 278 505 q 283 271 278 326 q 294 195 288 215 q 390 129 318 129 q 511 196 478 147 q 542 378 541 249 l 542 439 q 543 500 542 497 q 526 737 543 647 q 433 856 500 848 z "},"|":{"ha":930,"x_min":115,"x_max":840,"o":"m 410 663 l 623 718 q 629 749 628 724 q 631 775 631 750 l 631 791 q 627 818 629 799 q 621 843 627 831 q 600 867 610 859 q 572 895 575 880 l 572 896 q 607 908 572 905 q 627 909 608 909 q 647 911 628 911 q 669 913 650 913 q 679 914 671 914 l 677 914 q 705 917 677 916 q 720 918 718 917 q 742 920 741 918 q 762 921 743 921 l 760 921 q 757 921 757 921 q 796 918 757 921 q 819 896 812 913 q 839 783 838 852 q 840 733 840 782 q 827 576 840 628 q 796 458 815 517 q 746 343 777 400 q 652 253 717 289 q 421 186 567 211 q 367 179 406 182 q 345 178 366 178 q 241 197 294 178 q 186 257 200 215 q 184 272 184 258 q 183 289 184 288 l 183 329 q 192 501 183 407 q 200 593 195 518 q 215 787 203 667 q 214 814 215 812 q 196 843 210 833 q 187 857 187 850 l 187 859 q 212 871 187 868 q 289 878 282 872 q 346 882 332 882 q 358 884 347 884 q 399 875 378 884 q 415 835 412 865 q 416 793 416 833 l 416 743 q 415 730 416 732 l 415 718 q 414 707 414 717 q 412 696 412 705 q 411 676 411 694 q 410 663 410 675 m 232 1135 q 254 1136 233 1136 q 277 1137 258 1137 q 335 1141 298 1139 q 357 1143 340 1143 q 375 1145 371 1143 l 395 1145 q 463 1149 415 1147 q 526 1153 484 1152 q 599 1157 571 1156 q 623 1158 618 1157 q 646 1160 643 1158 q 696 1164 677 1161 q 777 1168 761 1165 l 778 1168 q 787 1156 785 1168 l 787 1149 q 786 1126 787 1128 q 785 1107 785 1125 l 785 1100 q 798 1069 794 1072 q 803 1061 799 1069 q 808 1054 807 1057 q 812 1044 811 1048 q 777 1031 812 1038 q 770 1029 775 1029 q 761 1028 768 1028 q 746 1026 749 1028 q 736 1025 742 1025 l 733 1025 l 734 1025 l 718 1025 q 631 1048 659 1025 q 595 1122 597 1076 l 393 1114 l 393 1107 q 340 1019 393 1048 q 241 994 294 996 l 227 994 l 212 994 q 203 1002 203 996 q 204 1006 204 1003 q 205 1008 205 1007 q 207 1010 205 1010 q 215 1022 208 1013 q 221 1034 220 1032 q 225 1061 225 1047 l 225 1067 q 222 1096 225 1067 q 214 1124 221 1109 q 232 1135 214 1132 m 155 69 l 696 109 l 697 109 q 715 94 714 109 l 715 86 l 715 81 l 715 77 l 715 74 l 715 72 l 715 58 l 715 53 l 715 50 l 715 49 l 715 47 q 728 3 718 26 q 732 -1 729 0 q 737 -9 733 -4 q 741 -12 737 -9 q 743 -16 742 -14 q 745 -17 745 -17 l 745 -18 q 753 -31 747 -25 q 742 -39 753 -36 q 708 -45 711 -45 l 694 -45 q 611 -29 665 -45 q 549 66 550 -1 l 317 54 q 261 -40 315 -9 q 167 -64 221 -61 q 160 -65 165 -65 q 146 -64 147 -65 l 134 -64 q 115 -57 115 -61 q 127 -39 115 -54 q 144 -8 143 -25 l 144 12 l 144 21 q 143 40 144 39 q 142 49 143 47 q 140 56 140 50 l 140 57 q 155 69 140 66 m 616 684 l 399 627 q 380 453 399 599 q 376 345 376 387 l 376 313 q 400 229 380 235 q 435 222 435 224 l 433 222 l 437 222 q 553 346 504 227 q 606 566 586 433 q 610 614 608 579 q 611 635 610 631 q 616 684 615 682 z "},"A":{"ha":1079,"x_min":61,"x_max":956,"o":"m 425 745 q 400 743 424 743 q 279 726 298 726 q 239 736 244 726 q 232 768 233 737 q 231 825 231 770 l 231 852 q 222 966 231 936 q 197 1007 211 1002 q 170 1029 170 1019 q 214 1044 170 1042 q 297 1046 215 1046 q 335 1047 334 1046 q 351 1048 350 1047 q 374 1050 372 1048 q 428 1040 410 1050 q 446 1006 446 1032 q 446 925 446 961 q 447 886 447 886 q 454 810 452 839 q 457 765 457 779 q 494 772 469 771 q 504 775 500 774 q 515 777 509 775 q 524 779 521 778 q 530 779 526 779 q 557 783 549 782 l 555 783 q 554 783 554 783 q 576 786 554 783 q 586 787 585 786 q 602 789 599 787 q 628 793 610 790 q 642 794 629 794 q 656 796 644 796 q 643 770 656 791 q 642 764 642 765 q 639 761 640 762 q 639 760 639 760 q 636 753 636 757 q 635 750 636 753 q 633 749 635 750 q 632 747 633 749 l 633 747 q 631 745 633 747 q 629 742 631 742 q 628 741 629 742 l 628 739 q 561 647 595 693 q 509 572 528 602 q 486 542 488 543 q 539 546 501 545 q 665 571 612 561 q 730 579 717 579 l 729 579 l 728 579 l 726 579 l 725 579 l 724 579 l 730 579 q 750 576 730 579 q 844 449 807 559 q 876 321 867 382 q 886 193 886 262 q 896 102 886 122 q 930 53 905 58 q 956 37 956 47 q 926 18 956 25 q 848 5 899 11 q 760 1 802 1 q 722 11 736 1 q 696 32 713 12 q 671 150 681 61 q 661 245 664 232 q 648 330 656 300 q 636 395 643 363 q 623 433 632 412 q 581 490 604 476 q 518 504 562 504 l 492 504 q 464 503 490 503 q 460 496 463 503 q 458 493 460 494 q 457 492 458 492 q 454 488 454 489 q 450 481 452 482 q 446 471 449 479 q 441 465 444 468 q 440 464 440 464 q 440 463 440 463 q 436 456 436 457 q 422 431 428 436 q 376 342 410 403 q 332 227 359 310 q 314 127 314 186 q 338 75 314 86 q 363 53 363 64 q 350 39 363 46 q 302 28 329 29 q 215 20 261 26 q 151 18 211 18 q 115 17 147 17 l 119 17 q 77 36 92 17 q 61 89 61 60 q 103 248 61 146 q 215 453 139 334 q 256 515 228 475 q 330 621 282 553 q 380 688 358 654 q 382 690 382 689 q 385 693 383 692 q 386 696 386 694 q 387 697 386 696 q 389 699 387 697 q 390 700 389 699 q 393 703 392 701 q 395 705 393 704 q 397 710 396 705 q 399 711 399 710 q 400 714 400 713 q 403 717 400 714 q 404 720 404 718 q 406 721 406 721 q 407 724 406 722 q 408 725 407 724 q 410 726 408 725 q 411 728 410 726 q 412 729 411 728 q 414 732 414 730 q 415 733 414 732 q 416 734 415 733 q 418 736 416 734 q 419 737 418 736 q 421 739 421 739 q 422 741 422 741 q 424 742 424 742 q 425 745 425 743 z "},"S":{"ha":925,"x_min":83,"x_max":859,"o":"m 115 35 q 96 114 107 60 q 93 135 94 125 q 92 154 92 144 q 90 170 90 164 q 89 179 89 174 q 87 201 87 191 q 86 227 87 210 q 85 290 86 285 q 83 325 83 296 l 83 321 l 83 347 l 83 354 q 87 471 83 392 q 195 730 96 648 q 363 808 227 758 q 364 825 363 823 q 366 840 364 839 l 366 868 l 366 888 l 364 922 q 363 942 363 924 q 364 956 363 954 q 361 970 361 968 q 359 985 361 978 q 346 1006 357 994 q 332 1019 335 1013 q 347 1035 332 1028 q 403 1047 357 1042 q 450 1055 415 1051 q 507 1064 489 1059 l 521 1064 q 561 1059 551 1064 q 579 1026 578 1047 q 568 930 571 978 q 564 867 564 875 q 566 842 564 843 l 581 842 q 711 796 660 842 q 785 684 757 757 q 799 586 794 665 q 800 497 800 585 q 799 371 800 374 q 798 257 798 368 q 799 184 798 186 q 803 146 802 160 q 807 134 806 142 q 808 125 808 132 q 812 102 810 117 q 839 74 818 85 q 859 58 859 66 q 846 45 859 49 q 803 32 836 37 q 732 20 743 24 q 699 16 717 18 q 685 14 697 14 q 677 12 684 12 l 667 12 q 625 20 667 12 q 604 47 607 29 q 603 61 604 57 q 599 86 602 68 l 596 125 l 590 232 q 589 286 590 285 q 587 338 587 288 l 587 380 l 587 484 l 587 533 l 587 579 q 557 728 581 667 q 460 787 526 787 q 452 786 453 787 q 328 703 361 782 q 298 538 310 657 q 297 492 298 496 q 296 449 297 450 q 294 371 296 375 l 294 346 q 298 195 294 253 q 313 114 300 164 q 346 68 326 82 q 368 49 367 58 l 368 47 q 349 33 368 40 q 328 28 328 29 q 323 26 325 28 q 306 22 310 25 q 288 21 289 22 q 275 20 286 20 l 269 20 l 272 20 l 261 20 q 253 20 260 20 q 235 17 248 18 q 218 16 228 16 q 203 12 216 16 q 189 11 191 12 q 174 9 175 11 l 167 9 q 115 35 125 9 z "},"D":{"ha":1132,"x_min":36,"x_max":1025,"o":"m 471 539 q 538 368 492 476 q 600 269 582 269 q 708 261 667 262 q 892 253 827 253 l 889 253 l 886 253 q 940 256 886 253 l 943 256 q 958 222 958 256 q 956 180 956 221 q 968 111 956 146 q 1003 74 977 89 q 1025 50 1025 61 q 1004 31 1025 37 q 956 24 985 24 q 751 129 783 24 q 711 233 718 233 l 374 229 q 328 115 351 229 q 170 -8 304 4 q 150 -9 168 -9 q 131 -11 149 -11 q 94 -12 129 -12 q 36 8 36 -12 q 53 37 36 20 q 74 81 68 58 q 81 132 81 87 q 78 172 81 132 q 71 197 78 180 l 366 257 q 334 318 361 257 q 269 469 310 353 q 235 659 235 585 q 244 753 235 721 q 282 832 258 794 q 472 954 334 913 q 704 986 607 986 l 733 986 l 732 986 l 730 986 l 728 986 l 726 986 q 736 983 733 986 q 762 983 754 983 q 856 935 817 977 q 884 842 884 904 q 861 736 884 789 q 808 648 843 692 q 647 559 749 587 q 500 530 513 530 q 471 539 478 530 m 463 591 q 484 581 469 581 q 606 685 529 581 q 681 867 681 787 q 631 939 681 924 q 600 945 608 945 q 591 946 595 945 q 481 854 522 946 q 447 681 447 798 q 463 591 447 619 z "},"F":{"ha":1166,"x_min":61,"x_max":1032,"o":"m 650 385 q 668 347 663 375 q 672 304 672 330 l 672 294 q 664 229 669 264 q 657 203 659 208 q 653 192 654 196 q 644 158 646 163 l 757 165 q 848 244 777 222 q 961 258 873 258 l 987 258 q 1013 252 1013 258 q 1007 239 1013 248 q 997 221 1007 237 q 989 192 989 205 l 989 187 q 1013 102 989 154 q 1032 39 1032 39 q 1002 21 1032 21 l 1003 21 l 1007 21 l 993 21 q 982 21 990 21 q 956 18 974 20 q 924 17 953 17 q 909 16 922 16 l 903 16 l 904 16 q 798 36 839 16 q 750 125 750 58 l 750 131 q 711 129 713 131 q 675 127 676 129 q 497 100 582 121 q 396 66 443 86 q 220 -7 253 3 q 183 -12 211 -12 q 93 41 127 -12 q 61 157 61 90 l 61 168 q 102 298 62 252 q 225 454 146 368 q 245 476 233 464 q 256 488 250 482 q 268 501 258 492 q 279 514 279 514 q 283 518 282 517 q 286 521 285 519 q 289 524 288 522 q 289 525 289 524 q 290 526 289 525 q 292 528 290 526 q 294 530 292 528 q 296 532 294 530 q 297 533 296 532 q 298 534 297 533 q 302 539 298 538 q 304 542 304 539 q 306 543 306 543 q 307 545 307 545 q 309 546 309 546 q 310 547 310 547 q 311 549 311 549 q 313 550 313 550 q 314 551 314 550 q 325 566 321 559 q 330 571 329 570 q 335 575 332 574 q 338 578 336 576 q 357 599 343 579 q 476 765 437 697 q 497 818 492 787 q 505 872 503 844 l 505 879 q 496 911 505 907 q 475 935 475 922 q 494 954 475 943 q 546 965 521 962 q 575 970 568 966 q 597 972 597 972 q 596 972 597 972 q 615 975 615 975 l 623 975 q 676 982 623 977 q 711 977 705 982 q 729 958 724 971 q 734 916 734 953 l 734 900 q 728 839 732 856 q 715 789 725 812 q 606 629 685 711 q 472 500 564 585 q 387 406 396 428 l 412 406 q 541 431 500 431 q 602 421 587 431 q 650 385 632 407 m 419 157 q 433 220 419 167 q 435 232 435 221 q 436 244 435 243 q 439 277 436 244 l 439 282 q 431 328 439 311 q 411 345 427 339 q 376 350 406 350 q 334 338 338 350 l 335 338 q 332 335 335 338 q 330 329 330 334 q 329 326 329 328 q 328 325 328 325 q 326 321 328 322 q 325 315 326 317 q 323 314 323 315 l 323 313 q 322 310 322 311 q 315 294 318 306 q 313 289 315 292 q 311 285 313 286 q 310 282 311 283 q 309 278 310 279 q 307 275 307 277 q 304 269 307 275 q 302 264 304 265 q 290 201 292 231 l 290 189 q 304 118 290 140 q 346 90 321 90 q 392 110 368 90 q 419 157 408 126 z "},"G":{"ha":833,"x_min":75,"x_max":682,"o":"m 75 547 q 106 606 100 581 q 111 632 106 612 q 115 648 114 642 q 117 657 117 653 l 117 661 l 117 664 q 106 724 117 676 q 102 749 102 732 q 140 766 102 762 q 260 796 170 771 q 349 822 334 817 q 380 832 366 828 q 400 838 395 836 q 525 860 464 860 q 602 847 562 860 q 654 802 635 833 q 679 742 667 778 q 682 696 682 721 l 682 673 l 681 656 q 652 484 675 572 q 646 460 648 468 q 642 443 643 452 q 633 414 636 428 q 623 378 629 400 q 604 314 615 354 q 567 179 570 196 q 559 139 561 158 l 557 109 l 557 100 l 557 93 q 566 64 557 69 q 586 41 586 50 q 576 33 586 35 q 536 21 564 29 l 529 21 q 524 20 528 20 q 519 18 522 18 l 518 18 q 510 17 517 17 q 504 16 505 17 q 493 14 494 16 q 484 12 485 14 q 472 11 482 11 q 468 9 471 9 l 469 9 q 411 4 457 4 q 363 14 376 4 q 345 47 345 25 l 345 49 l 345 60 l 345 69 l 345 77 l 345 81 l 345 82 l 345 85 l 345 87 q 380 268 349 143 q 389 294 382 268 q 392 307 389 294 q 396 321 395 315 q 401 345 400 343 q 418 403 401 345 q 446 503 433 454 q 479 673 473 610 l 479 682 l 479 686 l 479 699 q 478 710 479 710 q 446 782 467 758 q 399 800 428 800 q 347 785 383 800 q 343 782 346 785 q 340 781 342 782 q 339 779 340 781 q 338 778 339 779 q 340 737 340 745 l 340 721 l 340 713 q 253 570 335 618 q 118 534 197 534 q 86 539 98 534 q 75 546 75 542 l 75 547 z "},"H":{"ha":972,"x_min":78,"x_max":798,"o":"m 562 850 q 546 867 546 859 q 568 882 546 875 q 624 896 587 892 q 693 908 682 904 q 743 917 728 917 q 768 907 761 917 q 787 821 777 890 q 798 657 798 774 q 782 444 798 603 q 717 244 762 347 q 635 127 681 179 q 529 41 579 72 q 293 -29 414 -29 q 134 37 191 -29 q 103 87 115 56 q 85 151 90 114 q 78 229 78 196 q 96 374 78 294 q 97 385 96 378 q 102 401 98 390 q 106 429 106 425 q 109 449 107 440 q 111 464 110 458 q 113 471 113 469 q 115 490 114 471 q 119 517 117 509 q 132 582 119 519 q 150 721 150 657 q 147 733 150 730 q 126 764 126 757 q 203 798 126 775 q 301 818 281 818 q 321 814 315 818 q 336 799 328 806 q 353 721 353 781 q 336 550 353 656 q 334 532 336 550 q 329 510 329 515 q 322 467 326 484 q 301 336 302 354 q 282 170 282 178 q 283 138 282 139 q 317 41 289 72 q 379 14 350 14 q 424 26 400 14 q 461 57 439 35 q 532 225 496 100 q 574 435 549 290 q 576 454 575 435 q 581 489 579 484 q 585 517 582 511 q 586 526 586 518 q 587 534 587 528 q 589 562 589 536 q 590 591 590 564 q 591 668 591 593 q 587 791 591 739 q 562 850 581 842 z "},"J":{"ha":1097,"x_min":64,"x_max":1017,"o":"m 64 -33 q 90 12 86 -11 q 98 56 98 33 l 98 58 q 93 92 98 81 q 92 98 92 93 q 90 106 92 104 q 89 110 89 107 q 87 111 87 111 q 83 126 86 113 l 83 127 q 97 139 83 136 l 103 139 l 109 139 l 111 139 q 239 180 135 139 q 283 203 253 187 q 321 221 301 210 q 328 224 325 222 q 332 225 329 224 q 338 228 335 227 q 342 231 339 229 q 306 329 318 289 q 281 428 289 375 q 254 619 258 517 l 254 636 q 257 689 256 636 q 322 882 269 822 q 461 957 364 933 q 471 1042 461 965 l 471 1050 l 471 1059 q 472 1074 472 1060 q 473 1084 473 1075 l 473 1090 q 475 1107 475 1093 q 476 1114 476 1108 l 476 1112 l 355 1103 q 267 1002 321 1026 q 150 981 233 987 l 121 981 q 98 982 100 981 q 85 987 85 983 q 102 1011 94 999 q 115 1032 113 1026 q 126 1079 126 1059 l 126 1082 l 126 1084 q 111 1140 125 1118 q 94 1169 97 1166 q 82 1192 85 1182 q 117 1214 82 1207 q 121 1215 118 1214 q 132 1217 123 1215 q 138 1218 135 1218 q 140 1219 139 1218 l 151 1219 q 163 1221 153 1221 q 170 1222 167 1221 q 171 1223 171 1223 l 175 1223 q 218 1227 199 1225 l 221 1227 l 224 1227 q 300 1210 275 1227 q 351 1139 330 1193 l 768 1169 q 835 1271 771 1244 q 951 1299 868 1287 q 993 1304 979 1304 l 994 1304 q 1017 1293 1014 1304 q 1011 1271 1014 1283 q 1010 1264 1010 1270 q 1008 1255 1010 1257 q 1007 1251 1007 1254 l 1007 1249 q 1006 1247 1006 1249 q 1002 1208 1002 1232 l 1002 1196 q 1003 1185 1003 1194 q 1006 1181 1006 1182 l 1006 1182 q 1008 1168 1007 1175 q 1011 1156 1010 1161 q 1013 1141 1013 1147 q 1010 1124 1013 1137 l 1010 1112 q 1007 1094 1010 1112 q 994 1076 1004 1076 q 979 1067 991 1069 q 958 1063 965 1064 q 908 1057 947 1057 l 903 1057 l 899 1057 q 828 1069 860 1057 q 775 1141 786 1092 l 672 1133 l 657 983 l 665 983 l 673 983 q 800 945 757 983 q 840 839 836 909 l 840 831 l 840 822 q 836 772 840 800 q 766 615 827 673 q 616 553 711 558 l 611 553 l 606 553 q 464 585 538 553 l 465 568 l 465 559 q 503 376 467 475 q 611 240 547 254 q 742 227 713 228 q 823 224 819 224 l 852 224 l 863 224 q 904 227 869 224 q 946 231 939 231 q 958 227 958 231 l 942 154 q 950 82 942 103 l 974 28 q 985 24 985 25 q 945 17 985 20 l 939 17 l 932 17 q 850 20 876 17 q 807 31 822 21 q 774 50 782 36 q 757 86 764 62 q 739 114 750 109 q 743 125 743 119 q 742 138 743 129 q 739 150 739 146 l 734 163 l 734 195 l 737 195 l 729 195 q 693 193 696 195 q 659 192 684 192 q 635 191 646 191 q 625 189 631 189 l 607 189 q 600 187 606 187 l 564 186 l 550 186 q 446 192 482 186 q 366 215 399 195 q 313 187 340 207 q 282 161 282 170 q 292 138 289 144 q 298 117 294 129 q 307 77 306 109 l 307 75 l 307 72 q 293 17 307 37 q 249 -22 278 -7 q 131 -50 193 -49 l 125 -50 l 119 -50 q 71 -45 86 -50 q 69 -43 71 -43 q 68 -41 69 -41 q 66 -40 66 -40 l 66 -39 q 65 -35 65 -37 q 64 -33 64 -33 m 456 656 q 463 624 458 625 q 518 611 490 611 l 519 611 q 612 700 579 612 q 637 846 637 766 l 637 854 l 637 861 l 637 888 l 637 893 q 636 899 636 895 q 635 900 636 900 l 635 901 q 610 940 628 926 q 564 956 574 956 l 562 956 q 514 935 532 953 q 481 880 489 911 q 464 777 467 814 q 456 669 456 721 l 456 661 l 456 656 z "},"K":{"ha":1028,"x_min":57,"x_max":889,"o":"m 93 714 q 87 742 92 718 l 87 755 q 94 869 87 755 q 100 985 100 901 l 100 1000 q 87 1040 97 1035 q 86 1042 86 1042 q 85 1043 85 1043 q 83 1044 85 1043 q 75 1050 79 1046 q 68 1054 71 1051 q 61 1063 61 1063 q 57 1067 58 1067 l 57 1068 q 89 1086 57 1079 q 172 1100 146 1100 q 250 1109 221 1109 q 288 1111 252 1111 l 307 1111 q 330 1100 328 1105 l 330 1079 q 332 1059 332 1078 q 328 964 332 1048 q 326 947 328 954 q 325 907 326 926 q 323 879 325 885 q 322 851 323 854 q 318 789 319 808 q 317 764 317 786 q 440 810 412 802 q 550 835 513 831 l 575 835 q 623 831 599 835 q 781 764 730 810 q 842 611 836 717 l 842 574 l 842 566 l 842 533 q 825 347 836 416 q 821 250 823 328 q 818 192 818 192 q 819 146 818 147 q 829 81 823 90 q 852 54 840 57 q 878 45 864 54 q 889 29 889 37 l 889 28 q 863 9 889 11 q 848 8 861 8 q 836 5 848 7 q 802 1 828 3 q 725 -8 800 0 q 701 -9 724 -9 q 654 -3 701 -8 q 621 31 628 3 q 610 96 611 43 q 608 158 608 97 l 608 211 q 616 357 610 302 q 625 450 618 401 q 635 564 627 464 q 636 602 636 566 q 635 656 636 654 q 608 758 629 724 q 529 793 578 790 l 522 793 l 515 793 l 507 791 q 411 732 441 787 q 368 567 378 677 q 351 357 353 452 q 350 293 350 355 q 354 174 350 260 q 379 68 359 79 q 411 35 408 50 q 401 21 411 26 q 385 17 395 20 q 376 14 380 17 q 372 12 375 12 q 367 12 370 12 q 363 11 364 11 q 309 0 363 9 q 257 -5 293 -5 q 239 -7 256 -7 q 189 1 210 -7 q 155 41 167 11 q 142 126 146 58 q 138 243 138 180 l 138 239 q 140 358 139 239 q 165 545 146 493 q 204 629 180 595 q 271 717 235 684 q 261 718 271 718 l 250 718 l 210 715 l 200 715 q 186 713 200 715 l 175 713 q 172 713 174 713 q 167 710 170 711 q 138 708 165 708 q 115 710 117 708 l 111 710 q 93 714 98 710 z "},"L":{"ha":972,"x_min":78,"x_max":873,"o":"m 661 775 q 711 671 689 732 q 746 522 726 623 q 753 476 747 522 q 755 450 753 476 q 757 437 755 440 q 758 427 757 428 q 762 397 760 404 q 779 254 764 367 q 825 98 796 119 q 873 50 873 65 q 812 25 873 35 q 771 18 812 25 q 745 14 753 17 q 722 9 736 11 q 714 8 720 8 q 705 7 710 8 q 697 5 703 5 q 682 4 696 4 l 681 4 q 596 72 627 4 q 574 179 574 115 q 549 501 572 336 q 476 693 519 688 q 385 571 439 689 q 319 399 330 444 q 311 321 318 393 q 310 277 310 315 q 309 253 309 273 l 307 243 l 307 244 l 307 228 l 309 170 l 309 167 q 326 100 311 127 q 358 68 340 82 q 385 40 385 54 q 354 21 385 24 q 268 8 326 18 q 191 0 204 0 l 187 0 q 118 18 140 0 q 87 86 96 36 q 85 104 87 86 l 85 111 q 83 114 83 113 q 82 117 83 115 q 81 122 81 118 q 79 154 79 126 q 78 171 78 155 l 78 178 l 78 176 l 78 192 q 87 321 78 268 q 127 490 97 399 q 231 697 161 597 q 307 790 271 758 q 379 840 345 827 q 338 899 350 878 q 330 907 334 904 q 325 913 328 909 q 318 922 319 921 q 314 933 317 925 q 313 939 313 935 q 311 945 311 940 q 310 947 310 946 q 309 950 310 949 q 302 961 307 958 q 343 978 313 966 q 419 1006 372 989 q 458 1014 444 1011 q 478 1018 472 1017 q 486 1021 484 1019 q 503 994 488 1017 q 505 990 503 994 q 507 987 507 989 q 509 983 509 986 q 514 974 513 975 q 541 928 522 950 q 566 884 561 888 q 568 882 567 882 q 571 878 568 880 q 572 876 572 878 q 574 875 574 875 q 581 868 578 873 q 582 867 582 868 q 583 865 583 865 q 585 864 583 865 q 586 863 586 863 q 587 861 586 863 q 589 860 589 860 q 590 859 589 860 q 591 857 591 859 q 593 854 593 856 q 595 852 593 854 q 597 851 596 852 q 599 850 597 851 q 600 847 599 848 q 602 846 600 847 q 603 844 603 844 q 604 843 604 843 q 661 775 644 803 z "},":":{"ha":347,"x_min":82,"x_max":306,"o":"m 144 541 l 103 562 l 100 574 q 92 624 92 624 l 98 685 l 113 707 l 139 730 l 155 737 q 201 745 201 745 l 200 745 l 199 745 l 197 745 q 204 745 200 745 q 224 742 210 743 q 237 741 227 741 q 244 739 243 741 l 248 739 q 262 737 249 737 q 277 736 275 737 q 306 730 290 730 l 298 710 q 297 686 297 703 q 296 675 296 682 l 301 608 l 293 541 l 272 536 l 232 536 q 191 538 228 538 q 167 539 168 538 q 144 541 165 541 m 176 460 q 196 461 195 460 q 216 463 197 463 l 267 463 l 283 452 l 290 439 l 290 399 l 290 375 q 289 355 289 374 l 289 357 q 286 310 289 357 l 286 313 q 283 262 286 313 l 268 258 l 262 260 l 196 249 l 107 271 l 103 283 l 93 281 l 90 301 q 85 325 86 323 q 83 332 83 326 q 82 338 82 334 l 85 358 q 89 382 87 366 q 93 403 90 399 q 110 449 100 431 q 115 452 115 452 q 121 453 119 452 q 126 454 125 453 q 135 457 135 457 l 139 457 q 150 460 139 457 l 176 460 z "},"\"":{"ha":833,"x_min":97,"x_max":751,"o":"m 142 86 l 659 114 l 660 114 q 682 93 682 114 l 682 90 q 681 65 682 66 q 679 29 679 64 l 679 25 q 693 -3 679 14 q 707 -22 707 -17 l 707 -24 q 701 -29 707 -28 q 685 -31 693 -31 q 677 -32 679 -31 l 660 -32 l 654 -32 q 574 -24 596 -32 q 507 71 510 0 l 319 62 q 258 -36 311 -7 q 161 -58 229 -57 l 155 -58 q 134 -57 135 -58 q 115 -56 132 -56 l 114 -56 q 97 -50 97 -56 q 118 -22 97 -47 q 131 0 127 -9 q 134 14 132 0 l 134 29 q 132 53 134 52 q 131 71 131 54 l 131 72 q 142 86 131 85 m 722 1076 q 729 1063 725 1068 q 741 1047 737 1050 q 742 1044 741 1046 q 714 1034 742 1034 q 696 1032 713 1032 q 677 1031 694 1031 l 671 1031 q 593 1046 639 1031 q 542 1132 549 1069 l 319 1122 q 321 1104 321 1121 l 321 1101 q 281 1026 321 1047 q 182 1008 258 1008 l 175 1008 q 134 1018 134 1008 q 144 1040 135 1018 q 157 1074 154 1059 l 157 1078 q 154 1108 155 1078 q 149 1132 149 1118 l 149 1133 q 164 1147 149 1147 q 439 1161 240 1147 q 469 1162 443 1162 q 530 1166 490 1164 q 618 1171 553 1168 q 646 1174 619 1171 q 675 1175 659 1175 q 711 1177 685 1177 q 725 1150 725 1177 q 724 1114 724 1149 q 722 1076 724 1078 m 200 241 q 193 271 195 256 l 193 272 q 241 441 193 318 q 245 453 244 449 q 250 463 249 458 q 253 468 253 465 q 260 484 257 478 q 262 492 262 492 q 265 497 262 492 q 269 505 267 503 q 278 525 273 521 q 294 562 293 557 q 306 589 294 562 q 364 733 336 660 q 401 863 401 838 l 401 864 q 399 875 401 864 q 380 892 393 885 q 357 896 371 896 l 354 896 q 325 892 345 896 q 310 882 310 886 l 310 879 q 227 758 310 807 q 109 722 153 722 q 100 725 109 724 q 115 771 109 736 q 119 818 119 793 l 119 827 q 115 875 117 865 q 104 911 114 896 l 104 913 q 142 937 104 924 q 225 953 199 953 l 228 953 q 271 947 261 953 q 297 922 290 939 q 306 920 300 920 q 330 924 314 920 q 465 947 412 946 l 476 947 q 528 943 507 947 q 575 921 545 939 q 600 892 591 911 q 608 846 607 872 l 608 843 q 567 681 608 782 q 529 590 543 619 q 521 568 524 576 q 511 545 521 561 q 510 541 511 545 q 510 542 510 542 q 507 533 510 542 q 505 532 507 533 q 504 529 504 529 q 496 509 500 517 q 492 498 492 498 q 490 492 492 494 q 486 485 489 490 q 481 473 482 473 l 479 473 l 488 473 q 505 475 489 475 q 543 476 536 475 q 637 486 602 486 l 644 486 q 689 479 650 486 q 736 439 722 467 q 751 371 751 403 l 751 367 q 736 289 751 338 q 689 232 720 245 q 647 215 669 220 l 648 215 q 621 212 648 214 q 607 211 610 212 q 591 210 593 211 q 554 211 555 210 l 521 211 l 513 211 q 475 210 476 211 q 440 203 452 207 q 330 187 345 187 l 325 187 q 252 201 273 187 q 200 241 220 214 m 465 439 q 418 322 453 421 q 396 243 396 277 q 401 232 396 232 q 424 225 412 225 l 425 225 q 505 290 465 225 q 543 401 543 350 l 543 404 q 539 429 543 419 q 481 439 534 439 l 465 439 z "},"Z":{"ha":882,"x_min":111,"x_max":758,"o":"m 559 851 q 551 886 557 875 q 530 907 543 903 q 518 922 521 913 l 518 924 q 562 947 518 946 q 619 958 591 956 q 629 960 625 958 q 636 961 633 961 q 644 962 640 961 q 665 965 648 962 q 690 966 669 966 q 694 965 694 966 q 724 960 717 962 q 747 926 739 956 q 750 917 749 922 q 751 905 750 911 q 753 893 751 899 q 754 878 753 888 q 758 854 755 861 l 758 856 q 757 842 757 856 l 757 802 l 757 743 q 755 729 755 739 q 754 707 755 714 l 754 694 l 754 690 q 753 686 754 688 l 753 684 q 750 660 753 673 l 750 654 l 750 650 q 749 640 749 648 l 749 639 q 732 403 749 612 q 730 383 730 392 q 729 359 730 376 q 728 340 728 349 q 726 322 728 332 q 725 298 725 314 q 724 273 725 283 q 722 243 724 248 l 722 210 q 721 193 722 197 q 720 184 721 186 q 717 140 720 184 l 717 123 l 717 117 q 715 107 715 115 l 715 96 q 725 71 717 82 q 739 53 739 60 q 724 35 739 41 q 703 31 711 32 q 676 24 694 29 q 627 12 657 17 q 579 7 614 8 l 571 7 q 511 54 514 7 q 509 64 511 54 l 509 90 q 517 254 509 147 q 533 501 533 492 q 541 571 539 546 q 543 610 543 610 q 545 625 545 616 l 351 585 l 322 111 l 322 106 l 322 87 q 335 58 323 66 q 353 35 353 45 q 318 12 353 21 q 180 -11 211 -8 l 174 -11 q 115 24 125 -11 q 113 41 115 24 q 111 75 111 46 q 117 201 111 147 l 117 200 q 119 241 117 200 q 121 262 121 257 q 122 275 121 268 q 123 290 123 282 q 125 307 123 297 q 134 418 126 338 q 146 597 138 478 q 150 631 150 604 q 149 671 150 664 l 149 673 q 144 768 149 688 l 144 783 q 139 812 143 783 q 121 835 136 819 q 113 848 113 840 l 113 850 q 160 878 113 875 q 176 879 161 879 q 193 882 179 882 l 225 884 q 253 886 244 885 q 265 886 261 886 l 264 886 q 269 885 269 886 q 319 873 294 884 q 345 822 336 868 q 355 718 349 799 l 358 657 q 357 653 357 657 q 358 639 357 642 q 357 631 357 637 l 357 619 l 551 661 q 553 711 553 694 q 554 747 553 728 q 557 789 555 787 q 559 825 558 825 l 559 823 q 558 839 558 827 q 559 844 558 843 l 559 851 z "},"X":{"ha":1438,"x_min":29,"x_max":1297,"o":"m 29 207 l 29 220 q 47 371 32 262 q 57 399 53 383 q 68 435 64 419 q 86 481 75 454 q 103 526 97 504 q 131 574 122 550 q 207 667 151 604 q 221 677 208 667 q 243 694 233 688 q 279 724 267 715 q 315 749 294 737 q 371 765 329 753 q 419 782 406 781 q 496 803 463 787 q 574 810 509 804 q 631 814 615 811 q 665 818 650 817 q 685 821 679 819 q 712 822 703 821 q 728 823 722 823 q 745 825 732 823 q 803 828 803 828 q 802 828 803 828 l 803 828 q 796 823 803 828 q 831 822 800 822 q 843 821 832 821 l 852 821 l 851 821 q 884 822 882 821 q 924 823 922 822 q 956 825 925 825 l 968 825 q 1096 812 1038 825 q 1182 774 1150 802 q 1282 607 1274 711 q 1286 533 1286 576 q 1287 526 1286 529 q 1289 524 1289 524 q 1287 510 1289 514 q 1286 494 1286 505 q 1287 486 1286 489 q 1289 473 1289 484 q 1286 468 1289 471 l 1289 440 l 1289 427 q 1287 408 1289 418 q 1286 378 1287 399 q 1283 243 1283 269 q 1297 0 1283 94 q 1227 5 1297 5 q 1200 3 1204 5 q 1193 5 1200 3 q 1178 8 1185 8 q 1168 4 1173 4 q 1164 5 1165 4 q 1160 7 1161 5 q 1157 8 1157 7 l 1152 8 q 1109 20 1121 8 q 1090 71 1090 43 l 1099 207 q 1097 233 1099 225 q 1096 254 1096 243 q 1097 271 1096 264 q 1099 282 1099 278 q 1093 288 1099 286 q 1097 297 1093 289 q 1100 309 1100 309 q 1096 319 1100 314 q 1103 386 1103 350 l 1103 415 q 1101 437 1101 422 q 1103 457 1101 452 l 1103 475 q 1099 492 1103 488 q 1100 498 1100 496 q 1101 504 1100 501 q 1104 514 1104 514 q 1101 518 1104 518 l 1101 521 l 1099 529 l 1099 546 l 1099 574 q 1101 600 1099 574 q 1099 619 1101 611 q 1093 665 1095 665 l 1093 664 q 1032 766 1093 739 q 901 786 982 786 l 892 786 q 879 785 880 786 q 852 783 854 785 q 838 782 848 783 q 802 781 827 782 l 800 764 l 800 765 l 799 726 q 794 667 798 675 q 789 604 790 606 q 781 475 782 530 q 779 437 779 460 q 779 424 779 429 q 777 408 778 416 q 775 382 777 390 q 771 323 774 347 q 888 338 831 323 q 897 339 889 339 q 909 340 899 340 q 949 345 930 343 q 1007 321 979 345 q 1038 229 1038 290 l 1038 216 l 1036 212 q 946 77 1031 107 q 882 62 933 68 q 764 57 808 58 q 673 43 742 57 q 624 32 636 32 l 621 32 q 587 41 600 32 q 568 75 572 56 q 566 136 566 136 l 566 174 l 566 221 l 567 261 q 579 431 570 261 q 603 661 585 532 q 611 742 608 730 q 614 760 611 749 q 615 775 614 774 q 604 777 614 777 l 600 777 q 493 754 543 775 q 346 653 407 722 q 282 522 302 587 q 250 351 254 432 l 250 346 l 250 339 q 349 343 278 342 q 429 351 380 347 l 431 351 q 501 318 476 351 q 525 235 525 286 l 525 222 l 525 218 q 422 85 519 115 q 241 64 370 68 q 170 54 189 54 q 103 46 118 46 l 100 46 q 64 53 92 46 q 41 78 49 60 q 40 86 40 79 q 39 90 39 89 q 37 97 39 93 q 36 109 36 102 q 35 122 35 114 q 33 127 33 125 q 29 207 29 184 m 235 135 q 236 110 235 111 q 268 92 237 92 l 269 92 q 315 117 289 93 q 342 197 338 144 l 342 203 l 343 235 q 345 248 345 236 q 330 290 345 281 q 260 298 317 298 l 240 298 l 237 244 l 236 218 l 236 205 q 235 184 235 201 q 236 176 235 178 q 235 135 235 168 m 753 140 q 757 107 754 115 q 789 93 762 93 l 791 93 q 838 114 811 94 q 864 196 863 144 l 864 201 q 865 229 865 205 q 859 279 865 261 q 815 297 847 297 l 814 297 q 768 293 794 297 q 765 272 766 292 l 764 249 q 760 220 761 241 l 760 210 q 755 172 757 201 q 754 153 755 154 l 753 144 l 753 140 z "},"C":{"ha":1162,"x_min":41,"x_max":1101,"o":"m 1051 764 q 1071 757 1071 764 q 1057 732 1071 754 q 1051 720 1051 726 q 1043 679 1043 700 q 1053 633 1043 647 q 1089 579 1065 608 q 1101 555 1101 566 q 1092 543 1101 546 q 1054 534 1075 542 q 1023 530 1039 533 q 1010 529 1021 529 q 1003 528 1008 528 l 1004 528 q 979 526 1002 526 q 965 525 978 525 q 873 551 904 525 q 833 669 833 587 q 835 704 833 703 l 653 685 q 643 484 653 593 q 632 253 636 353 q 628 178 628 189 q 625 158 627 167 q 624 123 624 157 q 631 87 624 111 q 659 66 637 72 q 677 47 677 60 q 633 22 677 31 q 546 5 582 11 q 476 -3 504 -3 q 407 41 424 -3 q 400 123 400 86 q 408 307 400 187 q 410 326 408 325 q 411 346 410 345 q 416 414 411 371 q 424 507 419 479 q 432 648 432 606 q 353 639 387 648 q 300 629 334 639 q 258 473 288 511 q 111 399 222 429 q 60 390 72 390 q 41 400 41 390 q 46 411 41 406 q 58 427 54 419 q 85 513 85 464 q 75 566 85 547 q 72 571 75 566 q 71 576 72 575 q 69 581 69 578 q 65 589 66 586 q 64 593 65 591 l 64 596 q 62 600 62 597 q 61 604 61 602 q 60 610 60 607 q 58 611 58 610 q 57 614 58 611 q 56 616 57 616 q 54 618 54 618 l 54 619 q 81 636 54 635 q 277 663 204 644 q 437 689 375 671 l 452 968 l 366 953 q 279 854 335 885 q 176 825 253 836 q 94 817 102 817 q 77 823 77 817 q 107 872 83 831 q 119 921 119 896 q 118 939 119 937 q 98 993 111 978 q 94 1002 96 1000 q 93 1004 93 1003 q 92 1007 93 1006 q 90 1010 90 1008 q 87 1013 89 1011 q 81 1023 87 1013 q 79 1026 79 1025 l 79 1028 l 78 1028 q 75 1032 75 1031 q 71 1039 72 1035 q 86 1054 71 1047 q 144 1072 97 1064 l 143 1072 l 142 1072 l 140 1072 q 139 1072 139 1072 q 164 1075 139 1072 q 174 1076 165 1076 q 178 1078 175 1078 q 203 1079 179 1079 q 300 1060 245 1079 q 363 987 351 1035 l 761 1054 q 815 1160 761 1122 q 978 1202 876 1202 l 1025 1202 q 1050 1192 1050 1198 q 1032 1156 1042 1182 q 1023 1112 1023 1135 q 1025 1093 1023 1095 q 1055 1035 1032 1059 q 1080 1008 1080 1013 q 1061 990 1080 1002 q 985 960 1025 974 q 924 951 962 951 q 838 966 888 951 q 774 1026 793 985 l 677 1010 q 665 860 669 921 q 657 718 657 742 q 708 724 682 722 q 766 732 732 725 q 895 749 869 743 q 981 757 942 753 q 1032 761 1014 758 q 1046 762 1042 761 q 1051 764 1050 764 z "},"V":{"ha":1000,"x_min":79,"x_max":972,"o":"m 165 888 q 121 886 163 886 l 98 886 q 79 897 82 889 q 119 947 102 916 q 135 996 135 977 l 135 1002 q 122 1060 134 1031 q 118 1068 122 1063 q 111 1082 115 1075 q 103 1096 110 1086 q 94 1109 96 1105 q 109 1120 94 1118 q 158 1124 122 1122 l 186 1124 q 313 1092 267 1124 q 346 1029 332 1071 l 736 1063 q 741 1096 736 1086 q 876 1193 766 1175 q 897 1197 896 1194 q 907 1198 903 1197 q 914 1200 911 1200 q 929 1202 916 1202 q 947 1203 946 1202 l 953 1203 q 972 1194 971 1203 q 940 1125 968 1186 q 929 1061 929 1069 l 929 1054 q 945 1013 930 1021 q 971 971 962 982 q 958 958 971 962 q 945 957 950 957 q 926 956 937 957 q 913 956 918 956 q 899 953 905 954 q 884 951 897 951 q 793 974 819 951 q 743 1035 777 986 l 640 1028 l 640 1026 q 635 890 640 951 q 633 859 635 861 l 633 842 q 632 835 632 840 l 632 836 q 633 823 632 825 l 633 817 q 728 794 708 812 q 793 654 786 761 q 794 632 794 653 l 794 633 l 794 623 q 793 608 793 618 q 791 583 793 591 q 774 366 782 492 q 770 261 772 330 q 768 216 768 235 q 766 196 766 197 l 766 167 q 774 94 770 138 q 793 58 778 66 q 808 37 808 53 q 777 20 808 22 q 715 14 742 20 q 665 9 689 11 l 652 9 q 610 17 636 9 q 583 52 589 29 q 582 62 582 53 q 581 75 581 64 q 576 104 579 93 q 572 140 575 129 q 571 184 571 142 q 585 396 571 300 q 589 437 586 411 q 590 456 589 453 q 591 464 591 458 q 595 486 595 486 q 596 507 595 497 q 597 525 597 509 q 599 543 599 529 q 607 619 599 543 q 608 642 608 629 q 610 660 608 653 q 611 676 611 668 q 612 688 611 684 q 614 700 614 692 l 614 708 q 599 771 611 742 q 554 800 579 794 q 543 802 553 802 q 538 803 542 803 q 458 751 504 802 q 403 644 416 703 q 383 539 392 597 q 370 397 376 481 q 359 203 359 298 q 361 174 359 175 l 361 153 l 361 140 l 361 131 q 363 123 363 129 q 364 117 364 122 q 367 115 366 115 q 367 113 367 114 l 367 109 l 367 97 q 380 77 370 87 q 400 54 400 61 l 400 53 q 387 39 400 45 q 339 28 379 33 q 285 20 311 26 q 254 16 258 16 l 244 16 q 199 24 216 16 q 170 60 179 33 q 168 74 170 71 q 167 87 168 85 l 167 93 l 167 94 q 165 96 165 96 q 164 97 165 96 q 163 180 163 100 q 164 225 164 189 l 164 245 q 165 282 164 264 l 165 323 q 167 375 167 326 q 168 414 168 376 q 170 463 170 415 l 170 486 q 228 671 170 593 q 282 730 250 703 q 354 775 310 754 q 366 781 363 781 q 370 782 368 782 q 372 783 371 782 q 378 785 376 783 q 382 786 379 786 q 385 787 383 786 q 415 800 399 790 q 439 810 433 810 q 443 811 441 810 q 444 812 443 811 l 446 1004 l 347 999 q 297 928 339 956 q 165 888 249 895 z "},"B":{"ha":958,"x_min":89,"x_max":818,"o":"m 564 457 l 564 478 q 568 615 564 478 q 570 713 570 629 q 571 753 571 718 l 571 751 l 571 783 q 546 929 570 875 q 460 986 518 986 l 456 986 q 329 882 368 983 q 304 777 315 844 q 296 624 296 714 l 296 554 q 297 530 297 553 q 296 458 297 461 q 290 235 290 390 l 290 201 l 290 179 l 290 171 l 290 167 l 290 164 l 290 163 q 300 102 292 122 q 329 72 307 79 q 350 54 350 64 q 334 36 350 41 q 277 28 317 29 q 222 24 244 26 q 201 22 203 24 q 179 21 180 22 l 172 21 q 127 31 142 21 q 100 75 111 41 q 94 127 96 81 q 90 178 92 168 q 89 275 89 180 l 89 317 q 90 436 89 433 l 90 453 q 102 633 90 472 q 136 817 114 779 q 264 958 180 909 q 436 1022 336 1000 q 541 1035 482 1034 l 561 1035 q 657 1023 595 1035 q 726 974 703 1010 q 768 889 757 930 q 778 839 775 863 q 782 791 781 814 l 782 721 l 782 697 l 782 635 l 782 610 l 782 597 q 774 366 782 581 q 770 233 772 250 q 768 189 770 195 q 766 154 766 183 l 766 155 l 766 153 l 766 151 q 768 132 768 147 q 770 117 770 129 q 772 106 771 110 q 772 100 772 102 l 772 89 q 798 61 775 66 q 818 43 818 57 q 753 20 818 22 q 684 14 703 14 q 652 12 681 12 q 635 11 636 12 l 628 11 l 618 11 q 576 16 590 11 q 553 40 558 21 q 551 53 551 45 q 550 62 551 58 l 550 74 q 550 81 550 78 q 547 89 549 82 q 546 114 546 90 q 551 235 546 203 q 559 392 557 332 q 564 457 561 437 z "},"N":{"ha":708,"x_min":72,"x_max":608,"o":"m 189 68 q 187 74 187 69 q 231 207 187 106 q 304 385 232 221 q 366 575 366 559 q 354 607 366 586 q 317 636 340 631 q 262 644 288 644 q 212 640 261 644 q 187 636 196 637 q 171 635 172 636 q 155 633 170 633 q 131 629 138 632 q 74 659 87 629 q 72 677 72 660 q 85 779 72 693 q 90 807 86 781 q 97 846 93 823 q 109 903 102 868 q 110 924 110 904 q 109 930 110 929 q 107 949 109 947 q 106 950 106 950 q 104 951 106 950 q 103 953 104 953 q 100 956 102 954 q 98 957 98 957 q 97 960 98 958 q 81 979 81 970 q 134 1004 81 999 q 170 1008 146 1006 q 205 1010 192 1010 q 224 1011 221 1011 q 228 1011 227 1011 q 310 1013 229 1013 l 323 1013 q 349 991 349 1013 q 322 907 349 970 q 289 800 290 836 q 285 754 285 771 q 323 669 285 693 q 407 656 346 656 q 522 673 494 673 q 575 659 547 673 q 607 606 597 642 q 608 590 608 604 q 591 518 608 566 q 525 361 590 518 q 518 343 519 346 q 511 328 517 335 q 507 317 509 319 q 505 313 505 314 q 503 307 504 310 q 501 304 501 306 q 500 300 501 302 q 497 294 497 294 q 496 290 496 292 q 494 288 494 289 q 472 233 494 288 q 431 119 439 154 q 427 103 429 115 q 421 83 421 93 q 436 57 421 68 q 446 43 446 52 q 351 7 446 22 q 307 3 313 3 q 292 1 294 3 q 279 0 289 0 q 227 14 240 0 q 189 68 203 29 z "},"M":{"ha":1543,"x_min":49,"x_max":1423,"o":"m 49 281 q 87 431 49 355 q 208 603 135 534 q 315 677 245 640 q 428 720 375 715 q 589 736 498 726 q 627 741 615 739 q 644 742 639 741 q 657 745 653 743 q 665 745 661 745 q 679 747 672 746 q 694 747 686 747 q 842 761 754 753 q 1103 787 1006 781 l 1104 778 l 1104 774 q 1117 781 1104 775 q 1133 775 1132 777 q 1137 774 1136 775 q 1157 775 1156 774 q 1186 777 1158 777 q 1247 783 1200 782 l 1263 786 l 1278 786 l 1283 786 q 1385 736 1349 785 q 1421 627 1415 703 q 1422 597 1422 623 q 1423 585 1423 596 q 1398 443 1423 503 q 1318 332 1369 350 q 1179 307 1289 321 q 1023 283 1050 292 q 986 275 1017 282 q 978 273 981 275 q 962 269 965 271 q 954 268 956 269 q 947 267 953 267 l 945 267 q 939 264 945 267 q 926 262 937 262 l 928 262 l 929 262 q 899 265 929 264 q 857 285 872 271 q 843 301 850 289 q 836 332 839 311 l 836 349 q 856 484 836 389 q 879 586 868 533 q 904 692 895 635 q 890 726 901 713 q 863 734 875 734 l 859 734 q 823 717 835 730 q 778 610 815 711 q 775 604 778 608 q 771 591 774 597 q 754 551 770 589 q 734 505 746 530 q 718 463 721 469 q 713 452 715 456 q 708 441 710 446 q 696 411 696 411 q 623 244 665 336 q 582 211 611 222 q 510 195 543 200 l 461 189 q 403 187 406 189 q 368 186 399 186 l 374 186 q 363 184 364 186 q 343 180 358 183 q 323 176 326 179 q 317 175 319 175 q 314 174 315 175 q 310 172 311 174 q 286 165 310 172 q 282 164 285 164 q 279 163 281 164 q 271 161 272 163 q 264 158 264 160 q 258 157 260 158 q 215 149 232 155 q 192 147 214 147 q 171 149 172 147 q 110 165 147 153 q 50 257 57 184 q 49 281 49 258 m 281 288 q 282 272 281 273 q 302 227 285 245 q 342 212 315 212 l 350 212 q 422 260 396 220 q 546 504 458 315 q 561 550 554 536 q 562 553 561 551 q 564 555 562 554 q 567 561 567 558 q 568 567 568 562 q 570 570 570 568 q 571 571 570 570 q 572 575 572 572 q 574 578 574 576 q 575 579 574 578 q 576 583 575 582 q 578 587 578 585 q 578 589 578 587 q 579 596 578 590 q 582 608 579 596 q 590 632 587 625 q 596 640 596 640 q 597 644 597 642 q 599 647 597 646 q 603 657 602 656 q 604 660 604 659 q 606 664 604 663 q 610 682 608 677 q 611 686 611 685 q 615 696 612 689 q 624 715 618 705 l 596 713 q 571 711 595 711 l 570 711 q 469 682 500 705 q 408 625 447 668 q 328 488 353 553 q 281 294 288 385 l 281 288 m 1054 368 q 1061 345 1055 354 q 1108 326 1079 326 q 1117 328 1116 326 q 1158 349 1140 330 q 1219 528 1203 399 q 1225 586 1225 539 l 1225 593 l 1225 611 q 1223 646 1225 644 q 1174 747 1217 708 l 1178 747 q 1168 749 1169 747 l 1146 749 q 1103 750 1107 749 q 1095 689 1103 749 q 1090 660 1093 676 q 1084 629 1088 642 q 1082 611 1082 615 q 1079 595 1080 603 q 1076 576 1078 585 q 1054 392 1054 464 l 1054 368 z "},"<":{"ha":1284,"x_min":36,"x_max":1096,"o":"m 643 68 q 660 46 660 58 q 616 25 660 25 q 568 20 591 25 q 500 14 533 14 q 453 21 490 14 q 429 47 436 26 q 418 109 419 69 q 414 174 414 139 q 421 289 414 203 q 427 326 422 290 q 431 355 429 338 q 433 359 432 358 q 433 364 433 363 l 433 371 q 435 376 435 372 l 435 385 q 436 393 435 392 q 482 557 446 475 q 589 720 526 659 q 581 721 587 721 q 550 717 568 721 q 446 701 453 701 q 410 707 415 701 q 397 726 397 714 l 422 987 l 319 974 q 239 884 314 914 q 110 860 178 860 q 111 860 111 860 q 52 863 111 861 q 36 872 36 865 q 64 924 52 896 q 77 981 77 957 q 68 1032 77 1010 q 61 1050 62 1046 q 58 1063 58 1059 q 54 1069 56 1068 q 50 1079 52 1075 q 65 1095 50 1089 q 122 1105 78 1099 q 154 1109 146 1107 q 170 1111 167 1109 q 175 1112 171 1112 l 192 1112 q 265 1095 239 1112 q 329 1014 304 1069 l 729 1055 q 861 1186 729 1162 q 957 1198 929 1192 q 989 1200 960 1200 q 1011 1187 1011 1200 q 1004 1162 1011 1187 q 983 1089 983 1116 q 985 1061 983 1064 q 1003 1021 986 1042 q 1008 1017 1007 1017 q 1010 1014 1008 1015 q 1011 1013 1011 1013 q 1013 1011 1011 1013 q 1015 1010 1014 1011 q 1017 1007 1015 1008 q 1018 1004 1018 1006 q 1019 1002 1018 1003 q 1023 997 1022 999 q 1026 994 1025 996 q 1028 991 1026 993 q 1032 986 1029 989 q 1034 985 1034 985 q 1034 983 1034 983 q 1023 977 1034 979 q 1011 974 1019 975 q 987 966 1002 971 q 865 953 936 953 q 778 970 812 953 q 725 1025 745 983 l 637 1015 q 633 901 636 940 q 624 753 629 799 q 659 768 635 755 q 684 779 682 779 q 707 789 704 786 q 847 819 760 808 q 911 823 882 823 q 1064 757 1025 823 q 1095 591 1095 705 l 1095 501 q 1093 460 1093 496 q 1092 444 1092 457 q 1080 298 1092 416 q 1064 174 1067 200 q 1061 143 1063 143 q 1060 117 1060 142 q 1063 83 1061 117 q 1074 60 1065 66 q 1096 41 1096 50 q 1082 29 1096 35 q 1069 26 1082 29 q 1055 22 1061 25 q 1047 20 1047 20 q 966 8 1039 18 q 918 4 936 4 q 865 11 896 4 q 840 33 844 18 q 835 77 835 39 q 864 326 835 139 q 886 500 886 493 q 895 572 893 538 q 903 681 903 644 q 897 742 903 728 q 872 778 892 768 q 832 789 848 789 q 726 696 777 789 q 671 547 692 628 q 640 357 650 454 q 629 207 629 216 l 629 171 l 629 175 q 632 97 631 175 q 643 68 635 75 z "},">":{"ha":1300,"x_min":71,"x_max":1235,"o":"m 940 431 q 913 421 921 425 q 900 415 900 415 q 895 414 899 414 q 872 406 885 407 q 811 393 838 396 l 804 393 q 770 397 787 393 q 730 416 741 406 q 648 329 676 351 q 575 290 618 306 q 473 269 530 275 l 429 267 q 421 268 428 268 q 412 269 419 269 q 399 271 400 269 l 392 271 q 375 269 376 271 q 355 265 358 265 q 311 257 347 262 q 201 231 236 231 q 189 229 200 229 q 135 241 155 229 q 79 304 102 262 q 71 339 72 325 l 71 347 q 97 484 71 412 q 139 596 110 511 q 142 600 140 599 q 142 603 142 602 q 143 608 142 607 q 144 612 143 611 q 149 621 146 618 q 150 625 149 624 q 154 636 153 633 q 155 639 155 637 q 158 647 155 639 q 160 650 160 648 q 161 653 161 652 q 163 659 161 657 q 164 663 163 661 q 165 665 164 665 q 167 669 167 667 q 168 673 168 671 q 170 677 170 675 q 171 679 171 677 l 171 681 q 176 725 176 694 l 176 733 q 154 778 174 766 q 144 789 144 782 q 167 807 144 798 q 215 819 187 817 q 253 825 252 823 q 281 829 275 829 q 297 831 282 831 q 304 832 298 832 l 302 832 l 301 832 q 318 835 301 833 q 336 836 319 836 l 354 836 l 372 836 q 392 822 385 835 q 400 779 399 811 q 401 761 401 778 l 401 762 q 399 717 401 762 q 396 700 397 707 q 395 689 395 693 q 392 679 393 685 q 387 663 389 665 q 386 657 386 661 q 385 648 386 652 q 330 475 371 602 q 301 351 301 379 l 301 349 l 301 346 q 322 311 301 319 q 367 301 336 301 q 378 302 376 301 q 440 318 421 306 q 482 351 463 328 q 513 422 492 370 q 547 536 519 440 q 591 703 589 672 q 593 721 591 720 q 595 736 595 722 q 596 746 596 737 l 596 750 q 572 796 595 783 q 561 811 561 803 l 561 812 q 570 828 561 821 q 604 839 575 833 q 663 851 624 840 q 730 861 694 859 l 753 863 q 781 861 779 863 q 811 843 802 861 q 825 793 822 828 q 827 785 827 791 q 810 665 827 729 q 800 625 808 648 q 798 614 800 625 q 793 596 796 606 q 787 575 790 583 q 785 562 785 566 l 785 558 q 827 500 786 541 q 904 457 869 457 l 908 457 q 965 478 943 460 q 999 532 983 494 q 1013 628 1004 545 q 1017 704 1017 671 q 1015 725 1017 724 q 1017 734 1017 726 q 1015 753 1017 751 q 1013 781 1014 753 q 996 798 1004 790 q 979 814 979 808 l 979 815 q 1023 842 979 829 q 1129 859 1074 854 q 1161 860 1131 860 l 1160 860 l 1157 860 l 1156 860 q 1165 860 1158 860 q 1190 857 1173 859 q 1221 821 1211 850 q 1234 739 1232 783 q 1235 699 1235 737 q 1234 660 1235 661 q 1219 597 1229 614 q 1117 481 1193 521 q 940 431 1050 449 z "},"?":{"ha":884,"x_min":118,"x_max":754,"o":"m 467 75 q 379 46 456 69 q 306 12 318 21 q 279 1 296 4 q 252 -3 267 -3 q 163 39 203 -3 q 125 139 125 83 q 121 189 122 155 q 118 249 118 243 q 144 528 118 397 q 174 663 160 615 q 195 729 184 708 q 243 804 211 770 q 309 848 272 835 q 338 852 319 850 q 350 854 346 854 q 364 857 355 856 q 380 860 372 859 q 482 876 465 873 q 611 913 561 913 q 696 885 654 913 q 742 796 729 856 q 754 647 754 737 q 741 450 754 522 q 699 279 725 343 q 597 119 656 161 q 467 75 564 97 m 542 554 q 543 654 542 650 q 546 694 546 673 q 547 732 547 700 q 541 807 547 768 q 494 843 530 843 q 439 822 465 843 q 396 724 418 806 q 374 628 386 690 q 366 579 370 608 q 355 518 361 551 q 457 534 372 518 q 479 539 463 538 q 510 546 489 545 q 542 554 536 553 m 389 90 q 490 221 453 104 q 536 515 536 357 l 349 478 q 328 335 329 363 q 321 228 321 235 q 334 126 321 165 q 376 89 346 89 q 389 90 387 89 z "}," ":{"ha":743,"x_min":0,"x_max":0,"o":""},"":{"ha":71,"x_min":-865,"x_max":-374,"o":"m -865 -77 q -844 -125 -851 -96 q -843 -131 -843 -126 q -842 -138 -842 -132 q -839 -146 -842 -144 q -839 -150 -839 -147 l -839 -151 q -838 -175 -838 -153 q -839 -215 -838 -175 q -864 -283 -847 -268 l -852 -283 q -829 -282 -831 -283 q -777 -273 -829 -282 q -697 -237 -732 -262 q -646 -187 -661 -215 q -623 -71 -623 -107 l -623 -65 q -624 -62 -624 -64 l -624 -61 q -621 -37 -624 -40 l -374 40 l -382 72 l -865 -77 z "},"":{"ha":269,"x_min":-296,"x_max":170,"o":"m -296 243 l -289 245 l -227 265 l -161 285 l -96 297 l -46 306 q 8 307 5 306 q 134 258 94 306 q 170 149 170 211 l 170 146 q 28 3 170 8 l -53 4 l -132 7 l -211 12 l -283 24 l -278 43 l -212 35 q -165 31 -196 31 q -78 54 -110 31 q -33 144 -33 83 l -33 158 l -35 174 l -39 193 l -53 214 l -72 232 l -98 244 l -119 250 l -135 252 l -170 254 l -232 248 l -293 231 l -296 243 z "},"‚":{"ha":386,"x_min":79,"x_max":285,"o":"m 94 192 l 285 192 l 285 57 q 271 -75 285 -35 q 218 -161 257 -122 q 117 -222 178 -199 l 79 -143 q 161 -90 138 -125 q 186 0 183 -58 l 94 0 l 94 192 z "},"ƒ":{"ha":330,"x_min":62,"x_max":269,"o":"m 98 640 l 62 827 l 62 994 l 269 994 l 269 827 l 239 640 l 98 640 z "},"„":{"ha":541,"x_min":43,"x_max":492,"o":"m 43 811 l 75 908 q 231 842 182 869 q 216 1011 218 965 l 317 1011 q 300 843 314 945 q 461 908 371 878 l 492 811 q 322 774 406 783 q 439 646 364 737 l 358 587 q 265 733 318 642 q 176 587 215 637 l 96 646 q 208 774 175 743 q 43 811 121 790 z "},"…":{"ha":1275,"x_min":81,"x_max":1182,"o":"m 82 119 q 81 136 81 127 q 125 301 81 221 q 180 375 147 342 q 321 481 220 410 q 433 566 389 526 q 532 671 497 618 q 571 779 571 729 q 571 785 571 782 q 568 802 570 800 q 522 804 559 804 q 461 803 497 804 q 378 802 403 802 q 343 800 353 800 l 346 800 l 298 798 q 272 796 281 796 q 265 798 267 796 q 257 810 257 800 q 258 817 258 814 q 260 823 260 821 q 260 831 260 828 q 260 835 260 833 q 260 839 260 838 q 262 861 261 851 q 262 880 262 872 q 262 888 262 885 q 262 895 262 892 q 262 908 262 904 q 254 953 262 922 q 235 997 243 970 q 235 999 235 997 q 258 1013 235 1011 q 277 1013 267 1013 q 396 991 339 1013 q 496 840 490 951 q 650 844 558 844 q 779 846 714 846 q 867 847 844 847 q 911 848 888 847 q 1026 986 929 943 q 1161 1017 1080 1013 q 1162 1017 1162 1017 q 1181 1007 1179 1017 q 1166 972 1181 1004 q 1146 921 1150 940 q 1133 828 1140 903 q 1105 802 1131 803 q 1079 800 1095 800 q 1025 803 1055 800 q 921 803 962 803 q 884 803 900 803 q 814 800 852 803 q 758 675 800 739 q 682 589 725 629 q 657 568 671 579 q 608 526 642 555 q 545 472 575 497 q 397 328 456 401 q 342 239 363 285 q 310 144 319 195 q 307 111 307 129 q 307 100 307 106 q 395 29 310 29 q 406 29 400 29 q 486 41 436 31 q 541 199 503 144 q 668 301 586 262 q 847 347 733 329 q 1083 367 958 361 l 1114 370 l 1132 370 q 1136 370 1133 370 q 1153 359 1152 370 q 1147 328 1152 358 q 1143 283 1143 298 q 1143 279 1143 281 q 1146 261 1143 264 q 1152 235 1147 253 q 1161 192 1152 216 q 1177 158 1169 171 q 1182 143 1182 144 q 1182 142 1182 142 q 1168 134 1182 135 q 1140 134 1154 134 q 985 171 1043 134 q 913 313 918 216 q 783 264 819 307 q 711 32 733 210 q 682 28 696 29 q 657 25 667 25 q 636 21 646 24 q 574 9 599 14 q 528 3 558 8 q 464 -5 497 -1 q 283 -37 380 -20 q 261 -40 281 -40 q 243 -43 258 -41 q 232 -43 237 -43 q 123 1 161 -43 q 82 119 86 49 z "},"†":{"ha":829,"x_min":96,"x_max":755,"o":"m 553 732 q 585 733 564 733 q 703 697 661 733 q 754 564 746 657 q 755 522 755 551 q 754 488 755 498 q 747 397 750 422 q 697 231 739 313 q 614 111 664 165 q 528 57 581 72 q 361 24 437 36 q 296 -3 313 0 q 232 -18 257 -17 l 220 -18 q 147 14 174 -18 q 102 155 113 52 q 96 275 96 220 q 103 375 96 325 q 119 447 113 406 q 131 489 131 489 q 187 610 144 550 q 346 701 252 696 q 342 802 345 750 q 336 918 339 846 q 325 946 334 933 q 313 966 313 962 l 313 968 q 334 981 313 979 q 431 989 400 983 q 507 1000 450 993 q 522 1002 513 1002 q 542 999 533 1002 q 554 971 551 993 q 549 857 551 935 l 549 828 q 553 732 549 783 m 528 515 q 517 619 521 604 q 463 704 503 694 q 385 646 414 700 q 347 478 355 590 q 407 492 378 484 q 468 503 437 496 q 528 515 497 510 m 342 437 q 328 273 328 285 q 325 195 325 212 q 328 146 325 172 q 375 65 334 65 l 378 65 q 389 68 387 65 q 468 180 432 82 q 525 479 503 282 q 432 458 496 473 q 389 447 415 453 q 342 437 363 441 z "},"‡":{"ha":1341,"x_min":46,"x_max":1268,"o":"m 461 961 q 458 977 458 975 l 458 979 q 456 1006 456 982 q 463 1101 457 1006 q 471 1153 464 1129 l 332 1154 q 231 1064 321 1089 q 85 1047 175 1047 q 46 1057 46 1047 q 81 1112 57 1071 q 96 1179 96 1158 q 82 1227 96 1210 q 77 1238 81 1231 q 68 1250 71 1244 q 64 1258 65 1253 q 60 1264 61 1263 q 56 1271 57 1268 q 53 1274 54 1272 q 65 1283 53 1279 q 104 1293 72 1283 q 121 1296 121 1296 l 131 1296 l 146 1296 l 163 1296 q 271 1275 228 1296 q 334 1187 326 1247 l 783 1208 q 832 1286 799 1261 q 922 1322 869 1317 q 1004 1326 978 1325 q 1029 1328 1028 1326 q 1046 1329 1031 1329 q 1067 1322 1067 1329 q 1048 1282 1059 1311 q 1040 1240 1040 1264 q 1048 1198 1040 1222 q 1072 1152 1057 1171 q 1086 1135 1086 1135 q 1090 1128 1088 1131 q 1055 1109 1090 1118 q 996 1099 1032 1100 q 939 1095 971 1095 q 844 1111 880 1095 q 794 1174 802 1129 l 746 1174 q 686 1166 705 1173 q 689 1150 689 1150 l 689 1139 l 689 1126 l 689 1129 q 686 1065 689 1129 q 685 1053 685 1064 q 684 1039 684 1051 q 682 1025 684 1026 q 681 1017 681 1023 q 708 1011 684 1011 q 787 1017 760 1011 q 879 1021 868 1021 q 916 1019 914 1021 q 936 1011 928 1017 q 947 987 943 1004 q 950 971 949 975 q 950 960 950 965 l 950 947 q 942 857 950 914 q 935 814 940 843 q 928 772 933 814 q 991 778 964 772 q 1072 783 1021 783 q 1206 758 1158 783 q 1268 650 1268 722 q 1261 596 1268 650 q 1147 463 1242 510 q 900 414 1046 414 l 886 414 l 879 414 l 864 153 q 867 94 865 153 q 888 56 868 69 q 905 32 905 41 q 873 12 905 20 q 843 7 844 8 q 836 5 842 5 q 799 -1 823 1 q 721 -9 746 -9 q 669 1 703 -9 q 646 29 650 12 q 642 75 642 47 q 652 212 642 155 q 664 310 663 278 q 668 347 665 325 q 671 375 669 375 q 607 361 640 368 q 504 351 572 351 q 372 378 414 351 q 311 490 311 412 q 457 669 311 606 q 711 724 581 724 q 721 838 717 745 q 728 972 726 972 l 728 971 q 696 966 722 971 q 653 961 668 961 q 518 949 561 949 l 521 949 q 478 951 521 950 q 461 961 464 954 m 559 623 q 538 514 538 579 q 546 464 538 492 q 566 431 550 440 q 632 408 587 408 q 676 415 637 408 l 710 696 q 688 697 708 697 q 608 675 637 697 q 559 623 575 653 m 892 452 q 918 450 914 452 q 928 449 926 450 l 926 449 q 978 461 954 449 q 1021 504 1000 475 q 1048 608 1048 549 q 1029 693 1048 647 q 1004 720 1018 710 q 970 726 977 726 q 943 725 945 726 q 930 724 942 724 q 920 722 921 724 q 911 640 918 717 q 899 511 903 557 q 892 452 897 482 z "},"ˆ":{"ha":1292,"x_min":58,"x_max":1261,"o":"m 58 395 l 60 429 l 69 452 l 92 450 l 79 452 q 136 489 117 468 l 140 510 q 144 530 140 513 q 149 561 146 541 l 143 576 l 149 589 q 151 603 149 589 q 154 618 153 618 q 155 623 154 621 q 158 629 155 623 q 160 636 160 633 q 161 642 161 639 q 168 664 167 648 q 172 673 171 672 q 174 677 174 675 q 175 679 175 679 q 175 681 175 681 l 224 736 l 225 757 q 228 761 227 760 q 228 764 228 762 l 228 768 l 228 777 q 232 800 231 783 l 236 812 q 265 875 264 873 q 293 907 269 885 q 300 914 297 911 q 309 924 301 917 q 326 940 313 926 q 340 950 334 946 q 351 958 347 956 q 364 966 364 965 q 375 1025 364 966 l 395 1105 q 432 1143 408 1126 l 436 1165 q 444 1215 440 1181 l 467 1239 q 507 1244 489 1239 q 514 1249 511 1247 q 518 1251 517 1250 q 526 1257 519 1251 q 529 1260 528 1258 q 532 1261 530 1260 q 534 1263 533 1261 q 539 1265 534 1263 q 541 1267 541 1267 q 542 1268 542 1268 q 543 1270 543 1270 q 545 1271 545 1271 q 546 1272 546 1272 q 549 1274 547 1272 q 551 1275 550 1275 q 553 1276 551 1275 q 554 1278 553 1276 q 561 1282 559 1280 q 562 1283 561 1282 q 564 1284 562 1283 l 586 1292 l 574 1296 l 578 1296 l 581 1299 q 583 1297 582 1299 q 586 1296 585 1297 q 587 1293 586 1295 q 590 1292 589 1293 q 591 1289 590 1291 q 596 1284 591 1289 q 600 1271 597 1279 q 603 1270 602 1270 q 603 1267 603 1268 l 603 1264 l 603 1260 q 608 1239 607 1246 q 612 1229 608 1239 q 615 1222 614 1225 q 618 1215 616 1219 q 627 1190 625 1204 q 632 1177 629 1186 q 639 1157 636 1165 q 643 1140 642 1147 q 646 1131 644 1133 q 659 1093 659 1100 l 685 1088 q 692 1072 689 1083 q 694 1068 693 1069 q 694 1065 694 1067 q 696 1059 694 1061 q 704 1035 699 1050 l 724 1017 q 728 1010 725 1015 q 737 994 733 1002 q 743 986 743 986 q 746 981 746 981 q 749 979 747 979 q 749 977 749 978 l 749 974 q 761 957 754 964 q 765 951 762 954 q 768 947 768 949 q 772 942 770 945 q 810 900 782 930 q 831 871 827 875 q 885 786 840 865 l 831 768 q 821 758 827 762 q 812 749 817 753 q 811 747 811 749 q 810 746 810 747 q 808 745 810 746 q 802 737 803 739 q 791 722 800 736 q 790 721 790 722 q 789 720 789 721 q 787 717 789 718 q 786 715 786 717 q 785 713 786 714 q 781 708 782 710 l 777 693 l 782 648 l 821 635 l 861 636 l 899 664 l 926 650 q 964 616 950 625 q 986 604 968 614 q 997 599 990 603 q 1004 593 1003 595 q 1022 586 1018 587 q 1031 583 1025 585 q 1054 576 1032 583 q 1136 553 1120 553 q 1154 551 1137 551 q 1169 550 1157 550 q 1182 549 1179 550 q 1189 547 1183 547 q 1192 546 1190 546 l 1210 546 q 1218 545 1211 545 q 1231 543 1221 543 q 1249 541 1249 542 q 1261 539 1251 539 q 1249 524 1260 539 q 1244 521 1246 521 q 1244 519 1244 521 q 1242 517 1243 518 q 1240 515 1242 517 q 1239 514 1240 515 q 1238 513 1239 514 q 1235 510 1236 511 q 1213 485 1218 493 q 1206 476 1207 479 q 1204 475 1206 475 q 1201 472 1203 473 q 1197 468 1200 471 q 1186 450 1187 461 q 1164 425 1179 439 q 1162 424 1162 425 q 1160 421 1161 422 q 1153 408 1157 412 q 1149 404 1150 406 q 1145 401 1147 403 q 1141 399 1143 400 q 1136 393 1139 396 q 1117 371 1121 375 q 1108 361 1111 367 q 1101 353 1107 358 q 1099 349 1100 351 q 1093 343 1097 347 q 1087 336 1092 340 q 1082 329 1083 332 q 1072 318 1078 325 q 1051 293 1067 313 q 1050 292 1050 292 q 1047 289 1048 290 q 1044 286 1046 288 q 1042 282 1044 285 q 1022 258 1032 267 q 994 222 1010 239 q 981 214 990 222 q 978 212 978 212 q 975 211 977 211 q 974 210 975 211 q 970 208 971 210 q 965 207 965 207 q 964 205 964 205 q 958 203 964 204 q 956 201 957 201 q 954 200 956 201 q 953 199 954 200 q 913 187 953 199 q 847 94 895 155 l 828 87 q 818 83 822 85 q 808 78 812 81 q 800 74 804 77 q 789 69 796 72 q 772 64 782 66 q 746 56 761 61 l 721 62 q 644 49 665 58 l 616 16 l 618 16 q 590 11 618 12 q 571 9 585 9 q 562 8 568 8 l 564 8 q 538 5 564 8 l 513 5 l 486 17 l 461 17 l 446 26 q 419 46 428 37 q 418 49 418 47 q 415 50 416 49 q 414 52 415 52 q 406 58 411 53 q 400 64 406 58 q 399 65 399 64 q 396 66 397 66 q 390 72 392 71 q 389 75 389 74 q 387 77 389 75 q 386 79 386 78 q 385 81 386 79 q 358 114 366 109 l 336 106 q 302 119 328 111 q 279 127 288 126 q 267 132 269 129 l 249 153 q 240 164 245 155 q 235 171 237 168 q 231 175 232 174 q 225 183 225 183 q 220 189 221 187 q 216 193 218 192 q 214 196 215 195 q 212 197 212 197 q 211 199 212 197 q 214 216 211 205 q 201 237 203 232 l 201 240 q 200 241 200 241 q 199 243 200 241 q 195 252 197 244 q 168 271 187 260 q 150 317 164 293 l 149 330 q 114 353 146 330 l 94 357 q 87 358 89 357 q 79 359 86 359 q 62 361 78 361 l 58 395 m 79 387 l 82 425 q 89 429 85 428 q 92 432 90 431 q 93 432 92 432 q 96 435 94 433 q 100 435 97 435 q 109 439 104 436 q 117 444 113 441 q 165 473 117 444 l 174 532 l 170 595 l 195 659 l 244 730 l 261 800 l 273 821 q 285 840 278 829 q 294 857 290 851 q 310 884 300 868 l 375 937 l 379 943 l 406 996 l 408 1053 q 436 1105 435 1104 q 449 1143 436 1108 l 463 1156 l 473 1202 l 500 1210 q 501 1211 500 1211 q 503 1213 501 1213 q 505 1214 504 1213 q 509 1215 507 1215 q 510 1217 510 1215 q 513 1218 511 1218 q 514 1219 514 1218 q 517 1221 515 1221 q 518 1222 518 1221 q 519 1223 519 1222 q 521 1225 521 1223 q 522 1226 521 1225 q 539 1239 528 1234 q 541 1240 541 1240 q 542 1242 542 1242 q 545 1243 543 1242 q 555 1249 547 1243 q 574 1258 557 1250 q 583 1264 579 1264 q 587 1246 583 1263 q 591 1229 589 1239 q 593 1218 591 1222 q 595 1214 595 1215 q 597 1207 596 1211 q 599 1200 597 1204 q 600 1193 600 1196 q 603 1185 602 1187 q 606 1174 604 1181 q 610 1157 607 1168 q 612 1143 612 1143 q 633 1088 618 1116 q 646 1074 637 1082 q 653 1068 648 1071 q 660 1060 657 1064 q 664 1057 663 1060 q 665 1054 665 1055 q 667 1053 667 1053 q 669 1050 668 1051 q 671 1048 669 1050 q 676 1042 673 1044 q 677 1039 676 1040 q 682 1034 682 1035 q 685 1032 684 1032 q 685 1029 685 1031 l 685 1026 q 694 1010 694 1011 q 721 968 699 1002 q 771 895 734 951 q 785 876 779 884 q 793 865 789 869 q 807 846 807 848 q 825 819 817 832 q 835 806 833 808 l 755 733 l 737 679 l 766 627 l 762 616 l 804 606 l 897 623 q 968 581 962 582 q 1034 547 987 572 q 1083 528 1068 530 l 1203 515 l 1135 429 l 1112 416 l 1108 401 q 1103 395 1105 397 q 1099 389 1100 392 q 1086 374 1097 387 q 1079 364 1084 372 q 1072 357 1075 361 q 1065 349 1069 353 q 1057 345 1060 345 q 1055 342 1055 343 q 1054 340 1054 342 q 1053 339 1053 340 q 1051 338 1051 339 q 1050 335 1051 336 q 1047 332 1048 334 q 1046 330 1046 330 q 1044 329 1044 329 q 1043 328 1043 328 q 1042 326 1042 326 q 1039 322 1042 325 q 1010 285 1026 310 q 1003 273 1004 275 q 996 265 1002 271 q 983 250 994 264 q 975 237 978 240 q 970 232 975 237 l 918 228 q 917 227 918 228 q 916 225 917 227 q 914 224 914 224 q 911 220 913 222 q 909 216 909 220 q 907 214 908 215 q 905 212 905 212 q 903 210 904 211 q 901 208 901 208 q 900 205 901 207 q 899 204 899 204 q 897 203 897 203 q 896 200 896 201 q 892 196 895 199 q 889 193 890 195 q 886 189 888 191 q 882 184 885 186 q 812 110 850 144 l 787 98 q 751 82 757 87 l 743 82 l 726 83 l 677 78 l 663 90 l 650 69 l 632 64 q 616 56 631 60 q 610 52 614 53 q 602 43 606 47 q 562 35 581 39 q 534 29 551 29 l 504 31 q 478 39 496 31 q 471 41 478 39 q 465 43 467 41 q 463 45 463 45 q 458 47 460 46 q 456 47 457 47 l 452 47 l 439 58 q 437 61 437 60 q 436 62 436 62 q 435 64 436 62 q 432 66 433 65 q 427 71 429 68 l 427 74 q 424 75 425 74 q 422 78 422 77 l 419 78 q 418 81 418 79 q 415 83 416 82 q 414 85 414 85 q 412 86 414 85 q 346 139 378 134 q 290 150 339 144 l 236 204 q 233 210 235 204 q 232 214 232 211 q 231 218 231 215 q 231 221 231 220 q 228 222 229 221 q 222 233 225 228 q 218 240 220 237 q 197 281 211 245 q 191 293 197 281 q 172 322 184 300 q 163 340 171 328 q 149 361 157 347 q 114 379 118 379 q 98 383 113 380 q 89 385 97 385 q 83 386 87 386 q 79 387 81 386 m 224 273 q 264 368 261 366 q 279 401 279 401 q 298 446 285 411 q 302 456 300 450 q 307 467 304 460 q 319 493 310 471 q 338 539 323 514 q 346 559 345 550 q 347 566 347 564 q 349 568 347 567 q 350 572 350 570 q 351 575 350 574 q 353 578 353 576 q 354 579 353 579 q 355 583 354 582 q 361 597 355 586 q 370 615 367 606 q 372 623 371 619 q 374 627 374 624 q 406 696 374 629 l 530 571 q 497 642 514 608 q 476 686 481 676 q 456 730 473 693 q 443 755 443 753 q 431 785 443 755 q 419 810 427 794 q 411 831 411 828 q 378 913 396 872 l 457 914 l 456 914 l 454 914 l 453 914 q 452 914 452 914 q 627 911 452 914 q 625 911 625 911 q 690 908 625 909 l 753 908 q 743 889 749 895 q 739 882 742 888 q 737 878 739 879 q 736 875 737 876 q 726 851 728 859 q 722 839 724 840 q 717 827 721 835 q 710 817 711 819 q 703 804 710 815 q 690 783 696 793 q 661 737 665 743 q 648 711 656 724 q 640 696 644 704 q 635 686 636 693 q 619 657 629 673 q 607 632 610 639 q 579 582 583 595 q 654 647 635 628 q 708 694 675 663 q 714 677 708 694 q 728 642 715 675 q 742 607 728 640 q 745 603 743 604 q 746 596 745 600 q 754 571 747 591 q 769 536 762 550 q 782 510 777 522 q 793 481 791 484 q 799 471 794 478 q 803 463 802 464 q 811 446 810 454 q 812 443 812 444 q 814 440 812 441 q 817 435 814 440 q 818 433 818 433 q 819 431 818 432 q 821 427 819 428 q 831 400 827 424 q 842 368 836 396 q 852 346 842 368 q 868 315 867 326 q 889 258 868 310 l 782 199 q 733 184 774 199 q 718 180 729 182 q 701 176 705 176 q 696 175 697 175 q 693 174 694 174 q 669 165 671 168 l 665 165 q 664 165 665 165 q 661 163 663 164 l 659 163 q 657 163 659 163 q 654 160 656 161 q 653 158 654 160 l 652 158 l 650 158 l 606 82 q 564 83 603 83 l 539 83 q 514 86 514 86 l 465 155 q 457 160 464 157 q 452 163 453 161 q 449 163 450 163 q 446 165 447 164 q 444 165 444 165 l 441 165 q 417 174 427 172 q 370 193 408 175 q 342 205 354 201 q 332 210 335 208 q 328 211 328 210 q 321 214 325 211 q 313 216 317 215 q 307 222 313 221 q 304 225 306 224 q 301 225 302 225 q 298 228 300 227 q 297 228 298 228 q 267 245 288 232 q 224 273 240 264 z "},"‰":{"ha":930,"x_min":53,"x_max":863,"o":"m 539 61 q 389 24 492 56 q 261 -3 314 -3 q 197 14 224 -3 q 150 74 168 33 q 147 94 147 94 q 211 268 147 150 q 237 317 228 297 q 254 347 249 336 q 304 437 261 361 q 378 566 306 437 q 415 643 412 625 q 407 644 414 644 q 355 633 400 644 q 187 589 221 589 q 144 596 165 589 q 113 619 125 603 q 96 663 97 637 q 92 730 92 690 q 93 786 92 779 q 94 823 93 819 l 94 854 q 93 911 94 904 q 86 942 90 930 q 66 965 81 957 q 53 981 53 977 q 86 996 53 987 q 170 1010 138 1007 q 261 1015 204 1015 q 322 996 318 1015 q 326 939 326 974 q 322 838 326 907 q 317 758 317 793 q 329 699 317 718 q 359 684 340 684 l 379 684 q 399 685 383 685 q 441 690 436 685 q 467 720 454 694 q 476 736 472 730 q 481 743 478 741 q 485 753 482 747 q 490 762 489 758 q 530 846 521 822 q 533 851 532 848 q 534 857 533 856 q 538 863 536 859 q 539 868 539 867 q 547 895 543 880 q 554 947 554 933 q 551 977 554 949 q 536 997 545 991 q 525 1011 525 1008 q 574 1028 525 1017 q 656 1040 631 1039 q 718 1044 690 1044 q 785 1017 775 1044 q 789 981 789 1003 q 772 886 789 939 q 734 789 751 821 q 661 643 717 751 q 602 534 659 637 q 574 485 585 505 q 555 454 561 464 q 543 433 551 447 q 472 309 514 383 q 447 264 458 282 q 435 241 437 248 q 428 231 431 235 q 387 110 387 143 q 406 75 387 86 q 435 69 415 69 q 532 97 468 69 q 611 160 589 123 q 636 232 636 195 q 596 317 636 279 q 707 350 682 345 q 799 364 760 364 q 857 332 850 364 q 863 269 863 310 q 779 125 863 174 q 686 89 736 102 q 539 61 618 72 z "},"Š":{"ha":850,"x_min":107,"x_max":766,"o":"m 144 629 l 144 690 q 153 692 146 692 q 163 693 154 693 q 172 694 164 694 q 180 696 174 696 q 187 697 182 697 q 197 699 189 699 q 207 700 205 699 q 210 701 208 701 q 216 703 215 701 q 227 704 225 703 q 236 705 229 705 q 239 707 237 707 l 244 707 q 343 722 264 711 q 345 724 343 724 q 346 725 345 725 q 347 726 346 725 q 347 728 347 726 q 349 729 349 728 q 350 730 350 729 q 351 732 351 730 q 353 733 353 732 q 354 734 354 733 q 355 736 354 734 q 357 737 355 736 q 358 739 357 739 q 359 741 358 741 q 361 742 359 741 l 361 864 l 345 985 l 335 1000 l 343 1014 q 355 1018 343 1015 q 358 1019 357 1019 q 359 1021 359 1019 l 363 1021 l 371 1021 q 378 1022 374 1022 l 379 1022 q 401 1026 393 1025 q 406 1029 404 1028 q 407 1029 406 1029 l 411 1029 l 414 1029 l 412 1029 q 484 1039 444 1036 q 513 1031 496 1038 q 545 1023 539 1029 q 547 968 545 1023 l 547 970 q 550 930 549 970 q 551 909 551 929 q 553 890 553 908 q 554 873 553 875 q 558 838 555 863 q 566 757 559 803 l 728 732 q 729 730 729 730 q 730 729 729 730 q 733 728 732 729 q 734 725 734 726 q 737 722 734 725 q 741 718 737 721 q 750 704 747 710 q 753 699 750 704 q 758 690 755 697 q 766 673 762 688 l 766 608 l 757 543 q 705 396 720 435 q 690 353 697 370 q 671 300 685 336 q 661 268 668 289 q 648 235 653 245 q 629 178 635 191 q 625 168 628 176 q 621 154 624 163 q 614 134 621 154 q 608 118 608 118 q 603 109 603 109 q 599 94 602 103 q 599 93 599 94 q 597 92 597 92 q 596 86 597 87 q 595 82 595 85 q 593 75 593 81 q 591 71 593 74 q 590 68 591 69 l 590 65 q 590 64 590 65 q 587 61 589 62 q 589 21 587 22 q 597 -21 593 -9 l 589 -32 l 589 -45 q 489 -60 526 -60 q 439 -61 440 -60 q 386 -64 386 -62 l 389 -64 q 387 -62 387 -62 q 386 -61 386 -61 q 385 -60 385 -61 q 383 -58 385 -60 q 380 -54 382 -58 q 375 -49 380 -54 q 374 -47 374 -47 q 371 -43 372 -45 q 370 -41 370 -41 q 368 -40 368 -40 q 367 -39 368 -40 q 376 24 376 -4 q 380 36 378 28 q 382 40 382 37 q 383 41 383 40 l 383 43 q 385 49 385 45 q 386 53 385 52 q 390 64 387 61 q 392 66 390 65 q 393 72 392 71 q 395 75 395 74 q 396 79 396 78 q 397 86 396 85 q 453 260 437 205 q 457 269 456 265 q 461 285 460 273 q 469 313 469 309 q 473 326 471 314 q 478 340 478 338 q 479 343 479 342 q 482 351 479 343 q 489 372 486 366 q 498 401 494 386 q 500 403 500 401 q 501 404 501 403 l 501 408 q 503 415 501 414 q 504 416 504 416 q 511 439 505 416 q 521 468 514 450 q 526 489 526 486 q 532 504 528 489 q 534 513 533 509 q 538 518 536 515 q 547 547 542 530 q 549 554 547 553 q 551 561 550 554 q 553 567 553 566 q 554 570 553 568 l 554 571 q 562 597 559 585 l 567 652 l 554 704 q 539 708 554 704 q 530 710 532 708 q 528 711 529 711 q 521 713 526 713 q 511 715 519 715 q 469 721 496 721 q 410 717 431 721 q 351 694 410 717 l 353 632 l 338 568 q 294 518 309 528 q 273 503 294 517 q 267 498 271 500 q 253 490 267 498 q 244 489 250 489 q 232 486 232 486 l 231 486 q 229 485 229 485 q 227 484 228 485 q 218 482 224 482 q 212 481 216 481 q 207 478 211 478 q 203 476 205 476 q 193 475 201 475 q 180 473 192 473 q 168 472 170 473 q 154 471 155 472 q 135 472 135 471 q 107 473 132 473 q 110 481 109 478 q 111 486 111 484 q 117 497 111 486 q 122 511 117 500 q 126 522 125 519 q 140 568 138 553 q 142 582 142 570 q 143 599 143 583 q 144 619 144 600 q 144 629 144 621 z "},"‹":{"ha":334,"x_min":39,"x_max":357,"o":"m 237 277 q 229 279 237 278 q 225 281 227 279 q 222 282 222 281 q 220 283 221 283 q 215 285 218 285 q 210 286 214 286 q 205 288 208 288 q 204 289 204 289 q 203 290 203 289 q 201 293 201 292 q 197 297 199 296 q 195 301 196 300 q 191 309 193 302 q 187 313 189 311 q 184 315 186 314 q 183 318 183 317 q 180 319 182 318 q 179 321 180 319 q 178 323 178 322 q 175 326 176 325 q 172 332 174 326 q 171 334 172 334 q 170 336 171 335 q 164 346 168 342 q 126 408 143 382 q 125 411 126 408 q 123 414 123 412 q 122 415 122 415 q 121 416 122 415 q 111 433 121 419 q 103 446 106 443 q 97 457 103 452 q 86 475 96 457 q 71 498 86 475 q 66 505 68 501 q 64 510 65 509 q 57 524 58 519 q 53 529 54 528 q 49 536 50 534 q 47 539 49 538 q 45 542 46 541 q 43 545 45 543 q 41 566 41 546 q 40 576 41 575 l 40 581 l 40 579 l 40 597 q 39 614 39 599 q 52 633 43 625 q 53 636 53 635 q 54 637 54 636 q 57 642 57 640 q 61 648 58 646 q 62 652 61 650 q 64 653 62 653 q 65 654 64 654 q 66 656 65 656 q 71 663 68 660 q 82 684 72 663 q 87 692 82 685 q 97 708 87 694 q 102 717 98 715 q 103 718 103 718 q 104 720 104 720 q 113 730 110 726 q 117 737 115 734 q 127 754 118 749 q 140 772 129 761 q 151 790 143 775 q 160 804 157 803 q 163 810 160 807 q 164 811 164 810 q 165 812 165 811 l 165 814 q 182 840 174 828 q 187 848 186 844 q 189 852 189 850 q 191 856 191 854 q 192 859 192 857 q 193 860 193 860 q 195 861 195 861 l 195 863 q 201 873 195 863 q 205 882 203 879 q 208 885 207 884 q 211 886 210 885 q 214 889 212 888 q 216 889 216 889 q 224 893 221 893 q 231 897 228 895 q 239 901 231 897 q 245 905 243 903 q 257 913 245 905 l 260 914 q 262 911 260 914 q 265 909 264 911 q 272 905 268 907 q 275 903 273 904 q 278 901 277 901 q 281 900 278 900 q 282 899 282 899 q 283 897 282 899 q 289 895 286 897 q 290 893 289 895 q 293 892 292 893 q 296 890 294 892 q 297 889 297 889 q 298 888 297 889 l 301 888 q 304 885 302 886 q 307 884 306 884 q 309 880 309 882 q 325 868 321 869 q 357 833 326 868 q 353 817 354 822 q 351 810 351 815 q 350 807 350 810 q 349 803 350 804 q 306 743 346 796 q 300 733 302 741 q 290 720 298 732 q 283 708 285 711 q 279 703 282 705 q 275 696 277 697 q 273 694 275 694 q 272 692 273 693 q 271 690 272 692 q 269 688 271 689 q 268 686 269 688 q 267 684 268 684 q 257 669 261 669 q 245 650 249 657 q 243 646 245 648 q 241 644 243 646 q 240 642 241 642 q 239 639 240 642 q 237 636 239 637 q 236 635 236 636 q 235 632 236 633 q 232 629 233 631 q 229 625 232 628 q 228 623 228 623 q 227 621 228 621 q 224 616 227 619 q 222 615 224 615 q 221 614 222 614 l 221 612 l 221 611 l 220 611 l 218 607 q 216 606 216 607 q 215 604 216 606 q 214 603 215 604 l 214 600 l 193 586 l 214 572 q 215 571 215 571 q 216 568 215 570 q 222 559 222 562 q 231 543 225 553 q 237 532 232 543 q 241 524 239 525 q 245 514 243 522 q 248 510 245 511 q 249 505 248 507 q 250 500 249 501 q 257 493 250 500 q 260 490 257 493 q 262 489 261 490 q 264 486 262 488 q 265 484 264 485 q 267 482 267 482 q 268 481 267 482 q 269 479 269 479 q 271 478 269 479 q 273 475 271 478 q 306 427 290 454 q 339 364 313 414 q 338 359 338 363 q 336 354 336 358 q 332 339 335 343 q 326 326 332 336 q 325 322 326 323 q 323 318 323 321 q 322 315 322 317 l 321 315 l 321 314 l 321 313 q 279 279 307 302 q 258 278 278 278 q 237 277 257 277 z "},"Œ":{"ha":772,"x_min":-11,"x_max":779,"o":"m -11 -277 l -11 -151 l 779 -151 l 779 -277 l -11 -277 z "},"":{"ha":486,"x_min":-253,"x_max":444,"o":"m -253 596 l -35 596 q -31 612 -32 604 q -24 640 -29 621 q -18 664 -20 663 q -8 721 -8 682 q -36 772 -8 754 l 157 783 l 168 783 q 211 751 211 783 q 205 718 211 730 q 204 713 204 717 q 203 707 204 708 l 203 701 q 203 700 203 700 q 200 697 201 699 q 199 690 200 692 l 199 688 l 199 686 q 197 685 199 686 q 196 684 197 685 l 178 589 l 404 589 q 383 515 383 551 q 444 392 383 453 q 419 378 435 382 q 386 374 404 376 l 374 374 q 368 374 371 374 q 361 371 367 372 q 144 555 154 371 l -252 558 l -253 596 z "}}}
